Merriweather-Light Display.ufo
<glyph name="exclam" format="1">
  <advance width="672"/>
  <unicode hex="0021"/>
  <outline>
    <contour>
      <point x="598" y="1736" type="line"/>
      <point x="409" y="1736" type="line"/>
      <point x="264" y="478" type="line"/>
      <point x="374" y="478" type="line"/>
    </contour>
    <contour>
      <point x="161" y="89" type="curve"/>
      <point x="154" y="20"/>
      <point x="189" y="-18"/>
      <point x="244" y="-18" type="curve"/>
      <point x="306" y="-18"/>
      <point x="365" y="29"/>
      <point x="374" y="106" type="curve"/>
      <point x="382" y="168"/>
      <point x="355" y="214"/>
      <point x="283" y="214" type="curve"/>
      <point x="225" y="214"/>
      <point x="169" y="162"/>
    </contour>
  </outline>
</glyph>
<glyph name="numbersign" format="1">
  <advance width="1395"/>
  <unicode hex="0023"/>
  <outline>
    <contour>
      <point x="119" y="356" type="line"/>
      <point x="328" y="356" type="line"/>
      <point x="270" y="0" type="line"/>
      <point x="395" y="0" type="line"/>
      <point x="457" y="356" type="line"/>
      <point x="829" y="356" type="line"/>
      <point x="777" y="0" type="line"/>
      <point x="905" y="0" type="line"/>
      <point x="959" y="356" type="line"/>
      <point x="1191" y="356" type="line"/>
      <point x="1198" y="462" type="line"/>
      <point x="976" y="462" type="line"/>
      <point x="1046" y="896" type="line"/>
      <point x="1281" y="896" type="line"/>
      <point x="1287" y="1000" type="line"/>
      <point x="1061" y="1000" type="line"/>
      <point x="1115" y="1326" type="line"/>
      <point x="985" y="1326" type="line"/>
      <point x="929" y="1000" type="line"/>
      <point x="559" y="1000" type="line"/>
      <point x="609" y="1326" type="line"/>
      <point x="480" y="1326" type="line"/>
      <point x="428" y="1000" type="line"/>
      <point x="203" y="1000" type="line"/>
      <point x="197" y="896" type="line"/>
      <point x="413" y="896" type="line"/>
      <point x="345" y="462" type="line"/>
      <point x="126" y="462" type="line"/>
    </contour>
    <contour>
      <point x="915" y="896" type="line"/>
      <point x="844" y="462" type="line"/>
      <point x="474" y="462" type="line"/>
      <point x="543" y="896" type="line"/>
    </contour>
  </outline>
</glyph>
<glyph name="parenleft" format="1">
  <advance width="835"/>
  <unicode hex="0028"/>
  <outline>
    <contour>
      <point x="196" y="486" type="curve"/>
      <point x="196" y="-14"/>
      <point x="459" y="-271"/>
      <point x="531" y="-319" type="curve"/>
      <point x="545" y="-319" type="line"/>
      <point x="628" y="-267" type="line"/>
      <point x="547" y="-202"/>
      <point x="358" y="55"/>
      <point x="358" y="492" type="curve"/>
      <point x="358" y="564"/>
      <point x="365" y="659"/>
      <point x="377" y="739" type="curve"/>
      <point x="463" y="1262"/>
      <point x="788" y="1590"/>
      <point x="878" y="1646" type="curve"/>
      <point x="808" y="1696" type="line"/>
      <point x="712" y="1644"/>
      <point x="288" y="1266"/>
      <point x="210" y="700" type="curve"/>
      <point x="202" y="626"/>
      <point x="196" y="554"/>
    </contour>
  </outline>
</glyph>
<glyph name="asterisk" format="1">
  <advance width="1334"/>
  <unicode hex="002A"/>
  <outline>
    <contour>
      <point x="585" y="1072" type="line"/>
      <point x="272" y="937" type="line"/>
      <point x="333" y="802" type="line"/>
      <point x="622" y="994" type="line"/>
      <point x="726" y="1070" type="line"/>
      <point x="700" y="954" type="line"/>
      <point x="639" y="626" type="line"/>
      <point x="790" y="626" type="line"/>
      <point x="786" y="953" type="line"/>
      <point x="782" y="1071" type="line"/>
      <point x="867" y="994" type="line"/>
      <point x="1110" y="796" type="line"/>
      <point x="1200" y="932" type="line"/>
      <point x="918" y="1070" type="line"/>
      <point x="813" y="1117" type="line"/>
      <point x="932" y="1163" type="line"/>
      <point x="1247" y="1300" type="line"/>
      <point x="1186" y="1435" type="line"/>
      <point x="896" y="1241" type="line"/>
      <point x="791" y="1165" type="line"/>
      <point x="817" y="1285" type="line"/>
      <point x="878" y="1615" type="line"/>
      <point x="727" y="1615" type="line"/>
      <point x="729" y="1286" type="line"/>
      <point x="737" y="1165" type="line"/>
      <point x="648" y="1241" type="line"/>
      <point x="400" y="1439" type="line"/>
      <point x="310" y="1304" type="line"/>
      <point x="597" y="1163" type="line"/>
      <point x="706" y="1117" type="line"/>
    </contour>
  </outline>
</glyph>
<glyph name="hyphen" format="1">
  <advance width="1153"/>
  <unicode hex="002D"/>
  <outline>
    <contour>
      <point x="992" y="704" type="line"/>
      <point x="204" y="704" type="line"/>
      <point x="186" y="578" type="line"/>
      <point x="973" y="578" type="line"/>
    </contour>
  </outline>
</glyph>
<glyph name="period" format="1">
  <advance width="445"/>
  <unicode hex="002E"/>
  <outline>
    <contour>
      <point x="50" y="89" type="curve"/>
      <point x="43" y="20"/>
      <point x="81" y="-18"/>
      <point x="136" y="-18" type="curve"/>
      <point x="196" y="-18"/>
      <point x="255" y="29"/>
      <point x="266" y="107" type="curve"/>
      <point x="274" y="168"/>
      <point x="246" y="214"/>
      <point x="174" y="214" type="curve"/>
      <point x="114" y="214"/>
      <point x="60" y="163"/>
    </contour>
  </outline>
</glyph>
<glyph name="one" format="1">
  <advance width="878"/>
  <unicode hex="0031"/>
  <outline>
    <contour>
      <point x="324" y="92" type="line"/>
      <point x="90" y="72" type="line"/>
      <point x="80" y="0" type="line"/>
      <point x="718" y="0" type="line"/>
      <point x="726" y="72" type="line"/>
      <point x="486" y="94" type="line"/>
      <point x="666" y="1486" type="line"/>
      <point x="596" y="1504" type="line"/>
      <point x="492" y="1434"/>
      <point x="324" y="1338"/>
      <point x="186" y="1308" type="curve"/>
      <point x="198" y="1228" type="line"/>
      <point x="304" y="1248"/>
      <point x="410" y="1284"/>
      <point x="482" y="1308" type="curve"/>
    </contour>
    <contour>
      <point x="250" y="0" type="move" name="bottom"/>
    </contour>
    <contour>
      <point x="378" y="-164" type="move" name="btm"/>
    </contour>
    <contour>
      <point x="520" y="20" type="move" name="ogonek"/>
    </contour>
    <contour>
      <point x="476" y="1660" type="move" name="top"/>
    </contour>
    <contour>
      <point x="154" y="1486" type="move" name="topleft"/>
    </contour>
  </outline>
</glyph>
<glyph name="eight" format="1">
  <advance width="1158"/>
  <unicode hex="0038"/>
  <outline>
    <contour>
      <point x="94" y="328" type="curve"/>
      <point x="94" y="84"/>
      <point x="320" y="-18"/>
      <point x="514" y="-18" type="curve"/>
      <point x="772" y="-18"/>
      <point x="1016" y="126"/>
      <point x="1016" y="384" type="curve"/>
      <point x="1016" y="550"/>
      <point x="858" y="680"/>
      <point x="716" y="780" type="curve"/>
      <point x="924" y="878"/>
      <point x="1074" y="1014"/>
      <point x="1074" y="1200" type="curve"/>
      <point x="1074" y="1388"/>
      <point x="904" y="1502"/>
      <point x="708" y="1502" type="curve"/>
      <point x="448" y="1502"/>
      <point x="256" y="1356"/>
      <point x="256" y="1134" type="curve"/>
      <point x="256" y="978"/>
      <point x="384" y="860"/>
      <point x="486" y="776" type="curve"/>
      <point x="272" y="684"/>
      <point x="94" y="542"/>
    </contour>
    <contour>
      <point x="648" y="826" type="curve"/>
      <point x="524" y="912"/>
      <point x="406" y="1010"/>
      <point x="406" y="1150" type="curve"/>
      <point x="406" y="1314"/>
      <point x="528" y="1420"/>
      <point x="692" y="1420" type="curve"/>
      <point x="818" y="1420"/>
      <point x="922" y="1346"/>
      <point x="922" y="1182" type="curve"/>
      <point x="922" y="1022"/>
      <point x="812" y="894"/>
    </contour>
    <contour>
      <point x="258" y="352" type="curve"/>
      <point x="262" y="528"/>
      <point x="396" y="658"/>
      <point x="544" y="722" type="curve"/>
      <point x="710" y="608"/>
      <point x="856" y="506"/>
      <point x="856" y="360" type="curve"/>
      <point x="856" y="182"/>
      <point x="714" y="72"/>
      <point x="540" y="72" type="curve"/>
      <point x="366" y="72"/>
      <point x="258" y="186"/>
    </contour>
  </outline>
</glyph>
<glyph name="at" format="1">
  <advance width="1925"/>
  <unicode hex="0040"/>
  <outline>
    <contour>
      <point x="116" y="319" type="curve"/>
      <point x="116" y="-189"/>
      <point x="427" y="-500"/>
      <point x="901" y="-500" type="curve"/>
      <point x="1069" y="-500"/>
      <point x="1217" y="-456"/>
      <point x="1307" y="-386" type="curve"/>
      <point x="1282" y="-316" type="line"/>
      <point x="1220" y="-350"/>
      <point x="1064" y="-389"/>
      <point x="920" y="-389" type="curve"/>
      <point x="527" y="-389"/>
      <point x="235" y="-119"/>
      <point x="235" y="375" type="curve"/>
      <point x="235" y="905"/>
      <point x="571" y="1399"/>
      <point x="1110" y="1399" type="curve"/>
      <point x="1430" y="1399"/>
      <point x="1711" y="1245"/>
      <point x="1711" y="825" type="curve"/>
      <point x="1711" y="455"/>
      <point x="1503" y="87"/>
      <point x="1326" y="87" type="curve"/>
      <point x="1295" y="87"/>
      <point x="1288" y="127"/>
      <point x="1287" y="151" type="curve"/>
      <point x="1283" y="187"/>
      <point x="1292" y="286"/>
      <point x="1302" y="387" type="curve"/>
      <point x="1322" y="585"/>
      <point x="1374" y="875"/>
      <point x="1413" y="1025" type="curve"/>
      <point x="1283" y="999" type="line"/>
      <point x="1225" y="1037"/>
      <point x="1118" y="1052"/>
      <point x="1062" y="1052" type="curve"/>
      <point x="699" y="1052"/>
      <point x="529" y="694"/>
      <point x="527" y="409" type="curve"/>
      <point x="525" y="119"/>
      <point x="672" y="-36"/>
      <point x="806" y="-36" type="curve"/>
      <point x="957" y="-36"/>
      <point x="1107" y="234"/>
      <point x="1193" y="444" type="curve"/>
      <point x="1164" y="324"/>
      <point x="1148" y="209"/>
      <point x="1148" y="163" type="curve"/>
      <point x="1148" y="62"/>
      <point x="1155" y="-31"/>
      <point x="1245" y="-31" type="curve"/>
      <point x="1504" y="-31"/>
      <point x="1826" y="320"/>
      <point x="1826" y="875" type="curve"/>
      <point x="1826" y="1288"/>
      <point x="1544" y="1505"/>
      <point x="1174" y="1505" type="curve"/>
      <point x="601" y="1505"/>
      <point x="116" y="1028"/>
    </contour>
    <contour>
      <point x="671" y="418" type="curve"/>
      <point x="671" y="657"/>
      <point x="764" y="951"/>
      <point x="1050" y="951" type="curve"/>
      <point x="1106" y="951"/>
      <point x="1205" y="926"/>
      <point x="1244" y="873" type="curve"/>
      <point x="1167" y="545"/>
      <point x="963" y="97"/>
      <point x="832" y="97" type="curve"/>
      <point x="735" y="97"/>
      <point x="671" y="233"/>
    </contour>
  </outline>
</glyph>
<glyph name="A" format="1">
  <advance width="1277"/>
  <unicode hex="0041"/>
  <outline>
    <contour>
      <point x="-94" y="36" type="line"/>
      <point x="-99" y="0" type="line"/>
      <point x="322" y="0" type="line"/>
      <point x="326" y="36" type="line"/>
      <point x="148" y="60" type="line"/>
      <point x="708" y="1287" type="line"/>
      <point x="774" y="1432" type="line"/>
      <point x="737" y="1438" type="line"/>
      <point x="758" y="1246" type="line"/>
      <point x="953" y="66" type="line"/>
      <point x="779" y="36" type="line"/>
      <point x="771" y="0" type="line"/>
      <point x="1248" y="0" type="line"/>
      <point x="1252" y="36" type="line"/>
      <point x="1113" y="62" type="line"/>
      <point x="856" y="1498" type="line"/>
      <point x="731" y="1498" type="line"/>
      <point x="42" y="58" type="line"/>
    </contour>
    <contour>
      <point x="313" y="545" type="line"/>
      <point x="313" y="479" type="line"/>
      <point x="942" y="479" type="line"/>
      <point x="942" y="545" type="line"/>
    </contour>
    <contour>
      <point x="560" y="0" type="move" name="bottom"/>
    </contour>
    <contour>
      <point x="1084" y="20" type="move" name="ogonek"/>
    </contour>
    <contour>
      <point x="778" y="1486" type="move" name="top"/>
    </contour>
  </outline>
</glyph>
<glyph name="I" format="1">
  <advance width="556"/>
  <unicode hex="0049"/>
  <outline>
    <contour>
      <point x="-12" y="36" type="line"/>
      <point x="-17" y="0" type="line"/>
      <point x="435" y="0" type="line"/>
      <point x="440" y="36" type="line"/>
      <point x="292" y="67" type="line"/>
      <point x="478" y="1420" type="line"/>
      <point x="614" y="1450" type="line"/>
      <point x="619" y="1486" type="line"/>
      <point x="189" y="1486" type="line"/>
      <point x="184" y="1450" type="line"/>
      <point x="320" y="1420" type="line"/>
      <point x="134" y="67" type="line"/>
    </contour>
    <contour>
      <point x="218" y="0" type="move" name="bottom"/>
    </contour>
    <contour>
      <point x="400" y="-164" type="move" name="btm"/>
    </contour>
    <contour>
      <point x="365" y="20" type="move" name="ogonek"/>
    </contour>
    <contour>
      <point x="417" y="1486" type="move" name="top"/>
    </contour>
    <contour>
      <point x="177" y="1486" type="move" name="topleft"/>
    </contour>
  </outline>
</glyph>
<glyph name="O" format="1">
  <advance width="1294"/>
  <unicode hex="004F"/>
  <outline>
    <contour>
      <point x="588" y="-22" type="curve"/>
      <point x="988" y="-22"/>
      <point x="1274" y="374"/>
      <point x="1266" y="885" type="curve"/>
      <point x="1260" y="1263"/>
      <point x="1104" y="1503"/>
      <point x="775" y="1503" type="curve"/>
      <point x="381" y="1503"/>
      <point x="87" y="1121"/>
      <point x="94" y="605" type="curve"/>
      <point x="99" y="216"/>
      <point x="265" y="-22"/>
    </contour>
    <contour>
      <point x="612" y="29" type="curve"/>
      <point x="389" y="29"/>
      <point x="262" y="246"/>
      <point x="258" y="613" type="curve"/>
      <point x="253" y="1091"/>
      <point x="468" y="1452"/>
      <point x="753" y="1452" type="curve"/>
      <point x="981" y="1452"/>
      <point x="1096" y="1252"/>
      <point x="1102" y="874" type="curve"/>
      <point x="1109" y="420"/>
      <point x="896" y="29"/>
    </contour>
    <contour>
      <point x="578" y="0" type="move" name="bottom"/>
    </contour>
    <contour>
      <point x="680" y="743" type="move" name="center"/>
    </contour>
    <contour>
      <point x="1098" y="10" type="move" name="ogonek"/>
    </contour>
    <contour>
      <point x="782" y="1486" type="move" name="top"/>
    </contour>
    <contour>
      <point x="155" y="1486" type="move" name="topleft"/>
    </contour>
    <contour>
      <point x="1409" y="1486" type="move" name="topright"/>
    </contour>
  </outline>
</glyph>
<glyph name="S" format="1">
  <advance width="958"/>
  <unicode hex="0053"/>
  <outline>
    <contour>
      <point x="379" y="-22" type="curve"/>
      <point x="661" y="-22"/>
      <point x="881" y="148"/>
      <point x="878" y="416" type="curve"/>
      <point x="876" y="630"/>
      <point x="719" y="718"/>
      <point x="571" y="814" type="curve"/>
      <point x="435" y="902"/>
      <point x="301" y="978"/>
      <point x="303" y="1162" type="curve"/>
      <point x="305" y="1346"/>
      <point x="453" y="1448"/>
      <point x="609" y="1448" type="curve"/>
      <point x="730" y="1448"/>
      <point x="793" y="1410"/>
      <point x="835" y="1376" type="curve"/>
      <point x="843" y="1166" type="line"/>
      <point x="900" y="1166" type="line"/>
      <point x="944" y="1422" type="line"/>
      <point x="890" y="1453"/>
      <point x="760" y="1502"/>
      <point x="616" y="1502" type="curve"/>
      <point x="347" y="1502"/>
      <point x="152" y="1348"/>
      <point x="154" y="1092" type="curve"/>
      <point x="156" y="872"/>
      <point x="339" y="778"/>
      <point x="481" y="684" type="curve"/>
      <point x="611" y="598"/>
      <point x="727" y="520"/>
      <point x="721" y="342" type="curve"/>
      <point x="713" y="114"/>
      <point x="531" y="32"/>
      <point x="385" y="32" type="curve"/>
      <point x="269" y="32"/>
      <point x="185" y="76"/>
      <point x="129" y="114" type="curve"/>
      <point x="121" y="338" type="line"/>
      <point x="57" y="338" type="line"/>
      <point x="11" y="64" type="line"/>
      <point x="59" y="28"/>
      <point x="229" y="-22"/>
    </contour>
    <contour>
      <point x="403" y="0" type="move" name="bottom"/>
    </contour>
    <contour>
      <point x="609" y="1486" type="move" name="top"/>
    </contour>
  </outline>
</glyph>
<glyph name="U" format="1">
  <advance width="1345"/>
  <unicode hex="0055"/>
  <outline>
    <contour>
      <point x="622" y="-20" type="curve"/>
      <point x="938" y="-20"/>
      <point x="1128" y="173"/>
      <point x="1183" y="612" type="curve"/>
      <point x="1284" y="1421" type="line"/>
      <point x="1420" y="1450" type="line"/>
      <point x="1425" y="1486" type="line"/>
      <point x="1056" y="1486" type="line"/>
      <point x="1051" y="1450" type="line"/>
      <point x="1197" y="1420" type="line"/>
      <point x="1111" y="612" type="line" smooth="yes"/>
      <point x="1069" y="218"/>
      <point x="886" y="55"/>
      <point x="647" y="55" type="curve"/>
      <point x="409" y="55"/>
      <point x="325" y="213"/>
      <point x="325" y="438" type="curve"/>
      <point x="325" y="487"/>
      <point x="329" y="539"/>
      <point x="336" y="593" type="curve"/>
      <point x="440" y="1420" type="line"/>
      <point x="587" y="1450" type="line"/>
      <point x="592" y="1486" type="line"/>
      <point x="154" y="1486" type="line"/>
      <point x="149" y="1450" type="line"/>
      <point x="280" y="1421" type="line"/>
      <point x="174" y="580" type="line" smooth="yes"/>
      <point x="168" y="536"/>
      <point x="166" y="493"/>
      <point x="166" y="452" type="curve"/>
      <point x="166" y="163"/>
      <point x="306" y="-20"/>
    </contour>
    <contour>
      <point x="616" y="0" type="move" name="bottom"/>
    </contour>
    <contour>
      <point x="790" y="20" type="move" name="ogonek"/>
    </contour>
    <contour>
      <point x="800" y="1486" type="move" name="top"/>
    </contour>
    <contour>
      <point x="1452" y="1486" type="move" name="topright"/>
    </contour>
  </outline>
</glyph>
<glyph name="f" format="1">
  <advance width="684"/>
  <unicode hex="0066"/>
  <outline>
    <contour>
      <point x="314" y="1219" type="curve"/>
      <point x="300" y="1123" type="line"/>
      <point x="158" y="1074" type="line"/>
      <point x="144" y="1012" type="line"/>
      <point x="281" y="1012" type="line"/>
      <point x="134" y="-130" type="line"/>
      <point x="114" y="-282"/>
      <point x="78" y="-389"/>
      <point x="-11" y="-389" type="curve"/>
      <point x="-64" y="-389"/>
      <point x="-156" y="-362"/>
      <point x="-168" y="-356" type="curve"/>
      <point x="-209" y="-491" type="line"/>
      <point x="-181" y="-499"/>
      <point x="-112" y="-506"/>
      <point x="-48" y="-504" type="curve"/>
      <point x="145" y="-498"/>
      <point x="265" y="-324"/>
      <point x="300" y="-62" type="curve"/>
      <point x="441" y="1012" type="line"/>
      <point x="697" y="1012" type="line"/>
      <point x="710" y="1127" type="line"/>
      <point x="455" y="1127" type="line"/>
      <point x="468" y="1236" type="line" smooth="yes"/>
      <point x="490" y="1402"/>
      <point x="562" y="1514"/>
      <point x="677" y="1514" type="curve"/>
      <point x="748" y="1516"/>
      <point x="792" y="1490"/>
      <point x="818" y="1472" type="curve"/>
      <point x="863" y="1606" type="line"/>
      <point x="813" y="1626"/>
      <point x="760" y="1630"/>
      <point x="708" y="1630" type="curve"/>
      <point x="523" y="1630"/>
      <point x="350" y="1446"/>
    </contour>
    <contour>
      <point x="232" y="1333" type="move" name="top"/>
    </contour>
  </outline>
</glyph>
<glyph name="k" format="1">
  <advance width="1067"/>
  <unicode hex="006B"/>
  <outline>
    <contour>
      <point x="364" y="596" type="curve"/>
      <point x="665" y="87" type="line"/>
      <point x="708" y="13"/>
      <point x="763" y="-20"/>
      <point x="828" y="-20" type="curve"/>
      <point x="925" y="-20"/>
      <point x="995" y="38"/>
      <point x="1025" y="90" type="curve"/>
      <point x="991" y="147" type="line"/>
      <point x="952" y="107"/>
      <point x="930" y="101"/>
      <point x="904" y="101" type="curve"/>
      <point x="870" y="101"/>
      <point x="824" y="137"/>
      <point x="788" y="189" type="curve"/>
      <point x="505" y="606" type="line"/>
      <point x="607" y="667"/>
      <point x="851" y="786"/>
      <point x="942" y="916" type="curve"/>
      <point x="974" y="961"/>
      <point x="987" y="1006"/>
      <point x="985" y="1040" type="curve"/>
      <point x="983" y="1089"/>
      <point x="949" y="1123"/>
      <point x="904" y="1123" type="curve"/>
      <point x="859" y="1123"/>
      <point x="810" y="1093"/>
      <point x="800" y="1030" type="curve"/>
      <point x="795" y="987"/>
      <point x="786" y="935"/>
      <point x="745" y="880" type="curve"/>
      <point x="648" y="750"/>
      <point x="496" y="691"/>
    </contour>
    <contour>
      <point x="474" y="1589" type="line"/>
      <point x="433" y="1613" type="line"/>
      <point x="203" y="1579" type="line"/>
      <point x="191" y="1512" type="line"/>
      <point x="304" y="1479" type="line"/>
      <point x="107" y="0" type="line"/>
      <point x="259" y="0" type="line"/>
    </contour>
    <contour>
      <point x="463" y="0" type="move" name="bottom"/>
    </contour>
    <contour>
      <point x="685" y="1548" type="move" name="top"/>
    </contour>
  </outline>
</glyph>
<glyph name="t" format="1">
  <advance width="690"/>
  <unicode hex="0074"/>
  <outline>
    <contour>
      <point x="296" y="339" type="curve"/>
      <point x="395" y="999" type="line"/>
      <point x="667" y="999" type="line"/>
      <point x="682" y="1110" type="line"/>
      <point x="408" y="1110" type="line"/>
      <point x="444" y="1382" type="line"/>
      <point x="365" y="1382" type="line"/>
      <point x="338" y="1299"/>
      <point x="289" y="1154"/>
      <point x="254" y="1108" type="curve"/>
      <point x="129" y="1069" type="line"/>
      <point x="113" y="999" type="line"/>
      <point x="235" y="999" type="line"/>
      <point x="132" y="275" type="line" smooth="yes"/>
      <point x="125" y="228"/>
      <point x="121" y="179"/>
      <point x="121" y="145" type="curve"/>
      <point x="121" y="30"/>
      <point x="185" y="-20"/>
      <point x="287" y="-20" type="curve"/>
      <point x="440" y="-20"/>
      <point x="554" y="61"/>
      <point x="597" y="112" type="curve"/>
      <point x="573" y="194" type="line"/>
      <point x="536" y="163"/>
      <point x="460" y="110"/>
      <point x="344" y="110" type="curve"/>
      <point x="302" y="110"/>
      <point x="282" y="134"/>
      <point x="282" y="173" type="curve"/>
      <point x="282" y="235"/>
      <point x="286" y="271"/>
    </contour>
    <contour>
      <point x="250" y="0" type="move" name="bottom"/>
    </contour>
    <contour>
      <point x="478" y="1110" type="move" name="car"/>
    </contour>
    <contour>
      <point x="403" y="1271" type="move" name="top"/>
    </contour>
  </outline>
</glyph>
<glyph name="w" format="1">
  <advance width="1624"/>
  <unicode hex="0077"/>
  <outline>
    <contour>
      <point x="151" y="951" type="curve"/>
      <point x="254" y="318" type="line"/>
      <point x="310" y="-20" type="line"/>
      <point x="446" y="-8" type="line"/>
      <point x="586" y="289" type="line"/>
      <point x="825" y="798" type="line"/>
      <point x="869" y="934" type="line"/>
      <point x="878" y="800" type="line"/>
      <point x="917" y="316" type="line"/>
      <point x="952" y="-18" type="line"/>
      <point x="1098" y="-8" type="line"/>
      <point x="1293" y="296" type="line"/>
      <point x="1422" y="486"/>
      <point x="1568" y="760"/>
      <point x="1568" y="941" type="curve"/>
      <point x="1568" y="1066"/>
      <point x="1535" y="1134"/>
      <point x="1464" y="1134" type="curve"/>
      <point x="1418" y="1134"/>
      <point x="1386" y="1104"/>
      <point x="1386" y="1047" type="curve"/>
      <point x="1386" y="1009"/>
      <point x="1418" y="963"/>
      <point x="1416" y="895" type="curve"/>
      <point x="1411" y="681"/>
      <point x="1262" y="403"/>
      <point x="1195" y="308" type="curve"/>
      <point x="1068" y="125" type="line"/>
      <point x="1052" y="309" type="line"/>
      <point x="979" y="1126" type="line"/>
      <point x="837" y="1126" type="line"/>
      <point x="484" y="297" type="line"/>
      <point x="407" y="124" type="line"/>
      <point x="389" y="311" type="line"/>
      <point x="313" y="1000" type="line"/>
      <point x="301" y="1086"/>
      <point x="279" y="1134"/>
      <point x="187" y="1134" type="curve"/>
      <point x="93" y="1134"/>
      <point x="19" y="1052"/>
      <point x="7" y="1031" type="curve"/>
      <point x="29" y="980" type="line"/>
      <point x="51" y="997"/>
      <point x="74" y="1020"/>
      <point x="104" y="1018" type="curve"/>
      <point x="129" y="1018"/>
      <point x="141" y="999"/>
    </contour>
    <contour>
      <point x="902" y="1110" type="move" name="top"/>
    </contour>
  </outline>
</glyph>
<glyph name="y" format="1">
  <advance width="1089"/>
  <unicode hex="0079"/>
  <outline>
    <contour>
      <point x="205" y="949" type="curve"/>
      <point x="386" y="-78" type="line"/>
      <point x="460" y="-78" type="line"/>
      <point x="350" y="-297"/>
      <point x="205" y="-375"/>
      <point x="106" y="-375" type="curve"/>
      <point x="14" y="-375"/>
      <point x="-39" y="-347"/>
      <point x="-59" y="-335" type="curve"/>
      <point x="-98" y="-464" type="line"/>
      <point x="-58" y="-478"/>
      <point x="28" y="-495"/>
      <point x="86" y="-495" type="curve"/>
      <point x="265" y="-495"/>
      <point x="365" y="-394"/>
      <point x="418" y="-316" type="curve"/>
      <point x="498" y="-218"/>
      <point x="623" y="-20"/>
      <point x="774" y="291" type="curve"/>
      <point x="872" y="473"/>
      <point x="1024" y="733"/>
      <point x="1024" y="955" type="curve"/>
      <point x="1024" y="1066"/>
      <point x="984" y="1130"/>
      <point x="915" y="1130" type="curve"/>
      <point x="872" y="1130"/>
      <point x="838" y="1106"/>
      <point x="838" y="1047" type="curve"/>
      <point x="838" y="1002"/>
      <point x="874" y="971"/>
      <point x="874" y="914" type="curve"/>
      <point x="874" y="695"/>
      <point x="759" y="507"/>
      <point x="654" y="289" type="curve"/>
      <point x="492" y="-22" type="line"/>
      <point x="464" y="251" type="line"/>
      <point x="430" y="499"/>
      <point x="395" y="750"/>
      <point x="361" y="998" type="curve"/>
      <point x="351" y="1080"/>
      <point x="329" y="1132"/>
      <point x="239" y="1132" type="curve"/>
      <point x="145" y="1132"/>
      <point x="61" y="1038"/>
      <point x="47" y="1014" type="curve"/>
      <point x="71" y="963" type="line"/>
      <point x="108" y="999"/>
      <point x="131" y="1016"/>
      <point x="157" y="1016" type="curve"/>
      <point x="179" y="1016"/>
      <point x="195" y="1004"/>
    </contour>
    <contour>
      <point x="859" y="0" type="move" name="bottom"/>
    </contour>
    <contour>
      <point x="606" y="1110" type="move" name="top"/>
    </contour>
  </outline>
</glyph>
<glyph name="braceleft" format="1">
  <advance width="997"/>
  <unicode hex="007B"/>
  <outline>
    <contour>
      <point x="308" y="-65" type="curve"/>
      <point x="306" y="-152"/>
      <point x="344" y="-179"/>
      <point x="441" y="-179" type="curve"/>
      <point x="547" y="-179"/>
      <point x="621" y="-162"/>
      <point x="709" y="-142" type="curve"/>
      <point x="709" y="-142"/>
      <point x="716" y="-81"/>
      <point x="718" y="-69" type="curve"/>
      <point x="450" y="-69" type="line"/>
      <point x="544" y="562" type="line" smooth="yes"/>
      <point x="551" y="604"/>
      <point x="532" y="640"/>
      <point x="492" y="670" type="curve"/>
      <point x="460" y="698"/>
      <point x="403" y="728"/>
      <point x="341" y="758" type="curve"/>
      <point x="362" y="764"/>
      <point x="466" y="808"/>
      <point x="500" y="824" type="curve"/>
      <point x="563" y="856"/>
      <point x="595" y="894"/>
      <point x="603" y="948" type="curve"/>
      <point x="699" y="1579" type="line"/>
      <point x="969" y="1579" type="line"/>
      <point x="969" y="1593"/>
      <point x="980" y="1650"/>
      <point x="980" y="1650" type="curve"/>
      <point x="980" y="1650"/>
      <point x="808" y="1686"/>
      <point x="722" y="1686" type="curve"/>
      <point x="604" y="1686"/>
      <point x="563" y="1646"/>
      <point x="540" y="1489" type="curve"/>
      <point x="456" y="944" type="line"/>
      <point x="452" y="918"/>
      <point x="430" y="892"/>
      <point x="381" y="871" type="curve"/>
      <point x="331" y="847"/>
      <point x="255" y="825"/>
      <point x="187" y="809" type="curve"/>
      <point x="173" y="707" type="line"/>
      <point x="235" y="692"/>
      <point x="297" y="668"/>
      <point x="341" y="639" type="curve"/>
      <point x="378" y="619"/>
      <point x="402" y="594"/>
      <point x="400" y="566" type="curve"/>
      <point x="400" y="566"/>
      <point x="308" y="-43"/>
    </contour>
  </outline>
</glyph>
<glyph name="currency" format="1">
  <advance width="1489"/>
  <unicode hex="00A4"/>
  <outline>
    <contour>
      <point x="427" y="414" type="curve"/>
      <point x="244" y="227" type="line"/>
      <point x="331" y="136" type="line"/>
      <point x="520" y="325" type="line"/>
      <point x="590" y="276"/>
      <point x="677" y="246"/>
      <point x="769" y="246" type="curve"/>
      <point x="866" y="246"/>
      <point x="955" y="278"/>
      <point x="1025" y="331" type="curve"/>
      <point x="1214" y="140" type="line"/>
      <point x="1303" y="233" type="line"/>
      <point x="1116" y="420" type="line"/>
      <point x="1167" y="491"/>
      <point x="1199" y="579"/>
      <point x="1199" y="674" type="curve"/>
      <point x="1199" y="765"/>
      <point x="1169" y="851"/>
      <point x="1120" y="920" type="curve"/>
      <point x="1305" y="1107" type="line"/>
      <point x="1218" y="1198" type="line"/>
      <point x="1031" y="1013" type="line"/>
      <point x="959" y="1068"/>
      <point x="868" y="1102"/>
      <point x="769" y="1102" type="curve"/>
      <point x="675" y="1102"/>
      <point x="588" y="1070"/>
      <point x="516" y="1019" type="curve"/>
      <point x="327" y="1210" type="line"/>
      <point x="240" y="1119" type="line"/>
      <point x="425" y="932" type="line"/>
      <point x="372" y="860"/>
      <point x="340" y="771"/>
      <point x="340" y="674" type="curve"/>
      <point x="340" y="575"/>
      <point x="372" y="485"/>
    </contour>
    <contour>
      <point x="457" y="674" type="curve"/>
      <point x="457" y="848"/>
      <point x="596" y="991"/>
      <point x="769" y="991" type="curve"/>
      <point x="943" y="991"/>
      <point x="1081" y="848"/>
      <point x="1081" y="674" type="curve"/>
      <point x="1081" y="500"/>
      <point x="943" y="357"/>
      <point x="769" y="357" type="curve"/>
      <point x="596" y="357"/>
      <point x="457" y="500"/>
    </contour>
  </outline>
</glyph>
<glyph name="AE" format="1">
  <advance width="1787"/>
  <unicode hex="00C6"/>
  <outline>
    <contour>
      <point x="686" y="70" type="line"/>
      <point x="677" y="0" type="line"/>
      <point x="1658" y="0" type="line"/>
      <point x="1728" y="301" type="line"/>
      <point x="1642" y="324" type="line"/>
      <point x="1547" y="113" type="line"/>
      <point x="977" y="94" type="line"/>
      <point x="1053" y="715" type="line"/>
      <point x="1486" y="702" type="line"/>
      <point x="1498" y="837" type="line"/>
      <point x="1061" y="816" type="line"/>
      <point x="1137" y="1398" type="line"/>
      <point x="1599" y="1387" type="line"/>
      <point x="1631" y="1196" type="line"/>
      <point x="1719" y="1196" type="line"/>
      <point x="1728" y="1486" type="line"/>
      <point x="417" y="1486" type="line"/>
      <point x="407" y="1406" type="line"/>
      <point x="710" y="1387" type="line"/>
      <point x="13" y="92" type="line"/>
      <point x="-149" y="70" type="line"/>
      <point x="-161" y="0" type="line"/>
      <point x="386" y="0" type="line"/>
      <point x="392" y="70" type="line"/>
      <point x="172" y="94" type="line"/>
      <point x="370" y="483" type="line"/>
      <point x="863" y="483" type="line"/>
      <point x="815" y="92" type="line"/>
    </contour>
    <contour>
      <point x="420" y="582" type="line"/>
      <point x="831" y="1387" type="line"/>
      <point x="970" y="1381" type="line"/>
      <point x="873" y="582" type="line"/>
    </contour>
    <contour>
      <point x="1145" y="1486" type="move" name="top"/>
    </contour>
  </outline>
</glyph>
<glyph name="Eth" format="1">
  <advance width="1380"/>
  <unicode hex="00D0"/>
  <outline>
    <contour>
      <point x="470" y="1488" type="curve"/>
      <point x="210" y="1488" type="line"/>
      <point x="202" y="1408" type="line"/>
      <point x="334" y="1388" type="line"/>
      <point x="262" y="818" type="line"/>
      <point x="106" y="818" type="line"/>
      <point x="92" y="712" type="line"/>
      <point x="248" y="712" type="line"/>
      <point x="170" y="96" type="line"/>
      <point x="24" y="72" type="line"/>
      <point x="14" y="2" type="line"/>
      <point x="242" y="2" type="line" smooth="yes"/>
      <point x="296" y="2"/>
      <point x="402" y="-4"/>
      <point x="446" y="-6" type="curve"/>
      <point x="476" y="-8"/>
      <point x="528" y="-12"/>
      <point x="554" y="-14" type="curve"/>
      <point x="1022" y="-48"/>
      <point x="1328" y="384"/>
      <point x="1322" y="902" type="curve"/>
      <point x="1320" y="1262"/>
      <point x="1158" y="1504"/>
      <point x="756" y="1504" type="curve"/>
      <point x="656" y="1504"/>
      <point x="562" y="1490"/>
    </contour>
    <contour>
      <point x="330" y="108" type="curve"/>
      <point x="406" y="712" type="line"/>
      <point x="818" y="712" type="line"/>
      <point x="830" y="818" type="line"/>
      <point x="420" y="818" type="line"/>
      <point x="492" y="1392" type="line"/>
      <point x="550" y="1400"/>
      <point x="644" y="1410"/>
      <point x="712" y="1410" type="curve"/>
      <point x="1030" y="1410"/>
      <point x="1154" y="1256"/>
      <point x="1160" y="888" type="curve"/>
      <point x="1162" y="496"/>
      <point x="984" y="100"/>
      <point x="594" y="82" type="curve"/>
      <point x="530" y="82"/>
      <point x="406" y="92"/>
    </contour>
  </outline>
</glyph>
<glyph name="multiply" format="1">
  <advance width="1338"/>
  <unicode hex="00D7"/>
  <outline>
    <contour>
      <point x="688" y="665" type="curve"/>
      <point x="973" y="318" type="line"/>
      <point x="1077" y="417" type="line"/>
      <point x="773" y="746" type="line"/>
      <point x="1153" y="1079" type="line"/>
      <point x="1074" y="1178" type="line"/>
      <point x="950" y="1063"/>
      <point x="828" y="944"/>
      <point x="704" y="829" type="curve"/>
      <point x="419" y="1175" type="line"/>
      <point x="318" y="1077" type="line"/>
      <point x="619" y="748" type="line"/>
      <point x="236" y="417" type="line"/>
      <point x="315" y="316" type="line"/>
      <point x="438" y="431"/>
      <point x="564" y="550"/>
    </contour>
  </outline>
</glyph>
<glyph name="ae" format="1">
  <advance width="1696"/>
  <unicode hex="00E6"/>
  <outline>
    <contour>
      <point x="999" y="980" type="curve"/>
      <point x="1026" y="1134" type="line"/>
      <point x="915" y="1100" type="line"/>
      <point x="859" y="1118"/>
      <point x="785" y="1134"/>
      <point x="717" y="1134" type="curve"/>
      <point x="315" y="1134"/>
      <point x="84" y="706"/>
      <point x="84" y="399" type="curve"/>
      <point x="84" y="144"/>
      <point x="175" y="-20"/>
      <point x="379" y="-20" type="curve"/>
      <point x="554" y="-20"/>
      <point x="702" y="158"/>
      <point x="774" y="306" type="curve"/>
      <point x="799" y="113"/>
      <point x="908" y="-20"/>
      <point x="1132" y="-20" type="curve"/>
      <point x="1333" y="-20"/>
      <point x="1499" y="105"/>
      <point x="1554" y="184" type="curve"/>
      <point x="1517" y="252" type="line"/>
      <point x="1405" y="142"/>
      <point x="1268" y="94"/>
      <point x="1155" y="94" type="curve"/>
      <point x="959" y="94"/>
      <point x="922" y="274"/>
      <point x="932" y="455" type="curve"/>
      <point x="1131" y="459"/>
      <point x="1608" y="581"/>
      <point x="1607" y="888" type="curve"/>
      <point x="1607" y="1026"/>
      <point x="1521" y="1140"/>
      <point x="1332" y="1134" type="curve"/>
      <point x="1208" y="1130"/>
      <point x="1092" y="1073"/>
    </contour>
    <contour>
      <point x="859" y="987" type="curve"/>
      <point x="765" y="409" type="line"/>
      <point x="712" y="305"/>
      <point x="571" y="97"/>
      <point x="411" y="97" type="curve"/>
      <point x="307" y="97"/>
      <point x="247" y="199"/>
      <point x="247" y="417" type="curve"/>
      <point x="247" y="680"/>
      <point x="401" y="1036"/>
      <point x="694" y="1038" type="curve"/>
      <point x="756" y="1038"/>
      <point x="817" y="1023"/>
    </contour>
    <contour>
      <point x="1296" y="1041" type="curve"/>
      <point x="1393" y="1041"/>
      <point x="1446" y="986"/>
      <point x="1446" y="877" type="curve"/>
      <point x="1446" y="670"/>
      <point x="1147" y="551"/>
      <point x="936" y="545" type="curve"/>
      <point x="957" y="752"/>
      <point x="1086" y="1041"/>
    </contour>
    <contour>
      <point x="1013" y="1110" type="move" name="top"/>
    </contour>
  </outline>
</glyph>
<glyph name="eth" format="1">
  <advance width="1130"/>
  <unicode hex="00F0"/>
  <outline>
    <contour>
      <point x="587" y="1451" type="curve"/>
      <point x="601" y="1536" type="line"/>
      <point x="377" y="1347" type="line"/>
      <point x="455" y="1275" type="line"/>
      <point x="681" y="1478" type="line"/>
      <point x="588" y="1462" type="line"/>
      <point x="771" y="1309"/>
      <point x="859" y="1182"/>
      <point x="900" y="953" type="curve"/>
      <point x="851" y="1027"/>
      <point x="728" y="1084"/>
      <point x="623" y="1084" type="curve"/>
      <point x="348" y="1084"/>
      <point x="82" y="831"/>
      <point x="82" y="414" type="curve"/>
      <point x="82" y="204"/>
      <point x="209" y="-20"/>
      <point x="469" y="-20" type="curve"/>
      <point x="842" y="-20"/>
      <point x="1042" y="352"/>
      <point x="1042" y="801" type="curve"/>
      <point x="1042" y="1121"/>
      <point x="928" y="1345"/>
      <point x="672" y="1547" type="curve"/>
      <point x="665" y="1458" type="line"/>
      <point x="887" y="1651" type="line"/>
      <point x="811" y="1724" type="line"/>
      <point x="811" y="1724"/>
      <point x="646" y="1583"/>
      <point x="600" y="1534" type="curve"/>
      <point x="675" y="1539" type="line"/>
      <point x="577" y="1607"/>
      <point x="461" y="1669"/>
      <point x="380" y="1688" type="curve"/>
      <point x="345" y="1590" type="line"/>
      <point x="421" y="1574"/>
      <point x="522" y="1514"/>
    </contour>
    <contour>
      <point x="621" y="993" type="curve"/>
      <point x="800" y="993"/>
      <point x="865" y="823"/>
      <point x="870" y="761" type="curve"/>
      <point x="874" y="721"/>
      <point x="867" y="620"/>
      <point x="858" y="551" type="curve"/>
      <point x="819" y="283"/>
      <point x="678" y="68"/>
      <point x="488" y="68" type="curve"/>
      <point x="331" y="68"/>
      <point x="251" y="223"/>
      <point x="251" y="401" type="curve"/>
      <point x="251" y="689"/>
      <point x="384" y="993"/>
    </contour>
  </outline>
</glyph>
<glyph name="oslash" format="1">
  <advance width="1119"/>
  <unicode hex="00F8"/>
  <outline>
    <contour>
      <point x="885" y="1060" type="curve"/>
      <point x="985" y="1222" type="line"/>
      <point x="916" y="1263" type="line"/>
      <point x="816" y="1102" type="line"/>
      <point x="766" y="1126"/>
      <point x="707" y="1138"/>
      <point x="640" y="1138" type="curve"/>
      <point x="306" y="1138"/>
      <point x="79" y="788"/>
      <point x="82" y="430" type="curve"/>
      <point x="84" y="274"/>
      <point x="128" y="152"/>
      <point x="209" y="76" type="curve"/>
      <point x="102" y="-91" type="line"/>
      <point x="172" y="-130" type="line"/>
      <point x="274" y="27" type="line"/>
      <point x="330" y="-2"/>
      <point x="397" y="-18"/>
      <point x="473" y="-18" type="curve"/>
      <point x="807" y="-18"/>
      <point x="1034" y="336"/>
      <point x="1030" y="688" type="curve"/>
      <point x="1028" y="858"/>
      <point x="978" y="986"/>
    </contour>
    <contour>
      <point x="753" y="993" type="curve"/>
      <point x="299" y="203" type="line"/>
      <point x="266" y="258"/>
      <point x="250" y="336"/>
      <point x="248" y="431" type="curve"/>
      <point x="243" y="699"/>
      <point x="366" y="1040"/>
      <point x="614" y="1040" type="curve"/>
      <point x="669" y="1040"/>
      <point x="716" y="1023"/>
    </contour>
    <contour>
      <point x="341" y="141" type="curve"/>
      <point x="800" y="937" type="line"/>
      <point x="841" y="878"/>
      <point x="862" y="792"/>
      <point x="864" y="687" type="curve"/>
      <point x="868" y="423"/>
      <point x="744" y="79"/>
      <point x="502" y="79" type="curve"/>
      <point x="435" y="79"/>
      <point x="382" y="100"/>
    </contour>
    <contour>
      <point x="640" y="1110" type="move" name="top"/>
    </contour>
  </outline>
</glyph>
<glyph name="thorn" format="1">
  <advance width="1110"/>
  <unicode hex="00FE"/>
  <outline>
    <contour>
      <point x="371" y="955" type="curve"/>
      <point x="460" y="1610" type="line"/>
      <point x="419" y="1634" type="line"/>
      <point x="210" y="1602" type="line"/>
      <point x="194" y="1535" type="line"/>
      <point x="288" y="1500" type="line"/>
      <point x="87" y="-5" type="line"/>
      <point x="17" y="-508" type="line"/>
      <point x="167" y="-508" type="line"/>
      <point x="224" y="-108" type="line"/>
      <point x="236" y="7" type="line"/>
      <point x="287" y="-7"/>
      <point x="351" y="-20"/>
      <point x="407" y="-20" type="curve"/>
      <point x="802" y="-20"/>
      <point x="1028" y="405"/>
      <point x="1028" y="712" type="curve"/>
      <point x="1028" y="959"/>
      <point x="922" y="1136"/>
      <point x="696" y="1136" type="curve"/>
      <point x="551" y="1136"/>
      <point x="433" y="1043"/>
    </contour>
    <contour>
      <point x="258" y="126" type="curve"/>
      <point x="351" y="818" type="line"/>
      <point x="400" y="900"/>
      <point x="524" y="1020"/>
      <point x="665" y="1020" type="curve"/>
      <point x="793" y="1020"/>
      <point x="865" y="901"/>
      <point x="865" y="703" type="curve"/>
      <point x="865" y="448"/>
      <point x="725" y="78"/>
      <point x="429" y="78" type="curve"/>
      <point x="367" y="78"/>
      <point x="303" y="90"/>
    </contour>
  </outline>
</glyph>
<glyph name="Hbar" format="1">
  <advance width="1461"/>
  <unicode hex="0126"/>
  <outline>
    <contour>
      <point x="648" y="1486" type="line"/>
      <point x="228" y="1486" type="line"/>
      <point x="218" y="1406" type="line"/>
      <point x="338" y="1386" type="line"/>
      <point x="302" y="1104" type="line"/>
      <point x="94" y="1104" type="line"/>
      <point x="84" y="1000" type="line"/>
      <point x="288" y="1000" type="line"/>
      <point x="166" y="94" type="line"/>
      <point x="18" y="70" type="line"/>
      <point x="10" y="0" type="line"/>
      <point x="464" y="0" type="line"/>
      <point x="470" y="70" type="line"/>
      <point x="324" y="94" type="line"/>
      <point x="397" y="638" type="line"/>
      <point x="1095" y="638" type="line"/>
      <point x="1024" y="94" type="line"/>
      <point x="858" y="70" type="line"/>
      <point x="852" y="0" type="line"/>
      <point x="1318" y="0" type="line"/>
      <point x="1324" y="70" type="line"/>
      <point x="1180" y="94" type="line"/>
      <point x="1299" y="1000" type="line"/>
      <point x="1507" y="1000" type="line"/>
      <point x="1517" y="1104" type="line"/>
      <point x="1314" y="1104" type="line"/>
      <point x="1352" y="1386" type="line"/>
      <point x="1488" y="1406" type="line"/>
      <point x="1498" y="1486" type="line"/>
      <point x="1066" y="1486" type="line"/>
      <point x="1058" y="1406" type="line"/>
      <point x="1196" y="1386" type="line"/>
      <point x="1158" y="1104" type="line"/>
      <point x="462" y="1104" type="line"/>
      <point x="498" y="1386" type="line"/>
      <point x="640" y="1406" type="line"/>
    </contour>
    <contour>
      <point x="412" y="740" type="line"/>
      <point x="446" y="1000" type="line"/>
      <point x="1144" y="1000" type="line"/>
      <point x="1110" y="740" type="line"/>
    </contour>
  </outline>
</glyph>
<glyph name="hbar" format="1">
  <advance width="1216"/>
  <unicode hex="0127"/>
  <outline>
    <contour>
      <point x="384" y="852" type="curve"/>
      <point x="437" y="1249" type="line"/>
      <point x="698" y="1249" type="line"/>
      <point x="712" y="1337" type="line"/>
      <point x="449" y="1337" type="line"/>
      <point x="483" y="1588" type="line"/>
      <point x="442" y="1612" type="line"/>
      <point x="211" y="1578" type="line"/>
      <point x="199" y="1511" type="line"/>
      <point x="312" y="1478" type="line"/>
      <point x="292" y="1337" type="line"/>
      <point x="136" y="1337" type="line"/>
      <point x="124" y="1249" type="line"/>
      <point x="282" y="1249" type="line"/>
      <point x="117" y="0" type="line"/>
      <point x="270" y="0" type="line"/>
      <point x="367" y="724" type="line"/>
      <point x="467" y="877"/>
      <point x="633" y="1008"/>
      <point x="754" y="1008" type="curve"/>
      <point x="842" y="1008"/>
      <point x="885" y="969"/>
      <point x="885" y="836" type="curve"/>
      <point x="885" y="715"/>
      <point x="851" y="559"/>
      <point x="829" y="445" type="curve"/>
      <point x="811" y="335"/>
      <point x="780" y="187"/>
      <point x="776" y="97" type="curve"/>
      <point x="772" y="13"/>
      <point x="813" y="-20"/>
      <point x="886" y="-20" type="curve"/>
      <point x="997" y="-20"/>
      <point x="1084" y="77"/>
      <point x="1099" y="101" type="curve"/>
      <point x="1074" y="147" type="line"/>
      <point x="1026" y="105"/>
      <point x="1001" y="86"/>
      <point x="969" y="86" type="curve"/>
      <point x="949" y="86"/>
      <point x="939" y="111"/>
      <point x="941" y="157" type="curve"/>
      <point x="948" y="255"/>
      <point x="976" y="394"/>
      <point x="994" y="494" type="curve"/>
      <point x="1014" y="602"/>
      <point x="1046" y="752"/>
      <point x="1046" y="846" type="curve"/>
      <point x="1046" y="1064"/>
      <point x="960" y="1136"/>
      <point x="822" y="1136" type="curve"/>
      <point x="654" y="1136"/>
      <point x="490" y="1002"/>
    </contour>
  </outline>
</glyph>
<glyph name="kgreenlandic" format="1">
  <advance width="1045"/>
  <unicode hex="0138"/>
  <outline>
    <contour>
      <point x="793" y="181" type="curve"/>
      <point x="534" y="579" type="line"/>
      <point x="1067" y="1110" type="line"/>
      <point x="888" y="1110" type="line"/>
      <point x="384" y="572" type="line"/>
      <point x="667" y="87" type="line"/>
      <point x="708" y="11"/>
      <point x="745" y="-18"/>
      <point x="824" y="-18" type="curve"/>
      <point x="909" y="-18"/>
      <point x="975" y="35"/>
      <point x="1004" y="73" type="curve"/>
      <point x="973" y="126" type="line"/>
      <point x="941" y="107"/>
      <point x="915" y="99"/>
      <point x="895" y="99" type="curve"/>
      <point x="861" y="99"/>
      <point x="819" y="142"/>
    </contour>
    <contour>
      <point x="431" y="1101" type="line"/>
      <point x="390" y="1125" type="line"/>
      <point x="169" y="1088" type="line"/>
      <point x="153" y="1021" type="line"/>
      <point x="261" y="989" type="line"/>
      <point x="135" y="0" type="line"/>
      <point x="287" y="0" type="line"/>
    </contour>
    <contour>
      <point x="574" y="-126" type="move" name="bottom"/>
    </contour>
  </outline>
</glyph>
<glyph name="uogonek" format="1">
  <advance width="1154"/>
  <unicode hex="0173"/>
  <outline>
    <component base="u"/>
    <component base="ogonekcomb" xOffset="1228" yOffset="16"/>
    <contour>
      <point x="639" y="1110" type="move" name="top"/>
    </contour>
  </outline>
</glyph>
<glyph name="ohorn" format="1">
  <advance width="1120"/>
  <unicode hex="01A1"/>
  <outline>
    <contour>
      <point x="478" y="-20" type="curve"/>
      <point x="812" y="-20"/>
      <point x="1039" y="334"/>
      <point x="1035" y="686" type="curve"/>
      <point x="1033" y="825"/>
      <point x="999" y="936"/>
      <point x="936" y="1012" type="curve"/>
      <point x="1081" y="1047"/>
      <point x="1191" y="1120"/>
      <point x="1211" y="1256" type="curve"/>
      <point x="1213" y="1270"/>
      <point x="1215" y="1286"/>
      <point x="1215" y="1302" type="curve"/>
      <point x="1054" y="1302" type="line"/>
      <point x="1054" y="1279" type="line" smooth="yes"/>
      <point x="1054" y="1166"/>
      <point x="949" y="1109"/>
      <point x="813" y="1105" type="curve"/>
      <point x="764" y="1125"/>
      <point x="708" y="1136"/>
      <point x="645" y="1136" type="curve"/>
      <point x="311" y="1136"/>
      <point x="84" y="786"/>
      <point x="87" y="428" type="curve"/>
      <point x="91" y="143"/>
      <point x="230" y="-20"/>
    </contour>
    <contour>
      <point x="252" y="429" type="curve"/>
      <point x="248" y="697"/>
      <point x="371" y="1038"/>
      <point x="618" y="1038" type="curve"/>
      <point x="783" y="1038"/>
      <point x="867" y="907"/>
      <point x="869" y="685" type="curve"/>
      <point x="873" y="421"/>
      <point x="749" y="77"/>
      <point x="507" y="77" type="curve"/>
      <point x="344" y="77"/>
      <point x="255" y="205"/>
    </contour>
    <contour>
      <point x="474" y="0" type="move" name="bottom"/>
    </contour>
    <contour>
      <point x="642" y="1111" type="move" name="top"/>
    </contour>
  </outline>
</glyph>
<glyph name="Uhorn" format="1">
  <advance width="1434"/>
  <unicode hex="01AF"/>
  <outline>
    <contour>
      <point x="149" y="1486" type="line"/>
      <point x="141" y="1406" type="line"/>
      <point x="277" y="1388" type="line"/>
      <point x="172" y="580" type="line" smooth="yes"/>
      <point x="164" y="522"/>
      <point x="162" y="466"/>
      <point x="164" y="416" type="curve"/>
      <point x="168" y="148"/>
      <point x="319" y="-20"/>
      <point x="603" y="-20" type="curve"/>
      <point x="939" y="-20"/>
      <point x="1130" y="152"/>
      <point x="1190" y="612" type="curve"/>
      <point x="1291" y="1388" type="line"/>
      <point x="1513" y="1417"/>
      <point x="1590" y="1500"/>
      <point x="1586" y="1686" type="curve"/>
      <point x="1586" y="1700"/>
      <point x="1584" y="1714"/>
      <point x="1582" y="1730" type="curve"/>
      <point x="1426" y="1730" type="line"/>
      <point x="1428" y="1722"/>
      <point x="1428" y="1710"/>
      <point x="1428" y="1696" type="curve"/>
      <point x="1428" y="1596"/>
      <point x="1383" y="1486"/>
      <point x="1219" y="1486" type="curve"/>
      <point x="1034" y="1486" type="line"/>
      <point x="1026" y="1406" type="line"/>
      <point x="1158" y="1386" type="line"/>
      <point x="1057" y="612" type="line" smooth="yes"/>
      <point x="1012" y="246"/>
      <point x="877" y="70"/>
      <point x="628" y="70" type="curve"/>
      <point x="424" y="70"/>
      <point x="327" y="200"/>
      <point x="323" y="408" type="curve"/>
      <point x="321" y="464"/>
      <point x="323" y="522"/>
      <point x="333" y="593" type="curve"/>
      <point x="439" y="1386" type="line"/>
      <point x="591" y="1406" type="line"/>
      <point x="600" y="1486" type="line"/>
    </contour>
    <contour>
      <point x="613" y="0" type="move" name="bottom"/>
    </contour>
    <contour>
      <point x="801" y="1486" type="move" name="top"/>
    </contour>
  </outline>
</glyph>
<glyph name="Ecedilla" format="1">
  <advance width="1162"/>
  <unicode hex="0228"/>
  <outline>
    <component base="E"/>
    <component base="cedillacomb.case" xOffset="584"/>
    <contour>
      <point x="714" y="1486" type="move" name="top"/>
    </contour>
    <contour>
      <point x="168" y="1486" type="move" name="topleft"/>
    </contour>
  </outline>
</glyph>
<glyph name="circumflex" format="1">
  <advance width="776"/>
  <unicode hex="02C6"/>
  <outline>
    <contour>
      <point x="389" y="1613" type="line"/>
      <point x="52" y="1253" type="line"/>
      <point x="99" y="1208" type="line"/>
      <point x="438" y="1490" type="line"/>
      <point x="664" y="1206" type="line"/>
      <point x="724" y="1251" type="line"/>
      <point x="526" y="1613" type="line"/>
    </contour>
    <contour>
      <point x="410" y="1226" type="move" name="_top"/>
    </contour>
  </outline>
</glyph>
<glyph name="verticallinemod" format="1">
  <advance width="71"/>
  <unicode hex="02C8"/>
  <outline>
    <contour>
      <point x="96" y="960" type="line"/>
      <point x="226" y="1668" type="line"/>
      <point x="80" y="1668" type="line"/>
      <point x="-1" y="960" type="line"/>
    </contour>
    <contour>
      <point x="78" y="1110" type="move" name="_top"/>
    </contour>
    <contour>
      <point x="134" y="1496" type="move" name="top"/>
    </contour>
  </outline>
</glyph>
<glyph name="fourthtonechinese" format="1">
  <advance width="0"/>
  <unicode hex="02CB"/>
  <outline>
    <contour>
      <point x="146" y="1314" type="curve"/>
      <point x="200" y="1364" type="line"/>
      <point x="-74" y="1759" type="line"/>
      <point x="-195" y="1653" type="line"/>
      <point x="-144" y="1561"/>
      <point x="55" y="1370"/>
    </contour>
    <contour>
      <point x="80" y="1108" type="move" name="_top"/>
    </contour>
    <contour>
      <point x="162" y="1689" type="move" name="top"/>
    </contour>
  </outline>
</glyph>
<glyph name="breve" format="1">
  <advance width="700"/>
  <unicode hex="02D8"/>
  <outline>
    <contour>
      <point x="341" y="1274" type="curve"/>
      <point x="510" y="1274"/>
      <point x="645" y="1435"/>
      <point x="660" y="1582" type="curve"/>
      <point x="662" y="1590"/>
      <point x="662" y="1602"/>
      <point x="662" y="1612" type="curve"/>
      <point x="580" y="1612" type="line"/>
      <point x="565" y="1534"/>
      <point x="489" y="1394"/>
      <point x="343" y="1394" type="curve"/>
      <point x="214" y="1394"/>
      <point x="157" y="1495"/>
      <point x="146" y="1581" type="curve"/>
      <point x="146" y="1591"/>
      <point x="144" y="1602"/>
      <point x="144" y="1612" type="curve"/>
      <point x="58" y="1612" type="line"/>
      <point x="58" y="1605"/>
      <point x="58" y="1596"/>
      <point x="58" y="1589" type="curve"/>
      <point x="58" y="1434"/>
      <point x="156" y="1274"/>
    </contour>
    <contour>
      <point x="342" y="1226" type="move" name="_top"/>
    </contour>
  </outline>
</glyph>
<glyph name="ring" format="1">
  <advance width="706"/>
  <unicode hex="02DA"/>
  <outline>
    <contour>
      <point x="469" y="1320" type="curve"/>
      <point x="616" y="1320"/>
      <point x="772" y="1405"/>
      <point x="772" y="1596" type="curve"/>
      <point x="772" y="1700"/>
      <point x="683" y="1795"/>
      <point x="530" y="1795" type="curve"/>
      <point x="388" y="1795"/>
      <point x="220" y="1719"/>
      <point x="220" y="1530" type="curve"/>
      <point x="220" y="1414"/>
      <point x="308" y="1320"/>
    </contour>
    <contour>
      <point x="476" y="1405" type="curve"/>
      <point x="391" y="1405"/>
      <point x="336" y="1465"/>
      <point x="336" y="1543" type="curve"/>
      <point x="336" y="1662"/>
      <point x="430" y="1712"/>
      <point x="519" y="1712" type="curve"/>
      <point x="602" y="1712"/>
      <point x="656" y="1662"/>
      <point x="656" y="1579" type="curve"/>
      <point x="656" y="1454"/>
      <point x="563" y="1405"/>
    </contour>
  </outline>
</glyph>
<glyph name="ogonek" format="1">
  <advance width="485"/>
  <unicode hex="02DB"/>
  <outline>
    <contour>
      <point x="340" y="47" type="line"/>
      <point x="294" y="21" type="line"/>
      <point x="190" y="-44"/>
      <point x="58" y="-118"/>
      <point x="58" y="-262" type="curve"/>
      <point x="58" y="-332"/>
      <point x="110" y="-388"/>
      <point x="206" y="-390" type="curve"/>
      <point x="294" y="-390"/>
      <point x="371" y="-345"/>
      <point x="421" y="-301" type="curve"/>
      <point x="400" y="-232" type="line"/>
      <point x="357" y="-271"/>
      <point x="306" y="-293"/>
      <point x="256" y="-293" type="curve"/>
      <point x="218" y="-293"/>
      <point x="198" y="-272"/>
      <point x="198" y="-226" type="curve"/>
      <point x="198" y="-130"/>
      <point x="286" y="-57"/>
      <point x="360" y="6" type="curve"/>
    </contour>
    <contour>
      <point x="304" y="-166" type="move" name="_btm"/>
    </contour>
  </outline>
</glyph>
<glyph name="tilde" format="1">
  <advance width="796"/>
  <unicode hex="02DC"/>
  <outline>
    <contour>
      <point x="46" y="1425" type="curve"/>
      <point x="85" y="1356" type="line"/>
      <point x="123" y="1398"/>
      <point x="184" y="1457"/>
      <point x="244" y="1457" type="curve"/>
      <point x="352" y="1454"/>
      <point x="356" y="1312"/>
      <point x="508" y="1312" type="curve"/>
      <point x="611" y="1312"/>
      <point x="708" y="1391"/>
      <point x="740" y="1485" type="curve"/>
      <point x="692" y="1560" type="line"/>
      <point x="662" y="1516"/>
      <point x="614" y="1445"/>
      <point x="536" y="1445" type="curve"/>
      <point x="440" y="1445"/>
      <point x="409" y="1587"/>
      <point x="281" y="1587" type="curve"/>
      <point x="183" y="1587"/>
      <point x="88" y="1507"/>
    </contour>
    <contour>
      <point x="388" y="1226" type="move" name="_top"/>
    </contour>
  </outline>
</glyph>
<glyph name="gravecomb" format="1">
  <advance width="0"/>
  <unicode hex="0300"/>
  <outline>
    <contour>
      <point x="160" y="1258" type="curve"/>
      <point x="214" y="1308" type="line"/>
      <point x="-60" y="1702" type="line"/>
      <point x="-182" y="1596" type="line"/>
      <point x="-130" y="1506"/>
      <point x="70" y="1314"/>
    </contour>
    <contour>
      <point x="80" y="1108" type="move" name="_top"/>
    </contour>
    <contour>
      <point x="162" y="1657" type="move" name="top"/>
    </contour>
  </outline>
</glyph>
<glyph name="circumflexcomb" format="1">
  <advance width="0"/>
  <unicode hex="0302"/>
  <outline>
    <contour>
      <point x="372" y="1290" type="line"/>
      <point x="436" y="1336" type="line"/>
      <point x="236" y="1674" type="line"/>
      <point x="102" y="1674" type="line"/>
      <point x="-214" y="1336" type="line"/>
      <point x="-156" y="1290" type="line"/>
      <point x="158" y="1556" type="line"/>
    </contour>
    <contour>
      <point x="78" y="1110" type="move" name="_top"/>
    </contour>
    <contour>
      <point x="150" y="1612" type="move" name="top"/>
    </contour>
  </outline>
</glyph>
<glyph name="dieresiscomb" format="1">
  <advance width="0"/>
  <unicode hex="0308"/>
  <outline>
    <contour>
      <point x="-97" y="1335" type="curve"/>
      <point x="-31" y="1335"/>
      <point x="21" y="1391"/>
      <point x="23" y="1464" type="curve"/>
      <point x="25" y="1517"/>
      <point x="-12" y="1558"/>
      <point x="-70" y="1558" type="curve"/>
      <point x="-130" y="1558"/>
      <point x="-182" y="1504"/>
      <point x="-184" y="1433" type="curve"/>
      <point x="-186" y="1378"/>
      <point x="-145" y="1335"/>
    </contour>
    <contour>
      <point x="315" y="1335" type="curve"/>
      <point x="381" y="1335"/>
      <point x="433" y="1391"/>
      <point x="435" y="1464" type="curve"/>
      <point x="437" y="1517"/>
      <point x="400" y="1558"/>
      <point x="341" y="1558" type="curve"/>
      <point x="280" y="1558"/>
      <point x="230" y="1504"/>
      <point x="228" y="1433" type="curve"/>
      <point x="226" y="1378"/>
      <point x="267" y="1335"/>
    </contour>
    <contour>
      <point x="80" y="1110" type="move" name="_top"/>
    </contour>
    <contour>
      <point x="148" y="1476" type="move" name="top"/>
    </contour>
  </outline>
</glyph>
<glyph name="hookabovecomb" format="1">
  <advance width="0"/>
  <unicode hex="0309"/>
  <outline>
    <contour>
      <point x="14" y="1318" type="curve"/>
      <point x="81" y="1330" type="line"/>
      <point x="79" y="1364"/>
      <point x="92" y="1384"/>
      <point x="112" y="1398" type="curve"/>
      <point x="175" y="1442"/>
      <point x="278" y="1475"/>
      <point x="297" y="1576" type="curve"/>
      <point x="322" y="1702"/>
      <point x="242" y="1774"/>
      <point x="100" y="1774" type="curve"/>
      <point x="76" y="1774"/>
      <point x="15" y="1766"/>
      <point x="9" y="1759" type="curve"/>
      <point x="-8" y="1648" type="line"/>
      <point x="4" y="1654"/>
      <point x="45" y="1655"/>
      <point x="63" y="1654" type="curve"/>
      <point x="142" y="1646"/>
      <point x="166" y="1603"/>
      <point x="157" y="1557" type="curve"/>
      <point x="155" y="1547" type="line"/>
      <point x="125" y="1479"/>
      <point x="6" y="1471"/>
      <point x="-7" y="1398" type="curve"/>
      <point x="-11" y="1373"/>
      <point x="2" y="1338"/>
    </contour>
    <contour>
      <point x="32" y="1110" type="move" name="_top"/>
    </contour>
    <contour>
      <point x="120" y="1724" type="move" name="top"/>
    </contour>
  </outline>
</glyph>
<glyph name="caroncomb" format="1">
  <advance width="0"/>
  <unicode hex="030C"/>
  <outline>
    <contour>
      <point x="-90" y="1700" type="line"/>
      <point x="-154" y="1654" type="line"/>
      <point x="46" y="1317" type="line"/>
      <point x="181" y="1317" type="line"/>
      <point x="496" y="1654" type="line"/>
      <point x="439" y="1700" type="line"/>
      <point x="125" y="1434" type="line"/>
    </contour>
    <contour>
      <point x="78" y="1113" type="move" name="_top"/>
    </contour>
    <contour>
      <point x="150" y="1613" type="move" name="top"/>
    </contour>
  </outline>
</glyph>
<glyph name="dblgravecomb" format="1">
  <advance width="0"/>
  <unicode hex="030F"/>
  <outline>
    <contour>
      <point x="-176" y="1254" type="curve"/>
      <point x="-126" y="1306" type="line"/>
      <point x="-438" y="1708" type="line"/>
      <point x="-554" y="1624" type="line"/>
      <point x="-508" y="1518"/>
      <point x="-266" y="1310"/>
    </contour>
    <contour>
      <point x="236" y="1254" type="curve"/>
      <point x="284" y="1306" type="line"/>
      <point x="-12" y="1708" type="line"/>
      <point x="-126" y="1630" type="line"/>
      <point x="-84" y="1530"/>
      <point x="126" y="1320"/>
    </contour>
    <contour>
      <point x="0" y="1110" type="move" name="_top"/>
    </contour>
  </outline>
</glyph>
<glyph name="breveinvertedcomb" format="1">
  <advance width="0"/>
  <unicode hex="0311"/>
  <outline>
    <contour>
      <point x="144" y="1648" type="curve"/>
      <point x="-58" y="1648"/>
      <point x="-175" y="1502"/>
      <point x="-190" y="1354" type="curve"/>
      <point x="-192" y="1346"/>
      <point x="-192" y="1334"/>
      <point x="-192" y="1324" type="curve"/>
      <point x="-110" y="1324" type="line"/>
      <point x="-94" y="1402"/>
      <point x="-48" y="1528"/>
      <point x="130" y="1528" type="curve"/>
      <point x="264" y="1528"/>
      <point x="309" y="1442"/>
      <point x="326" y="1355" type="curve"/>
      <point x="328" y="1344"/>
      <point x="328" y="1334"/>
      <point x="328" y="1324" type="curve"/>
      <point x="412" y="1324" type="line"/>
      <point x="412" y="1331"/>
      <point x="414" y="1349"/>
      <point x="414" y="1356" type="curve"/>
      <point x="414" y="1512"/>
      <point x="316" y="1648"/>
    </contour>
    <contour>
      <point x="79" y="1114" type="move" name="_top"/>
    </contour>
    <contour>
      <point x="151" y="1616" type="move" name="top"/>
    </contour>
  </outline>
</glyph>
<glyph name="commaaccentcomb" format="1">
  <advance width="0"/>
  <unicode hex="0326"/>
  <outline>
    <contour>
      <point x="-221" y="-497" type="curve"/>
      <point x="-221" y="-516" type="line"/>
      <point x="-152" y="-548" type="line"/>
      <point x="-89" y="-530"/>
      <point x="5" y="-443"/>
      <point x="-3" y="-292" type="curve"/>
      <point x="-6" y="-215"/>
      <point x="-35" y="-127"/>
      <point x="-111" y="-99" type="curve"/>
      <point x="-218" y="-164" type="line"/>
      <point x="-218" y="-216" type="line"/>
      <point x="-178" y="-231"/>
      <point x="-152" y="-280"/>
      <point x="-152" y="-334" type="curve"/>
      <point x="-152" y="-413"/>
      <point x="-176" y="-463"/>
    </contour>
    <contour>
      <point x="-78" y="0" type="move" name="_bottom"/>
    </contour>
  </outline>
</glyph>
<glyph name="pi" format="1">
  <advance width="1584"/>
  <unicode hex="03C0"/>
  <outline>
    <contour>
      <point x="172" y="87" type="curve"/>
      <point x="267" y="-16" type="line"/>
      <point x="436" y="10"/>
      <point x="550" y="92"/>
      <point x="610" y="423" type="curve"/>
      <point x="711" y="977" type="line"/>
      <point x="1020" y="977" type="line"/>
      <point x="936" y="477"/>
      <point x="905" y="302"/>
      <point x="890" y="157" type="curve"/>
      <point x="886" y="51"/>
      <point x="942" y="-16"/>
      <point x="1049" y="-16" type="curve"/>
      <point x="1247" y="-16"/>
      <point x="1374" y="157"/>
      <point x="1408" y="296" type="curve"/>
      <point x="1303" y="296" type="line"/>
      <point x="1269" y="177"/>
      <point x="1173" y="117"/>
      <point x="1103" y="117" type="curve"/>
      <point x="1067" y="117"/>
      <point x="1034" y="148"/>
      <point x="1038" y="214" type="curve"/>
      <point x="1050" y="296"/>
      <point x="1077" y="389"/>
      <point x="1151" y="977" type="curve"/>
      <point x="1178" y="977" type="line" smooth="yes"/>
      <point x="1347" y="977"/>
      <point x="1467" y="1034"/>
      <point x="1494" y="1205" type="curve"/>
      <point x="1392" y="1205" type="line"/>
      <point x="1358" y="1127"/>
      <point x="1315" y="1110"/>
      <point x="1206" y="1110" type="curve"/>
      <point x="548" y="1110" type="line" smooth="yes"/>
      <point x="417" y="1110"/>
      <point x="294" y="1061"/>
      <point x="223" y="951" type="curve"/>
      <point x="201" y="915"/>
      <point x="197" y="868"/>
      <point x="197" y="846" type="curve"/>
      <point x="295" y="833" type="line"/>
      <point x="313" y="895"/>
      <point x="397" y="977"/>
      <point x="512" y="977" type="curve"/>
      <point x="591" y="977" type="line"/>
      <point x="472" y="468" type="line"/>
      <point x="429" y="283"/>
      <point x="405" y="146"/>
    </contour>
  </outline>
</glyph>
<glyph name="E-cy" format="1">
  <advance width="1240"/>
  <unicode hex="0404"/>
  <outline>
    <contour>
      <point x="1048" y="1356" type="curve"/>
      <point x="1056" y="1086" type="line"/>
      <point x="1154" y="1086" type="line"/>
      <point x="1214" y="1442" type="line"/>
      <point x="1172" y="1456" type="line"/>
      <point x="1110" y="1472"/>
      <point x="1006" y="1502"/>
      <point x="828" y="1502" type="curve"/>
      <point x="432" y="1502"/>
      <point x="90" y="1150"/>
      <point x="100" y="612" type="curve"/>
      <point x="104" y="308"/>
      <point x="248" y="-16"/>
      <point x="614" y="-16" type="curve"/>
      <point x="820" y="-16"/>
      <point x="980" y="46"/>
      <point x="1056" y="72" type="curve"/>
      <point x="1096" y="394" type="line"/>
      <point x="998" y="394" type="line"/>
      <point x="978" y="320"/>
      <point x="956" y="246"/>
      <point x="934" y="176" type="curve"/>
      <point x="882" y="112"/>
      <point x="742" y="82"/>
      <point x="644" y="82" type="curve"/>
      <point x="374" y="82"/>
      <point x="274" y="360"/>
      <point x="270" y="628" type="curve"/>
      <point x="268" y="664"/>
      <point x="270" y="698"/>
      <point x="274" y="732" type="curve"/>
      <point x="468" y="710"/>
      <point x="762" y="702"/>
      <point x="896" y="698" type="curve"/>
      <point x="924" y="836" type="line"/>
      <point x="282" y="820" type="line"/>
      <point x="330" y="1114"/>
      <point x="500" y="1406"/>
      <point x="808" y="1406" type="curve"/>
      <point x="944" y="1406"/>
      <point x="1004" y="1382"/>
    </contour>
    <contour>
      <point x="808" y="0" type="move" name="btm"/>
    </contour>
    <contour>
      <point x="676" y="1660" type="move" name="top"/>
    </contour>
  </outline>
</glyph>
<glyph name="Dzhe-cy" format="1">
  <advance width="1472"/>
  <unicode hex="040F"/>
  <outline>
    <contour>
      <point x="674" y="1486" type="line"/>
      <point x="212" y="1486" type="line"/>
      <point x="202" y="1406" type="line"/>
      <point x="348" y="1386" type="line"/>
      <point x="168" y="94" type="line"/>
      <point x="32" y="70" type="line"/>
      <point x="24" y="0" type="line"/>
      <point x="610" y="0" type="line"/>
      <point x="580" y="-332" type="line"/>
      <point x="680" y="-332" type="line"/>
      <point x="752" y="0" type="line"/>
      <point x="1312" y="0" type="line"/>
      <point x="1318" y="70" type="line"/>
      <point x="1156" y="94" type="line"/>
      <point x="1330" y="1386" type="line"/>
      <point x="1462" y="1406" type="line"/>
      <point x="1470" y="1486" type="line"/>
      <point x="1012" y="1486" type="line"/>
      <point x="1006" y="1406" type="line"/>
      <point x="1170" y="1386" type="line"/>
      <point x="994" y="92" type="line"/>
      <point x="326" y="92" type="line"/>
      <point x="508" y="1386" type="line"/>
      <point x="666" y="1406" type="line"/>
    </contour>
    <contour>
      <point x="828" y="-166" type="move" name="btm"/>
    </contour>
    <contour>
      <point x="754" y="1660" type="move" name="top"/>
    </contour>
  </outline>
</glyph>
<glyph name="Ii-cy" format="1">
  <advance width="1528"/>
  <unicode hex="0418"/>
  <outline>
    <contour>
      <point x="668" y="1486" type="line"/>
      <point x="228" y="1486" type="line"/>
      <point x="218" y="1406" type="line"/>
      <point x="340" y="1386" type="line"/>
      <point x="164" y="94" type="line"/>
      <point x="18" y="70" type="line"/>
      <point x="10" y="0" type="line"/>
      <point x="468" y="0" type="line"/>
      <point x="474" y="70" type="line"/>
      <point x="322" y="94" type="line"/>
      <point x="338" y="214" type="line"/>
      <point x="1060" y="960" type="line"/>
      <point x="1212" y="1130" type="line"/>
      <point x="1074" y="94" type="line"/>
      <point x="906" y="70" type="line"/>
      <point x="902" y="0" type="line"/>
      <point x="1368" y="0" type="line"/>
      <point x="1374" y="70" type="line"/>
      <point x="1230" y="94" type="line"/>
      <point x="1402" y="1386" type="line"/>
      <point x="1546" y="1406" type="line"/>
      <point x="1556" y="1486" type="line"/>
      <point x="1114" y="1486" type="line"/>
      <point x="1106" y="1406" type="line"/>
      <point x="1244" y="1386" type="line"/>
      <point x="1230" y="1278" type="line"/>
      <point x="432" y="450" type="line"/>
      <point x="354" y="358" type="line"/>
      <point x="500" y="1386" type="line"/>
      <point x="658" y="1406" type="line"/>
    </contour>
    <contour>
      <point x="1428" y="0" type="move" name="bottomright"/>
    </contour>
    <contour>
      <point x="888" y="1486" type="move" name="top"/>
    </contour>
  </outline>
</glyph>
<glyph name="Ka-cy" format="1">
  <advance width="1297"/>
  <unicode hex="041A"/>
  <outline>
    <contour>
      <point x="709" y="763" type="curve"/>
      <point x="1221" y="1384" type="line"/>
      <point x="1370" y="1406" type="line"/>
      <point x="1380" y="1486" type="line"/>
      <point x="947" y="1486" type="line"/>
      <point x="937" y="1406" type="line"/>
      <point x="1096" y="1382" type="line"/>
      <point x="610" y="776" type="line"/>
      <point x="419" y="776" type="line"/>
      <point x="497" y="1386" type="line"/>
      <point x="645" y="1406" type="line"/>
      <point x="653" y="1486" type="line"/>
      <point x="215" y="1486" type="line"/>
      <point x="207" y="1406" type="line"/>
      <point x="339" y="1386" type="line"/>
      <point x="177" y="94" type="line"/>
      <point x="32" y="70" type="line"/>
      <point x="24" y="0" type="line"/>
      <point x="480" y="0" type="line"/>
      <point x="486" y="70" type="line"/>
      <point x="333" y="94" type="line"/>
      <point x="409" y="687" type="line"/>
      <point x="573" y="687" type="line" smooth="yes"/>
      <point x="713" y="687"/>
      <point x="922" y="0"/>
      <point x="1029" y="0" type="curve"/>
      <point x="1227" y="0" type="line"/>
      <point x="1235" y="80" type="line"/>
      <point x="1148" y="102" type="line"/>
      <point x="1065" y="128"/>
      <point x="865" y="670"/>
    </contour>
    <contour>
      <point x="800" y="1486" type="move" name="top"/>
    </contour>
  </outline>
</glyph>
<glyph name="U-cy" format="1">
  <advance width="1175"/>
  <unicode hex="0423"/>
  <outline>
    <contour>
      <point x="676" y="327" type="curve"/>
      <point x="1186" y="1386" type="line"/>
      <point x="1294" y="1406" type="line"/>
      <point x="1302" y="1486" type="line"/>
      <point x="937" y="1486" type="line"/>
      <point x="927" y="1406" type="line"/>
      <point x="1069" y="1386" type="line"/>
      <point x="736" y="651" type="line"/>
      <point x="649" y="436" type="line"/>
      <point x="594" y="649" type="line"/>
      <point x="377" y="1386" type="line"/>
      <point x="537" y="1406" type="line"/>
      <point x="543" y="1486" type="line"/>
      <point x="105" y="1486" type="line"/>
      <point x="95" y="1406" type="line"/>
      <point x="215" y="1384" type="line"/>
      <point x="558" y="296" type="line"/>
      <point x="516" y="183"/>
      <point x="457" y="133"/>
      <point x="334" y="133" type="curve"/>
      <point x="197" y="133" type="line"/>
      <point x="184" y="8" type="line"/>
      <point x="222" y="-10"/>
      <point x="278" y="-22"/>
      <point x="334" y="-22" type="curve"/>
      <point x="537" y="-22"/>
      <point x="616" y="199"/>
    </contour>
    <contour>
      <point x="689" y="1486" type="move" name="top"/>
    </contour>
  </outline>
</glyph>
<glyph name="Ia-cy" format="1">
  <advance width="1279"/>
  <unicode hex="042F"/>
  <outline>
    <contour>
      <point x="911" y="660" type="curve"/>
      <point x="837" y="94" type="line"/>
      <point x="676" y="70" type="line"/>
      <point x="668" y="0" type="line"/>
      <point x="1141" y="0" type="line"/>
      <point x="1147" y="70" type="line"/>
      <point x="989" y="94" type="line"/>
      <point x="1151" y="1386" type="line"/>
      <point x="1302" y="1406" type="line"/>
      <point x="1310" y="1486" type="line"/>
      <point x="1066" y="1486" type="line" smooth="yes"/>
      <point x="967" y="1486"/>
      <point x="891" y="1502"/>
      <point x="794" y="1502" type="curve"/>
      <point x="419" y="1502"/>
      <point x="208" y="1300"/>
      <point x="208" y="1004" type="curve"/>
      <point x="208" y="847"/>
      <point x="307" y="715"/>
      <point x="459" y="671" type="curve"/>
      <point x="301" y="567"/>
      <point x="107" y="114"/>
      <point x="3" y="93" type="curve"/>
      <point x="-80" y="69" type="line"/>
      <point x="-89" y="0" type="line"/>
      <point x="137" y="0" type="line" smooth="yes"/>
      <point x="236" y="0"/>
      <point x="442" y="545"/>
      <point x="595" y="656" type="curve"/>
      <point x="641" y="658"/>
      <point x="869" y="656"/>
    </contour>
    <contour>
      <point x="1001" y="1387" type="curve"/>
      <point x="921" y="751" type="line"/>
      <point x="881" y="747"/>
      <point x="743" y="747"/>
      <point x="695" y="747" type="curve"/>
      <point x="510" y="747"/>
      <point x="373" y="859"/>
      <point x="373" y="1035" type="curve"/>
      <point x="373" y="1258"/>
      <point x="489" y="1408"/>
      <point x="760" y="1408" type="curve"/>
      <point x="874" y="1408"/>
      <point x="944" y="1389"/>
    </contour>
    <contour>
      <point x="527" y="-166" type="move" name="btm"/>
    </contour>
    <contour>
      <point x="531" y="1660" type="move" name="top"/>
    </contour>
  </outline>
</glyph>
<glyph name="be-cy" format="1">
  <advance width="1089"/>
  <unicode hex="0431"/>
  <outline>
    <contour>
      <point x="1034" y="1519" type="curve"/>
      <point x="1067" y="1724" type="line"/>
      <point x="989" y="1724" type="line"/>
      <point x="935" y="1622" type="line" smooth="yes"/>
      <point x="925" y="1604"/>
      <point x="914" y="1595"/>
      <point x="897" y="1595" type="curve"/>
      <point x="497" y="1595"/>
      <point x="73" y="1193"/>
      <point x="73" y="501" type="curve"/>
      <point x="73" y="227"/>
      <point x="192" y="-16"/>
      <point x="463" y="-16" type="curve"/>
      <point x="789" y="-16"/>
      <point x="1026" y="310"/>
      <point x="1026" y="682" type="curve"/>
      <point x="1026" y="923"/>
      <point x="931" y="1086"/>
      <point x="680" y="1086" type="curve"/>
      <point x="464" y="1086"/>
      <point x="289" y="922"/>
      <point x="207" y="733" type="curve"/>
      <point x="324" y="1334"/>
      <point x="653" y="1458"/>
      <point x="968" y="1458" type="curve"/>
      <point x="1018" y="1458"/>
      <point x="1028" y="1472"/>
    </contour>
    <contour>
      <point x="635" y="982" type="curve"/>
      <point x="794" y="982"/>
      <point x="860" y="858"/>
      <point x="860" y="643" type="curve"/>
      <point x="861" y="396"/>
      <point x="746" y="74"/>
      <point x="484" y="74" type="curve"/>
      <point x="305" y="74"/>
      <point x="231" y="252"/>
      <point x="230" y="469" type="curve"/>
      <point x="230" y="694"/>
      <point x="415" y="982"/>
    </contour>
    <contour>
      <point x="559" y="-166" type="move" name="btm"/>
    </contour>
    <contour>
      <point x="545" y="1660" type="move" name="top"/>
    </contour>
  </outline>
</glyph>
<glyph name="ge-cy" format="1">
  <advance width="812"/>
  <unicode hex="0433"/>
  <outline>
    <contour>
      <point x="168" y="1030" type="curve"/>
      <point x="186" y="948" type="line"/>
      <point x="206" y="970"/>
      <point x="318" y="1030"/>
      <point x="446" y="1030" type="curve"/>
      <point x="534" y="1030"/>
      <point x="592" y="970"/>
      <point x="592" y="900" type="curve"/>
      <point x="592" y="786"/>
      <point x="504" y="712"/>
      <point x="362" y="622" type="curve"/>
      <point x="204" y="522"/>
      <point x="36" y="436"/>
      <point x="36" y="238" type="curve"/>
      <point x="36" y="100"/>
      <point x="158" y="-20"/>
      <point x="330" y="-20" type="curve"/>
      <point x="448" y="-20"/>
      <point x="598" y="34"/>
      <point x="666" y="112" type="curve"/>
      <point x="644" y="192" type="line"/>
      <point x="568" y="134"/>
      <point x="498" y="90"/>
      <point x="382" y="90" type="curve"/>
      <point x="254" y="90"/>
      <point x="196" y="168"/>
      <point x="196" y="260" type="curve"/>
      <point x="196" y="380"/>
      <point x="298" y="440"/>
      <point x="422" y="524" type="curve"/>
      <point x="558" y="616"/>
      <point x="760" y="706"/>
      <point x="760" y="916" type="curve"/>
      <point x="760" y="1052"/>
      <point x="642" y="1134"/>
      <point x="476" y="1134" type="curve"/>
      <point x="320" y="1134"/>
      <point x="210" y="1064"/>
    </contour>
    <contour>
      <point x="486" y="1110" type="move" name="top"/>
    </contour>
  </outline>
</glyph>
<glyph name="ie-cy" format="1">
  <advance width="1028"/>
  <unicode hex="0435"/>
  <outline>
    <component base="e"/>
    <contour>
      <point x="657" y="1110" type="move" name="top"/>
    </contour>
  </outline>
</glyph>
<glyph name="zhe-cy" format="1">
  <advance width="1792"/>
  <unicode hex="0436"/>
  <outline>
    <contour>
      <point x="1217" y="617" type="curve"/>
      <point x="974" y="617" type="line"/>
      <point x="1034" y="1109" type="line"/>
      <point x="878" y="1109" type="line"/>
      <point x="820" y="617" type="line"/>
      <point x="569" y="617" type="line"/>
      <point x="571" y="640"/>
      <point x="573" y="666"/>
      <point x="573" y="691" type="curve"/>
      <point x="573" y="960"/>
      <point x="465" y="1120"/>
      <point x="307" y="1120" type="curve"/>
      <point x="164" y="1120"/>
      <point x="62" y="978"/>
      <point x="24" y="922" type="curve"/>
      <point x="60" y="879" type="line"/>
      <point x="130" y="955"/>
      <point x="180" y="996"/>
      <point x="259" y="996" type="curve"/>
      <point x="350" y="996"/>
      <point x="418" y="896"/>
      <point x="418" y="666" type="curve"/>
      <point x="418" y="316"/>
      <point x="253" y="73"/>
      <point x="128" y="73" type="curve"/>
      <point x="111" y="75"/>
      <point x="26" y="159"/>
      <point x="17" y="165" type="curve"/>
      <point x="-38" y="14" type="line"/>
      <point x="-10" y="-8"/>
      <point x="28" y="-20"/>
      <point x="90" y="-20" type="curve"/>
      <point x="325" y="-20"/>
      <point x="507" y="242"/>
      <point x="559" y="535" type="curve"/>
      <point x="811" y="535" type="line"/>
      <point x="747" y="0" type="line"/>
      <point x="901" y="0" type="line"/>
      <point x="965" y="535" type="line"/>
      <point x="1203" y="535" type="line"/>
      <point x="1197" y="493"/>
      <point x="1195" y="450"/>
      <point x="1195" y="409" type="curve"/>
      <point x="1195" y="138"/>
      <point x="1301" y="-20"/>
      <point x="1461" y="-20" type="curve"/>
      <point x="1602" y="-20"/>
      <point x="1706" y="122"/>
      <point x="1742" y="176" type="curve"/>
      <point x="1708" y="221" type="line"/>
      <point x="1638" y="145"/>
      <point x="1586" y="104"/>
      <point x="1507" y="104" type="curve"/>
      <point x="1416" y="104"/>
      <point x="1348" y="204"/>
      <point x="1348" y="434" type="curve"/>
      <point x="1348" y="784"/>
      <point x="1512" y="1027"/>
      <point x="1640" y="1027" type="curve"/>
      <point x="1655" y="1025"/>
      <point x="1741" y="941"/>
      <point x="1751" y="935" type="curve"/>
      <point x="1803" y="1084" type="line"/>
      <point x="1775" y="1108"/>
      <point x="1737" y="1120"/>
      <point x="1677" y="1120" type="curve"/>
      <point x="1455" y="1120"/>
      <point x="1281" y="886"/>
    </contour>
    <contour>
      <point x="1676" y="0" type="move" name="bottomright"/>
    </contour>
    <contour>
      <point x="957" y="1110" type="move" name="top"/>
    </contour>
  </outline>
</glyph>
<glyph name="ze-cy" format="1">
  <advance width="983"/>
  <unicode hex="0437"/>
  <outline>
    <contour>
      <point x="164" y="1080" type="curve"/>
      <point x="128" y="790" type="line"/>
      <point x="217" y="790" type="line"/>
      <point x="272" y="984" type="line"/>
      <point x="309" y="1002"/>
      <point x="375" y="1042"/>
      <point x="514" y="1042" type="curve"/>
      <point x="665" y="1042"/>
      <point x="729" y="983"/>
      <point x="729" y="888" type="curve"/>
      <point x="729" y="737"/>
      <point x="629" y="652"/>
      <point x="428" y="630" type="curve"/>
      <point x="365" y="624" type="line"/>
      <point x="347" y="517" type="line"/>
      <point x="455" y="539" type="line"/>
      <point x="646" y="541"/>
      <point x="733" y="465"/>
      <point x="733" y="350" type="curve"/>
      <point x="733" y="189"/>
      <point x="616" y="76"/>
      <point x="384" y="76" type="curve"/>
      <point x="297" y="76"/>
      <point x="228" y="88"/>
      <point x="168" y="131" type="curve"/>
      <point x="82" y="224" type="line"/>
      <point x="24" y="70" type="line"/>
      <point x="91" y="34"/>
      <point x="204" y="-16"/>
      <point x="390" y="-16" type="curve"/>
      <point x="668" y="-16"/>
      <point x="894" y="132"/>
      <point x="894" y="368" type="curve"/>
      <point x="894" y="506"/>
      <point x="783" y="595"/>
      <point x="599" y="600" type="curve"/>
      <point x="776" y="632"/>
      <point x="892" y="741"/>
      <point x="892" y="899" type="curve"/>
      <point x="892" y="1047"/>
      <point x="762" y="1134"/>
      <point x="548" y="1134" type="curve"/>
      <point x="342" y="1134"/>
      <point x="292" y="1080"/>
    </contour>
    <contour>
      <point x="547" y="1110" type="move" name="top"/>
    </contour>
  </outline>
</glyph>
<glyph name="ef-cy" format="1">
  <advance width="1627"/>
  <unicode hex="0444"/>
  <outline>
    <contour>
      <point x="964" y="1025" type="curve"/>
      <point x="1047" y="1610" type="line"/>
      <point x="1005" y="1634" type="line"/>
      <point x="777" y="1600" type="line"/>
      <point x="761" y="1533" type="line"/>
      <point x="880" y="1500" type="line"/>
      <point x="824" y="1098" type="line"/>
      <point x="779" y="1121"/>
      <point x="727" y="1136"/>
      <point x="676" y="1136" type="curve"/>
      <point x="294" y="1136"/>
      <point x="81" y="708"/>
      <point x="81" y="401" type="curve"/>
      <point x="81" y="159"/>
      <point x="180" y="-20"/>
      <point x="396" y="-20" type="curve"/>
      <point x="515" y="-20"/>
      <point x="614" y="39"/>
      <point x="672" y="99" type="curve"/>
      <point x="646" y="-79"/>
      <point x="624" y="-232"/>
      <point x="601" y="-387" type="curve"/>
      <point x="590" y="-472"/>
      <point x="648" y="-506"/>
      <point x="716" y="-506" type="curve"/>
      <point x="827" y="-506"/>
      <point x="912" y="-404"/>
      <point x="928" y="-377" type="curve"/>
      <point x="902" y="-332" type="line"/>
      <point x="856" y="-383"/>
      <point x="824" y="-400"/>
      <point x="795" y="-400" type="curve"/>
      <point x="778" y="-400"/>
      <point x="759" y="-382"/>
      <point x="767" y="-328" type="curve"/>
      <point x="816" y="11" type="line"/>
      <point x="858" y="-7"/>
      <point x="907" y="-20"/>
      <point x="954" y="-20" type="curve"/>
      <point x="1332" y="-20"/>
      <point x="1543" y="408"/>
      <point x="1543" y="713" type="curve"/>
      <point x="1543" y="957"/>
      <point x="1440" y="1136"/>
      <point x="1220" y="1136" type="curve"/>
      <point x="1111" y="1136"/>
      <point x="1022" y="1084"/>
    </contour>
    <contour>
      <point x="804" y="973" type="curve"/>
      <point x="692" y="223" type="line"/>
      <point x="642" y="166"/>
      <point x="543" y="95"/>
      <point x="427" y="95" type="curve"/>
      <point x="310" y="95"/>
      <point x="243" y="214"/>
      <point x="243" y="413" type="curve"/>
      <point x="243" y="666"/>
      <point x="375" y="1038"/>
      <point x="653" y="1038" type="curve"/>
      <point x="714" y="1038"/>
      <point x="767" y="1021"/>
    </contour>
    <contour>
      <point x="834" y="127" type="curve"/>
      <point x="946" y="904" type="line"/>
      <point x="998" y="958"/>
      <point x="1087" y="1021"/>
      <point x="1190" y="1021" type="curve"/>
      <point x="1310" y="1021"/>
      <point x="1379" y="902"/>
      <point x="1379" y="703" type="curve"/>
      <point x="1379" y="452"/>
      <point x="1251" y="78"/>
      <point x="976" y="78" type="curve"/>
      <point x="920" y="78"/>
      <point x="871" y="91"/>
    </contour>
    <contour>
      <point x="960" y="1486" type="move" name="top"/>
    </contour>
  </outline>
</glyph>
<glyph name="sha-cy" format="1">
  <advance width="1754"/>
  <unicode hex="0448"/>
  <outline>
    <contour>
      <point x="316" y="564" type="curve"/>
      <point x="384" y="1096" type="line"/>
      <point x="346" y="1118" type="line"/>
      <point x="134" y="1076" type="line"/>
      <point x="122" y="1004" type="line"/>
      <point x="218" y="956" type="line"/>
      <point x="164" y="572" type="line" smooth="yes"/>
      <point x="154" y="500"/>
      <point x="130" y="318"/>
      <point x="130" y="228" type="curve"/>
      <point x="130" y="24"/>
      <point x="226" y="-38"/>
      <point x="370" y="-38" type="curve"/>
      <point x="534" y="-38"/>
      <point x="662" y="78"/>
      <point x="744" y="190" type="curve"/>
      <point x="746" y="190" type="line"/>
      <point x="756" y="20"/>
      <point x="844" y="-38"/>
      <point x="982" y="-38" type="curve"/>
      <point x="1138" y="-38"/>
      <point x="1262" y="66"/>
      <point x="1342" y="166" type="curve"/>
      <point x="1338" y="98" type="line"/>
      <point x="1320" y="16"/>
      <point x="1356" y="-36"/>
      <point x="1430" y="-36" type="curve"/>
      <point x="1542" y="-36"/>
      <point x="1632" y="66"/>
      <point x="1648" y="92" type="curve"/>
      <point x="1624" y="138" type="line"/>
      <point x="1576" y="88"/>
      <point x="1544" y="68"/>
      <point x="1516" y="68" type="curve"/>
      <point x="1496" y="68"/>
      <point x="1484" y="90"/>
      <point x="1490" y="142" type="curve"/>
      <point x="1618" y="1110" type="line"/>
      <point x="1464" y="1110" type="line"/>
      <point x="1358" y="282" type="line"/>
      <point x="1286" y="180"/>
      <point x="1156" y="72"/>
      <point x="1050" y="72" type="curve"/>
      <point x="960" y="72"/>
      <point x="898" y="104"/>
      <point x="898" y="254" type="curve"/>
      <point x="898" y="344"/>
      <point x="918" y="464"/>
      <point x="1004" y="1110" type="curve"/>
      <point x="852" y="1110" type="line"/>
      <point x="828" y="932"/>
      <point x="804" y="752"/>
      <point x="780" y="574" type="curve"/>
      <point x="768" y="480"/>
      <point x="752" y="374"/>
      <point x="744" y="286" type="curve"/>
      <point x="676" y="182"/>
      <point x="542" y="72"/>
      <point x="434" y="72" type="curve"/>
      <point x="344" y="72"/>
      <point x="284" y="104"/>
      <point x="284" y="254" type="curve"/>
      <point x="284" y="354"/>
      <point x="306" y="484"/>
    </contour>
    <contour>
      <point x="704" y="-166" type="move" name="btm"/>
    </contour>
    <contour>
      <point x="904" y="1660" type="move" name="top"/>
    </contour>
  </outline>
</glyph>
<glyph name="shcha-cy" format="1">
  <advance width="1754"/>
  <unicode hex="0449"/>
  <outline>
    <contour>
      <point x="318" y="584" type="curve"/>
      <point x="386" y="1116" type="line"/>
      <point x="348" y="1136" type="line"/>
      <point x="136" y="1094" type="line"/>
      <point x="124" y="1024" type="line"/>
      <point x="220" y="976" type="line"/>
      <point x="166" y="592" type="line" smooth="yes"/>
      <point x="156" y="518"/>
      <point x="132" y="338"/>
      <point x="132" y="246" type="curve"/>
      <point x="132" y="42"/>
      <point x="228" y="-20"/>
      <point x="372" y="-20" type="curve"/>
      <point x="538" y="-20"/>
      <point x="668" y="102"/>
      <point x="746" y="210" type="curve"/>
      <point x="748" y="210" type="line"/>
      <point x="758" y="38"/>
      <point x="846" y="-20"/>
      <point x="984" y="-20" type="curve"/>
      <point x="1140" y="-20"/>
      <point x="1264" y="86"/>
      <point x="1344" y="186" type="curve"/>
      <point x="1348" y="184" type="line"/>
      <point x="1332" y="72"/>
      <point x="1352" y="20"/>
      <point x="1382" y="-6" type="curve"/>
      <point x="1338" y="-40"/>
      <point x="1300" y="-84"/>
      <point x="1300" y="-144" type="curve"/>
      <point x="1300" y="-210"/>
      <point x="1326" y="-224"/>
      <point x="1326" y="-284" type="curve"/>
      <point x="1326" y="-350"/>
      <point x="1252" y="-406"/>
      <point x="1196" y="-424" type="curve"/>
      <point x="1238" y="-476" type="line"/>
      <point x="1348" y="-452"/>
      <point x="1472" y="-358"/>
      <point x="1472" y="-256" type="curve"/>
      <point x="1472" y="-188"/>
      <point x="1434" y="-146"/>
      <point x="1434" y="-98" type="curve"/>
      <point x="1434" y="-30"/>
      <point x="1508" y="-10"/>
      <point x="1544" y="16" type="curve"/>
      <point x="1602" y="48"/>
      <point x="1640" y="94"/>
      <point x="1650" y="110" type="curve"/>
      <point x="1626" y="156" type="line"/>
      <point x="1578" y="108"/>
      <point x="1546" y="88"/>
      <point x="1518" y="88" type="curve"/>
      <point x="1498" y="88"/>
      <point x="1486" y="110"/>
      <point x="1492" y="160" type="curve"/>
      <point x="1620" y="1128" type="line"/>
      <point x="1466" y="1128" type="line"/>
      <point x="1460" y="1076"/>
      <point x="1388" y="526"/>
      <point x="1360" y="300" type="curve"/>
      <point x="1288" y="198"/>
      <point x="1158" y="92"/>
      <point x="1052" y="92" type="curve"/>
      <point x="962" y="92"/>
      <point x="900" y="124"/>
      <point x="900" y="272" type="curve"/>
      <point x="900" y="372"/>
      <point x="918" y="462"/>
      <point x="934" y="578" type="curve"/>
      <point x="958" y="762"/>
      <point x="982" y="946"/>
      <point x="1006" y="1128" type="curve"/>
      <point x="854" y="1128" type="line"/>
      <point x="830" y="952"/>
      <point x="806" y="774"/>
      <point x="782" y="596" type="curve"/>
      <point x="768" y="502"/>
      <point x="754" y="394"/>
      <point x="746" y="304" type="curve"/>
      <point x="678" y="202"/>
      <point x="544" y="92"/>
      <point x="436" y="92" type="curve"/>
      <point x="346" y="92"/>
      <point x="286" y="124"/>
      <point x="286" y="272" type="curve"/>
      <point x="286" y="374"/>
      <point x="308" y="504"/>
    </contour>
    <contour>
      <point x="758" y="-166" type="move" name="btm"/>
    </contour>
    <contour>
      <point x="936" y="1660" type="move" name="top"/>
    </contour>
  </outline>
</glyph>
<glyph name="softsign-cy" format="1">
  <advance width="1021"/>
  <unicode hex="044C"/>
  <outline>
    <contour>
      <point x="322" y="553" type="curve"/>
      <point x="421" y="1116" type="line"/>
      <point x="378" y="1136" type="line"/>
      <point x="167" y="1093" type="line"/>
      <point x="155" y="1022" type="line"/>
      <point x="249" y="978" type="line"/>
      <point x="151" y="476" type="line"/>
      <point x="81" y="139"/>
      <point x="216" y="-22"/>
      <point x="443" y="-22" type="curve"/>
      <point x="726" y="-22"/>
      <point x="936" y="236"/>
      <point x="936" y="439" type="curve"/>
      <point x="936" y="630"/>
      <point x="856" y="734"/>
      <point x="681" y="734" type="curve"/>
      <point x="503" y="734"/>
      <point x="363" y="609"/>
    </contour>
    <contour>
      <point x="607" y="621" type="curve"/>
      <point x="751" y="621"/>
      <point x="776" y="524"/>
      <point x="776" y="413" type="curve"/>
      <point x="776" y="254"/>
      <point x="646" y="68"/>
      <point x="459" y="68" type="curve"/>
      <point x="352" y="68"/>
      <point x="287" y="147"/>
      <point x="284" y="278" type="curve"/>
      <point x="282" y="316"/>
      <point x="287" y="359"/>
      <point x="295" y="404" type="curve"/>
      <point x="339" y="515"/>
      <point x="487" y="621"/>
    </contour>
    <contour>
      <point x="638" y="-166" type="move" name="btm"/>
    </contour>
    <contour>
      <point x="570" y="1660" type="move" name="top"/>
    </contour>
  </outline>
</glyph>
<glyph name="dzhe-cy" format="1">
  <advance width="1154"/>
  <unicode hex="045F"/>
  <outline>
    <contour>
      <point x="320" y="584" type="curve"/>
      <point x="388" y="1112" type="line"/>
      <point x="350" y="1132" type="line"/>
      <point x="136" y="1090" type="line"/>
      <point x="124" y="1020" type="line"/>
      <point x="222" y="972" type="line"/>
      <point x="168" y="592" type="line" smooth="yes"/>
      <point x="152" y="476"/>
      <point x="134" y="338"/>
      <point x="134" y="246" type="curve"/>
      <point x="134" y="42"/>
      <point x="230" y="-20"/>
      <point x="374" y="-20" type="curve"/>
      <point x="504" y="-20"/>
      <point x="638" y="58"/>
      <point x="746" y="188" type="curve"/>
      <point x="716" y="60"/>
      <point x="748" y="-18"/>
      <point x="832" y="-18" type="curve"/>
      <point x="940" y="-18"/>
      <point x="1034" y="84"/>
      <point x="1050" y="110" type="curve"/>
      <point x="1026" y="156" type="line"/>
      <point x="978" y="108"/>
      <point x="944" y="88"/>
      <point x="916" y="88" type="curve"/>
      <point x="898" y="88"/>
      <point x="886" y="110"/>
      <point x="892" y="160" type="curve"/>
      <point x="1020" y="1124" type="line"/>
      <point x="866" y="1124" type="line"/>
      <point x="858" y="1072"/>
      <point x="788" y="530"/>
      <point x="758" y="302" type="curve"/>
      <point x="686" y="200"/>
      <point x="552" y="92"/>
      <point x="438" y="92" type="curve"/>
      <point x="348" y="92"/>
      <point x="288" y="124"/>
      <point x="288" y="272" type="curve"/>
      <point x="288" y="374"/>
      <point x="306" y="468"/>
    </contour>
    <contour>
      <point x="666" y="-68" type="curve"/>
      <point x="630" y="-30" type="line"/>
      <point x="576" y="-38"/>
      <point x="474" y="-92"/>
      <point x="474" y="-190" type="curve"/>
      <point x="474" y="-262"/>
      <point x="494" y="-280"/>
      <point x="494" y="-336" type="curve"/>
      <point x="494" y="-400"/>
      <point x="430" y="-412"/>
      <point x="372" y="-430" type="curve"/>
      <point x="414" y="-484" type="line"/>
      <point x="524" y="-458"/>
      <point x="632" y="-418"/>
      <point x="632" y="-320" type="curve"/>
      <point x="632" y="-250"/>
      <point x="606" y="-216"/>
      <point x="606" y="-168" type="curve"/>
      <point x="604" y="-104"/>
      <point x="638" y="-82"/>
    </contour>
  </outline>
</glyph>
<glyph name="Yusbig-cy" format="1">
  <advance width="1959"/>
  <unicode hex="046A"/>
  <outline>
    <contour>
      <point x="789" y="686" type="curve"/>
      <point x="933" y="686" type="line"/>
      <point x="859" y="94" type="line"/>
      <point x="711" y="70" type="line"/>
      <point x="703" y="0" type="line"/>
      <point x="1157" y="0" type="line"/>
      <point x="1161" y="70" type="line"/>
      <point x="1009" y="94" type="line"/>
      <point x="1083" y="688" type="line"/>
      <point x="1245" y="688" type="line" smooth="yes"/>
      <point x="1389" y="688"/>
      <point x="1597" y="0"/>
      <point x="1701" y="0" type="curve"/>
      <point x="1919" y="0" type="line"/>
      <point x="1927" y="70" type="line"/>
      <point x="1839" y="94" type="line"/>
      <point x="1737" y="144"/>
      <point x="1537" y="708"/>
      <point x="1375" y="758" type="curve"/>
      <point x="1345" y="772"/>
      <point x="1309" y="776"/>
      <point x="1273" y="776" type="curve"/>
      <point x="1155" y="776" type="line"/>
      <point x="1745" y="1398" type="line"/>
      <point x="1747" y="1486" type="line"/>
      <point x="495" y="1486" type="line"/>
      <point x="473" y="1398" type="line"/>
      <point x="889" y="776" type="line"/>
      <point x="781" y="776" type="line" smooth="yes"/>
      <point x="741" y="776"/>
      <point x="705" y="774"/>
      <point x="675" y="760" type="curve"/>
      <point x="505" y="684"/>
      <point x="145" y="124"/>
      <point x="55" y="94" type="curve"/>
      <point x="-29" y="70" type="line"/>
      <point x="-39" y="0" type="line"/>
      <point x="177" y="0" type="line" smooth="yes"/>
      <point x="283" y="0"/>
      <point x="649" y="686"/>
    </contour>
    <contour>
      <point x="1023" y="776" type="line"/>
      <point x="653" y="1368" type="line"/>
      <point x="1555" y="1368" type="line"/>
    </contour>
  </outline>
</glyph>
<glyph name="Fita-cy" format="1">
  <advance width="1355"/>
  <unicode hex="0472"/>
  <outline>
    <contour>
      <point x="793" y="1506" type="curve"/>
      <point x="398" y="1506"/>
      <point x="104" y="1121"/>
      <point x="111" y="605" type="curve"/>
      <point x="115" y="256"/>
      <point x="282" y="-20"/>
      <point x="606" y="-20" type="curve"/>
      <point x="1005" y="-20"/>
      <point x="1291" y="374"/>
      <point x="1283" y="885" type="curve"/>
      <point x="1278" y="1223"/>
      <point x="1122" y="1506"/>
    </contour>
    <contour>
      <point x="272" y="626" type="curve"/>
      <point x="272" y="662" type="line"/>
      <point x="327" y="711"/>
      <point x="417" y="775"/>
      <point x="505" y="775" type="curve"/>
      <point x="617" y="775"/>
      <point x="705" y="639"/>
      <point x="860" y="639" type="curve"/>
      <point x="984" y="639"/>
      <point x="1063" y="702"/>
      <point x="1114" y="764" type="curve"/>
      <point x="1094" y="362"/>
      <point x="891" y="76"/>
      <point x="628" y="76" type="curve"/>
      <point x="404" y="76"/>
      <point x="276" y="299"/>
    </contour>
    <contour>
      <point x="768" y="1407" type="curve"/>
      <point x="994" y="1407"/>
      <point x="1109" y="1187"/>
      <point x="1117" y="871" type="curve"/>
      <point x="1079" y="831"/>
      <point x="1001" y="752"/>
      <point x="890" y="752" type="curve"/>
      <point x="774" y="752"/>
      <point x="690" y="887"/>
      <point x="537" y="887" type="curve"/>
      <point x="421" y="887"/>
      <point x="334" y="824"/>
      <point x="277" y="760" type="curve"/>
      <point x="311" y="1143"/>
      <point x="512" y="1407"/>
    </contour>
  </outline>
</glyph>
<glyph name="fita-cy" format="1">
  <advance width="1119"/>
  <unicode hex="0473"/>
  <outline>
    <contour>
      <point x="640" y="1136" type="curve"/>
      <point x="306" y="1136"/>
      <point x="79" y="786"/>
      <point x="82" y="428" type="curve"/>
      <point x="86" y="143"/>
      <point x="225" y="-20"/>
      <point x="473" y="-20" type="curve"/>
      <point x="807" y="-20"/>
      <point x="1034" y="334"/>
      <point x="1030" y="686" type="curve"/>
      <point x="1025" y="971"/>
      <point x="888" y="1136"/>
    </contour>
    <contour>
      <point x="406" y="567" type="curve"/>
      <point x="525" y="565"/>
      <point x="529" y="414"/>
      <point x="690" y="414" type="curve"/>
      <point x="750" y="414"/>
      <point x="803" y="438"/>
      <point x="842" y="477" type="curve"/>
      <point x="797" y="270"/>
      <point x="682" y="77"/>
      <point x="502" y="77" type="curve"/>
      <point x="339" y="77"/>
      <point x="250" y="205"/>
      <point x="248" y="429" type="curve"/>
      <point x="248" y="440"/>
      <point x="248" y="453"/>
      <point x="248" y="463" type="curve"/>
      <point x="286" y="508"/>
      <point x="342" y="567"/>
    </contour>
    <contour>
      <point x="864" y="685" type="curve"/>
      <point x="864" y="658" type="line"/>
      <point x="834" y="611"/>
      <point x="795" y="544"/>
      <point x="717" y="544" type="curve"/>
      <point x="610" y="544"/>
      <point x="579" y="698"/>
      <point x="443" y="698" type="curve"/>
      <point x="372" y="698"/>
      <point x="308" y="659"/>
      <point x="262" y="608" type="curve"/>
      <point x="302" y="826"/>
      <point x="419" y="1038"/>
      <point x="614" y="1038" type="curve"/>
      <point x="778" y="1038"/>
      <point x="862" y="907"/>
    </contour>
  </outline>
</glyph>
<glyph name="Semisoftsign-cy" format="1">
  <advance width="1134"/>
  <unicode hex="048C"/>
  <outline>
    <contour>
      <point x="426" y="803" type="curve"/>
      <point x="455" y="1048" type="line"/>
      <point x="776" y="1048" type="line"/>
      <point x="787" y="1134" type="line"/>
      <point x="466" y="1134" type="line"/>
      <point x="497" y="1386" type="line"/>
      <point x="662" y="1407" type="line"/>
      <point x="670" y="1486" type="line"/>
      <point x="215" y="1486" type="line"/>
      <point x="207" y="1406" type="line"/>
      <point x="340" y="1386" type="line"/>
      <point x="308" y="1134" type="line"/>
      <point x="157" y="1134" type="line"/>
      <point x="147" y="1048" type="line"/>
      <point x="296" y="1048" type="line"/>
      <point x="178" y="94" type="line"/>
      <point x="32" y="70" type="line"/>
      <point x="23" y="0" type="line"/>
      <point x="243" y="0" type="line" smooth="yes"/>
      <point x="323" y="0"/>
      <point x="506" y="-16"/>
      <point x="552" y="-16" type="curve"/>
      <point x="867" y="-16"/>
      <point x="1126" y="158"/>
      <point x="1126" y="495" type="curve"/>
      <point x="1126" y="711"/>
      <point x="971" y="837"/>
      <point x="684" y="837" type="curve"/>
      <point x="578" y="837"/>
      <point x="470" y="813"/>
    </contour>
    <contour>
      <point x="337" y="93" type="curve"/>
      <point x="414" y="711" type="line"/>
      <point x="453" y="719"/>
      <point x="546" y="734"/>
      <point x="637" y="734" type="curve"/>
      <point x="840" y="734"/>
      <point x="965" y="645"/>
      <point x="965" y="471" type="curve"/>
      <point x="965" y="214"/>
      <point x="799" y="74"/>
      <point x="565" y="74" type="curve"/>
      <point x="476" y="74"/>
      <point x="384" y="85"/>
    </contour>
    <contour>
      <point x="630" y="1660" type="move" name="top"/>
    </contour>
  </outline>
</glyph>
<glyph name="Ghestroke-cy" format="1">
  <advance width="1060"/>
  <unicode hex="0492"/>
  <outline>
    <contour>
      <point x="1085" y="1486" type="line"/>
      <point x="180" y="1486" type="line"/>
      <point x="169" y="1408" type="line"/>
      <point x="338" y="1384" type="line"/>
      <point x="262" y="771" type="line"/>
      <point x="83" y="771" type="line"/>
      <point x="82" y="682" type="line"/>
      <point x="251" y="682" type="line"/>
      <point x="177" y="94" type="line"/>
      <point x="15" y="70" type="line"/>
      <point x="7" y="0" type="line"/>
      <point x="649" y="0" type="line"/>
      <point x="655" y="70" type="line"/>
      <point x="333" y="94" type="line"/>
      <point x="406" y="682" type="line"/>
      <point x="838" y="682" type="line"/>
      <point x="839" y="771" type="line"/>
      <point x="418" y="771" type="line"/>
      <point x="496" y="1398" type="line"/>
      <point x="933" y="1389" type="line"/>
      <point x="938" y="1025" type="line"/>
      <point x="1045" y="1025" type="line"/>
    </contour>
  </outline>
</glyph>
<glyph name="Kadescender-cy" format="1">
  <advance width="1296"/>
  <unicode hex="049A"/>
  <outline>
    <contour>
      <point x="708" y="762" type="curve"/>
      <point x="1220" y="1384" type="line"/>
      <point x="1368" y="1406" type="line"/>
      <point x="1378" y="1486" type="line"/>
      <point x="944" y="1486" type="line"/>
      <point x="934" y="1406" type="line"/>
      <point x="1094" y="1382" type="line"/>
      <point x="608" y="776" type="line"/>
      <point x="418" y="776" type="line"/>
      <point x="494" y="1386" type="line"/>
      <point x="642" y="1406" type="line"/>
      <point x="650" y="1486" type="line"/>
      <point x="212" y="1486" type="line"/>
      <point x="204" y="1406" type="line"/>
      <point x="338" y="1386" type="line"/>
      <point x="176" y="94" type="line"/>
      <point x="30" y="70" type="line"/>
      <point x="22" y="0" type="line"/>
      <point x="478" y="0" type="line"/>
      <point x="484" y="70" type="line"/>
      <point x="332" y="94" type="line"/>
      <point x="406" y="688" type="line"/>
      <point x="570" y="688" type="line" smooth="yes"/>
      <point x="712" y="688"/>
      <point x="920" y="0"/>
      <point x="1026" y="0" type="curve"/>
      <point x="1078" y="0" type="line"/>
      <point x="1086" y="-70"/>
      <point x="1062" y="-236"/>
      <point x="1058" y="-334" type="curve"/>
      <point x="1156" y="-334" type="line"/>
      <point x="1170" y="-282"/>
      <point x="1234" y="-4"/>
      <point x="1244" y="104" type="curve"/>
      <point x="1142" y="104" type="line"/>
      <point x="1056" y="146"/>
      <point x="862" y="672"/>
    </contour>
  </outline>
</glyph>
<glyph name="kaverticalstroke-cy" format="1">
  <advance width="1222"/>
  <unicode hex="049D"/>
  <outline>
    <contour>
      <point x="663" y="624" type="curve"/>
      <point x="605" y="624" type="line"/>
      <point x="633" y="859" type="line"/>
      <point x="532" y="859" type="line"/>
      <point x="503" y="624" type="line"/>
      <point x="367" y="624" type="line"/>
      <point x="431" y="1110" type="line"/>
      <point x="388" y="1132" type="line"/>
      <point x="178" y="1090" type="line"/>
      <point x="164" y="1019" type="line"/>
      <point x="261" y="972" type="line"/>
      <point x="131" y="0" type="line"/>
      <point x="285" y="0" type="line"/>
      <point x="357" y="543" type="line"/>
      <point x="493" y="543" type="line"/>
      <point x="458" y="263" type="line"/>
      <point x="560" y="263" type="line"/>
      <point x="593" y="540" type="line"/>
      <point x="722" y="491"/>
      <point x="826" y="0"/>
      <point x="983" y="0" type="curve"/>
      <point x="1145" y="0" type="line"/>
      <point x="1154" y="73" type="line"/>
      <point x="1083" y="102" type="line"/>
      <point x="975" y="122"/>
      <point x="838" y="473"/>
      <point x="738" y="588" type="curve"/>
      <point x="915" y="723"/>
      <point x="1137" y="888"/>
      <point x="1137" y="1053" type="curve"/>
      <point x="1137" y="1107"/>
      <point x="1101" y="1128"/>
      <point x="1064" y="1128" type="curve"/>
      <point x="1011" y="1128"/>
      <point x="958" y="1098"/>
      <point x="958" y="1040" type="curve"/>
      <point x="958" y="1009"/>
      <point x="962" y="995"/>
      <point x="960" y="975" type="curve"/>
      <point x="957" y="939"/>
      <point x="927" y="903"/>
      <point x="906" y="881" type="curve"/>
      <point x="825" y="774"/>
      <point x="767" y="707"/>
    </contour>
    <contour>
      <point x="792" y="-166" type="move" name="btm"/>
    </contour>
    <contour>
      <point x="650" y="1660" type="move" name="top"/>
    </contour>
  </outline>
</glyph>
<glyph name="kastroke-cy" format="1">
  <advance width="1057"/>
  <unicode hex="049F"/>
  <outline>
    <contour>
      <point x="474" y="1588" type="line"/>
      <point x="433" y="1612" type="line"/>
      <point x="202" y="1578" type="line"/>
      <point x="190" y="1511" type="line"/>
      <point x="303" y="1478" type="line"/>
      <point x="277" y="1293" type="line"/>
      <point x="109" y="1293" type="line"/>
      <point x="95" y="1206" type="line"/>
      <point x="267" y="1206" type="line"/>
      <point x="107" y="0" type="line"/>
      <point x="260" y="0" type="line"/>
      <point x="423" y="1206" type="line"/>
      <point x="638" y="1206" type="line"/>
      <point x="652" y="1293" type="line"/>
      <point x="434" y="1293" type="line"/>
    </contour>
    <contour>
      <point x="364" y="596" type="curve"/>
      <point x="367" y="596" type="line"/>
      <point x="364" y="596" type="line"/>
      <point x="665" y="87" type="line"/>
      <point x="708" y="13"/>
      <point x="762" y="-20"/>
      <point x="817" y="-20" type="curve"/>
      <point x="914" y="-20"/>
      <point x="1004" y="50"/>
      <point x="1035" y="101" type="curve"/>
      <point x="1009" y="152" type="line"/>
      <point x="969" y="113"/>
      <point x="930" y="95"/>
      <point x="904" y="95" type="curve"/>
      <point x="870" y="95"/>
      <point x="824" y="137"/>
      <point x="789" y="189" type="curve"/>
      <point x="505" y="606" type="line"/>
      <point x="608" y="667"/>
      <point x="852" y="800"/>
      <point x="942" y="929" type="curve"/>
      <point x="974" y="975"/>
      <point x="987" y="1019"/>
      <point x="985" y="1053" type="curve"/>
      <point x="985" y="1102"/>
      <point x="949" y="1136"/>
      <point x="904" y="1136" type="curve"/>
      <point x="859" y="1136"/>
      <point x="810" y="1106"/>
      <point x="801" y="1044" type="curve"/>
      <point x="795" y="1000"/>
      <point x="787" y="948"/>
      <point x="745" y="893" type="curve"/>
      <point x="650" y="763"/>
      <point x="496" y="691"/>
    </contour>
    <contour>
      <point x="824" y="-166" type="move" name="btm"/>
    </contour>
    <contour>
      <point x="676" y="1660" type="move" name="top"/>
    </contour>
  </outline>
</glyph>
<glyph name="Endescender-cy" format="1">
  <advance width="1453"/>
  <unicode hex="04A2"/>
  <outline>
    <contour>
      <point x="1350" y="94" type="curve"/>
      <point x="1188" y="94" type="line"/>
      <point x="1348" y="1386" type="line"/>
      <point x="1488" y="1406" type="line"/>
      <point x="1498" y="1486" type="line"/>
      <point x="1054" y="1486" type="line"/>
      <point x="1046" y="1406" type="line"/>
      <point x="1192" y="1386" type="line"/>
      <point x="1120" y="810" type="line"/>
      <point x="422" y="810" type="line"/>
      <point x="496" y="1386" type="line"/>
      <point x="642" y="1406" type="line"/>
      <point x="652" y="1486" type="line"/>
      <point x="212" y="1486" type="line"/>
      <point x="202" y="1406" type="line"/>
      <point x="336" y="1386" type="line"/>
      <point x="174" y="94" type="line"/>
      <point x="28" y="70" type="line"/>
      <point x="20" y="0" type="line"/>
      <point x="478" y="0" type="line"/>
      <point x="484" y="70" type="line"/>
      <point x="332" y="94" type="line"/>
      <point x="408" y="706" type="line"/>
      <point x="1106" y="706" type="line"/>
      <point x="1032" y="94" type="line"/>
      <point x="872" y="70" type="line"/>
      <point x="866" y="0" type="line"/>
      <point x="1186" y="0" type="line"/>
      <point x="1196" y="-70"/>
      <point x="1172" y="-236"/>
      <point x="1168" y="-334" type="curve"/>
      <point x="1266" y="-334" type="line"/>
      <point x="1282" y="-252"/>
      <point x="1334" y="-42"/>
    </contour>
    <contour>
      <point x="804" y="-164" type="move" name="btm"/>
    </contour>
    <contour>
      <point x="862" y="1660" type="move" name="top"/>
    </contour>
  </outline>
</glyph>
<glyph name="Enghe-cy" format="1">
  <advance width="1883"/>
  <unicode hex="04A4"/>
  <outline>
    <contour>
      <point x="652" y="1486" type="line"/>
      <point x="212" y="1486" type="line"/>
      <point x="202" y="1406" type="line"/>
      <point x="336" y="1386" type="line"/>
      <point x="174" y="94" type="line"/>
      <point x="28" y="70" type="line"/>
      <point x="20" y="0" type="line"/>
      <point x="478" y="0" type="line"/>
      <point x="484" y="70" type="line"/>
      <point x="332" y="94" type="line"/>
      <point x="408" y="706" type="line"/>
      <point x="1106" y="706" type="line"/>
      <point x="1032" y="94" type="line"/>
      <point x="872" y="70" type="line"/>
      <point x="866" y="0" type="line"/>
      <point x="1338" y="0" type="line"/>
      <point x="1346" y="70" type="line"/>
      <point x="1188" y="94" type="line"/>
      <point x="1352" y="1402" type="line"/>
      <point x="1754" y="1392" type="line"/>
      <point x="1762" y="1024" type="line"/>
      <point x="1868" y="1024" type="line"/>
      <point x="1906" y="1486" type="line"/>
      <point x="1054" y="1486" type="line"/>
      <point x="1046" y="1406" type="line"/>
      <point x="1192" y="1386" type="line"/>
      <point x="1120" y="810" type="line"/>
      <point x="422" y="810" type="line"/>
      <point x="496" y="1386" type="line"/>
      <point x="642" y="1406" type="line"/>
    </contour>
    <contour>
      <point x="716" y="-166" type="move" name="btm"/>
    </contour>
    <contour>
      <point x="730" y="1660" type="move" name="top"/>
    </contour>
  </outline>
</glyph>
<glyph name="enghe-cy" format="1">
  <advance width="1550"/>
  <unicode hex="04A5"/>
  <outline>
    <contour>
      <point x="927" y="621" type="curve"/>
      <point x="367" y="621" type="line"/>
      <point x="431" y="1110" type="line"/>
      <point x="388" y="1132" type="line"/>
      <point x="178" y="1090" type="line"/>
      <point x="164" y="1019" type="line"/>
      <point x="261" y="972" type="line"/>
      <point x="131" y="0" type="line"/>
      <point x="285" y="0" type="line"/>
      <point x="355" y="524" type="line"/>
      <point x="915" y="524" type="line"/>
      <point x="857" y="99" type="line" smooth="yes"/>
      <point x="845" y="14"/>
      <point x="895" y="-20"/>
      <point x="964" y="-20" type="curve"/>
      <point x="1067" y="-20"/>
      <point x="1154" y="71"/>
      <point x="1170" y="94" type="curve"/>
      <point x="1144" y="139" type="line"/>
      <point x="1105" y="101"/>
      <point x="1074" y="88"/>
      <point x="1048" y="88" type="curve"/>
      <point x="1032" y="88"/>
      <point x="1019" y="110"/>
      <point x="1025" y="158" type="curve"/>
      <point x="1129" y="1017" type="line"/>
      <point x="1433" y="1014" type="line"/>
      <point x="1421" y="713" type="line"/>
      <point x="1517" y="713" type="line"/>
      <point x="1578" y="1109" type="line"/>
      <point x="989" y="1109" type="line"/>
      <point x="982" y="1069"/>
      <point x="934" y="670"/>
    </contour>
    <contour>
      <point x="774" y="-166" type="move" name="btm"/>
    </contour>
    <contour>
      <point x="690" y="1660" type="move" name="top"/>
    </contour>
  </outline>
</glyph>
<glyph name="pemiddlehook-cy" format="1">
  <advance width="1629"/>
  <unicode hex="04A7"/>
  <outline>
    <contour>
      <point x="400" y="865" type="curve"/>
      <point x="427" y="1116" type="line"/>
      <point x="388" y="1136" type="line"/>
      <point x="178" y="1093" type="line"/>
      <point x="164" y="1022" type="line"/>
      <point x="261" y="976" type="line"/>
      <point x="131" y="0" type="line"/>
      <point x="285" y="0" type="line"/>
      <point x="383" y="727" type="line"/>
      <point x="483" y="877"/>
      <point x="646" y="1008"/>
      <point x="764" y="1008" type="curve"/>
      <point x="863" y="1008"/>
      <point x="898" y="969"/>
      <point x="898" y="836" type="curve"/>
      <point x="898" y="747"/>
      <point x="878" y="589"/>
      <point x="854" y="432" type="curve"/>
      <point x="834" y="298"/>
      <point x="805" y="114"/>
      <point x="786" y="0" type="curve"/>
      <point x="944" y="0" type="line"/>
      <point x="957" y="81"/>
      <point x="973" y="188"/>
      <point x="987" y="288" type="curve"/>
      <point x="1071" y="370"/>
      <point x="1164" y="438"/>
      <point x="1260" y="438" type="curve"/>
      <point x="1390" y="438"/>
      <point x="1413" y="332"/>
      <point x="1413" y="194" type="curve"/>
      <point x="1413" y="-44"/>
      <point x="1280" y="-333"/>
      <point x="1059" y="-333" type="curve"/>
      <point x="1051" y="-333"/>
      <point x="1044" y="-333"/>
      <point x="1038" y="-333" type="curve"/>
      <point x="1032" y="-406" type="line"/>
      <point x="1048" y="-410"/>
      <point x="1070" y="-412"/>
      <point x="1097" y="-412" type="curve"/>
      <point x="1379" y="-412"/>
      <point x="1580" y="-28"/>
      <point x="1580" y="232" type="curve"/>
      <point x="1580" y="392"/>
      <point x="1544" y="545"/>
      <point x="1326" y="545" type="curve"/>
      <point x="1189" y="545"/>
      <point x="1077" y="462"/>
      <point x="1001" y="383" type="curve"/>
      <point x="1008" y="438" type="line" smooth="yes"/>
      <point x="1033" y="611"/>
      <point x="1058" y="782"/>
      <point x="1058" y="848" type="curve"/>
      <point x="1058" y="1064"/>
      <point x="970" y="1136"/>
      <point x="833" y="1136" type="curve"/>
      <point x="674" y="1136"/>
      <point x="508" y="1010"/>
    </contour>
    <contour>
      <point x="868" y="-166" type="move" name="btm"/>
    </contour>
    <contour>
      <point x="690" y="1660" type="move" name="top"/>
    </contour>
  </outline>
</glyph>
<glyph name="Haabkhasian-cy" format="1">
  <advance width="1624"/>
  <unicode hex="04A8"/>
  <outline>
    <contour>
      <point x="1056" y="1370" type="curve"/>
      <point x="1098" y="1432" type="line"/>
      <point x="1052" y="1470"/>
      <point x="980" y="1502"/>
      <point x="855" y="1502" type="curve"/>
      <point x="398" y="1502"/>
      <point x="115" y="1125"/>
      <point x="115" y="625" type="curve"/>
      <point x="115" y="259"/>
      <point x="329" y="-22"/>
      <point x="705" y="-22" type="curve"/>
      <point x="804" y="-22"/>
      <point x="898" y="0"/>
      <point x="987" y="41" type="curve"/>
      <point x="1062" y="6"/>
      <point x="1146" y="-12"/>
      <point x="1229" y="-12" type="curve"/>
      <point x="1261" y="-12"/>
      <point x="1345" y="0"/>
      <point x="1384" y="8" type="curve"/>
      <point x="1392" y="82" type="line"/>
      <point x="1371" y="76"/>
      <point x="1295" y="66"/>
      <point x="1279" y="66" type="curve"/>
      <point x="1215" y="66"/>
      <point x="1155" y="80"/>
      <point x="1100" y="105" type="curve"/>
      <point x="1370" y="284"/>
      <point x="1556" y="538"/>
      <point x="1557" y="910" type="curve"/>
      <point x="1558" y="1152"/>
      <point x="1408" y="1282"/>
      <point x="1200" y="1282" type="curve"/>
      <point x="932" y="1282"/>
      <point x="642" y="1056"/>
      <point x="642" y="590" type="curve"/>
      <point x="642" y="368"/>
      <point x="752" y="204"/>
      <point x="894" y="102" type="curve"/>
      <point x="840" y="84"/>
      <point x="784" y="74"/>
      <point x="726" y="74" type="curve"/>
      <point x="422" y="74"/>
      <point x="292" y="330"/>
      <point x="292" y="635" type="curve"/>
      <point x="292" y="991"/>
      <point x="500" y="1404"/>
      <point x="837" y="1404" type="curve"/>
      <point x="936" y="1404"/>
      <point x="1024" y="1396"/>
    </contour>
    <contour>
      <point x="1164" y="1188" type="curve"/>
      <point x="1300" y="1188"/>
      <point x="1386" y="1088"/>
      <point x="1386" y="850" type="curve"/>
      <point x="1386" y="580"/>
      <point x="1245" y="292"/>
      <point x="1018" y="153" type="curve"/>
      <point x="895" y="247"/>
      <point x="815" y="409"/>
      <point x="815" y="609" type="curve"/>
      <point x="815" y="989"/>
      <point x="976" y="1188"/>
    </contour>
    <contour>
      <point x="693" y="-166" type="move" name="btm"/>
    </contour>
    <contour>
      <point x="735" y="1660" type="move" name="top"/>
    </contour>
  </outline>
</glyph>
<glyph name="Tedescender-cy" format="1">
  <advance width="1263"/>
  <unicode hex="04AC"/>
  <outline>
    <contour>
      <point x="905" y="94" type="curve"/>
      <point x="645" y="94" type="line"/>
      <point x="815" y="1400" type="line"/>
      <point x="1179" y="1384" type="line"/>
      <point x="1165" y="1040" type="line"/>
      <point x="1251" y="1042" type="line"/>
      <point x="1311" y="1486" type="line"/>
      <point x="187" y="1486" type="line"/>
      <point x="117" y="1042" type="line"/>
      <point x="207" y="1044" type="line"/>
      <point x="295" y="1384" type="line"/>
      <point x="655" y="1400" type="line"/>
      <point x="487" y="94" type="line"/>
      <point x="247" y="76" type="line"/>
      <point x="243" y="0" type="line"/>
      <point x="745" y="0" type="line"/>
      <point x="753" y="-70"/>
      <point x="729" y="-236"/>
      <point x="725" y="-334" type="curve"/>
      <point x="823" y="-334" type="line"/>
      <point x="841" y="-252"/>
      <point x="889" y="-14"/>
    </contour>
  </outline>
</glyph>
<glyph name="hadescender-cy" format="1">
  <advance width="1027"/>
  <unicode hex="04B3"/>
  <outline>
    <contour>
      <point x="749" y="152" type="curve"/>
      <point x="567" y="554" type="line"/>
      <point x="1007" y="1124" type="line"/>
      <point x="841" y="1124" type="line"/>
      <point x="521" y="678" type="line"/>
      <point x="417" y="1030" type="line" smooth="yes"/>
      <point x="397" y="1094"/>
      <point x="365" y="1132"/>
      <point x="275" y="1132" type="curve"/>
      <point x="171" y="1132"/>
      <point x="89" y="1042"/>
      <point x="75" y="1018" type="curve"/>
      <point x="105" y="972" type="line"/>
      <point x="121" y="994"/>
      <point x="163" y="1024"/>
      <point x="203" y="1024" type="curve"/>
      <point x="241" y="1024"/>
      <point x="257" y="998"/>
      <point x="273" y="962" type="curve"/>
      <point x="433" y="582" type="line"/>
      <point x="-13" y="0" type="line"/>
      <point x="151" y="0" type="line"/>
      <point x="479" y="458" type="line"/>
      <point x="605" y="84" type="line" smooth="yes"/>
      <point x="621" y="38"/>
      <point x="639" y="4"/>
      <point x="683" y="-10" type="curve"/>
      <point x="639" y="-42"/>
      <point x="605" y="-86"/>
      <point x="605" y="-144" type="curve"/>
      <point x="605" y="-208"/>
      <point x="631" y="-238"/>
      <point x="631" y="-284" type="curve"/>
      <point x="631" y="-350"/>
      <point x="557" y="-406"/>
      <point x="499" y="-424" type="curve"/>
      <point x="543" y="-476" type="line"/>
      <point x="653" y="-452"/>
      <point x="775" y="-358"/>
      <point x="775" y="-256" type="curve"/>
      <point x="775" y="-198"/>
      <point x="737" y="-142"/>
      <point x="737" y="-96" type="curve"/>
      <point x="737" y="-42"/>
      <point x="785" y="-20"/>
      <point x="823" y="0" type="curve"/>
      <point x="893" y="32"/>
      <point x="949" y="94"/>
      <point x="957" y="114" type="curve"/>
      <point x="927" y="160" type="line"/>
      <point x="885" y="114"/>
      <point x="845" y="90"/>
      <point x="813" y="90" type="curve"/>
      <point x="781" y="90"/>
      <point x="765" y="114"/>
    </contour>
    <contour>
      <point x="629" y="1660" type="move" name="top"/>
    </contour>
  </outline>
</glyph>
<glyph name="Tetse-cy" format="1">
  <advance width="1809"/>
  <unicode hex="04B4"/>
  <outline>
    <contour>
      <point x="1707" y="102" type="curve"/>
      <point x="1457" y="104" type="line"/>
      <point x="1617" y="1384" type="line"/>
      <point x="1789" y="1406" type="line"/>
      <point x="1797" y="1486" type="line"/>
      <point x="1317" y="1486" type="line"/>
      <point x="1309" y="1406" type="line"/>
      <point x="1467" y="1384" type="line"/>
      <point x="1309" y="98" type="line"/>
      <point x="565" y="98" type="line"/>
      <point x="725" y="1386" type="line"/>
      <point x="981" y="1384" type="line"/>
      <point x="981" y="1032" type="line"/>
      <point x="1079" y="1032" type="line"/>
      <point x="1121" y="1486" type="line"/>
      <point x="199" y="1486" type="line"/>
      <point x="115" y="1032" type="line"/>
      <point x="217" y="1032" type="line"/>
      <point x="315" y="1384" type="line"/>
      <point x="577" y="1386" type="line"/>
      <point x="415" y="94" type="line"/>
      <point x="271" y="70" type="line"/>
      <point x="263" y="0" type="line"/>
      <point x="1543" y="0" type="line"/>
      <point x="1551" y="-70"/>
      <point x="1529" y="-236"/>
      <point x="1523" y="-334" type="curve"/>
      <point x="1619" y="-334" type="line"/>
      <point x="1637" y="-252"/>
      <point x="1691" y="-6"/>
    </contour>
    <contour>
      <point x="805" y="-166" type="move" name="btm"/>
    </contour>
    <contour>
      <point x="811" y="1660" type="move" name="top"/>
    </contour>
  </outline>
</glyph>
<glyph name="cheverticalstroke-cy" format="1">
  <advance width="1136"/>
  <unicode hex="04B9"/>
  <outline>
    <contour>
      <point x="319" y="862" type="curve"/>
      <point x="350" y="1110" type="line"/>
      <point x="308" y="1132" type="line"/>
      <point x="96" y="1091" type="line"/>
      <point x="82" y="1020" type="line"/>
      <point x="187" y="970" type="line"/>
      <point x="163" y="797" type="line"/>
      <point x="124" y="482"/>
      <point x="189" y="372"/>
      <point x="444" y="372" type="curve"/>
      <point x="455" y="372"/>
      <point x="468" y="372"/>
      <point x="479" y="372" type="curve"/>
      <point x="453" y="148" type="line"/>
      <point x="534" y="148" type="line"/>
      <point x="562" y="379" type="line"/>
      <point x="633" y="389"/>
      <point x="697" y="409"/>
      <point x="765" y="442" type="curve"/>
      <point x="722" y="100" type="line"/>
      <point x="712" y="16"/>
      <point x="759" y="-20"/>
      <point x="828" y="-20" type="curve"/>
      <point x="930" y="-20"/>
      <point x="1017" y="70"/>
      <point x="1034" y="94" type="curve"/>
      <point x="1008" y="139" type="line"/>
      <point x="970" y="101"/>
      <point x="938" y="88"/>
      <point x="913" y="88" type="curve"/>
      <point x="896" y="88"/>
      <point x="880" y="110"/>
      <point x="886" y="158" type="curve"/>
      <point x="993" y="1109" type="line"/>
      <point x="850" y="1109" type="line"/>
      <point x="777" y="537" type="line"/>
      <point x="723" y="508"/>
      <point x="655" y="492"/>
      <point x="576" y="488" type="curve"/>
      <point x="612" y="792" type="line"/>
      <point x="531" y="792" type="line"/>
      <point x="493" y="486" type="line"/>
      <point x="300" y="494"/>
      <point x="282" y="575"/>
    </contour>
  </outline>
</glyph>
<glyph name="eltail-cy" format="1">
  <advance width="1115"/>
  <unicode hex="04C6"/>
  <outline>
    <contour>
      <point x="868" y="158" type="curve"/>
      <point x="984" y="1109" type="line"/>
      <point x="272" y="1109" type="line"/>
      <point x="262" y="1028" type="line"/>
      <point x="503" y="1004" type="line"/>
      <point x="452" y="764"/>
      <point x="323" y="394"/>
      <point x="196" y="234" type="curve"/>
      <point x="163" y="183"/>
      <point x="132" y="154"/>
      <point x="101" y="154" type="curve"/>
      <point x="73" y="154"/>
      <point x="-7" y="176"/>
      <point x="-17" y="184" type="curve"/>
      <point x="-55" y="8" type="line"/>
      <point x="-51" y="0"/>
      <point x="4" y="-16"/>
      <point x="34" y="-16" type="curve"/>
      <point x="126" y="-16"/>
      <point x="202" y="42"/>
      <point x="265" y="140" type="curve"/>
      <point x="415" y="327"/>
      <point x="518" y="657"/>
      <point x="590" y="1007" type="curve"/>
      <point x="813" y="1007" type="line"/>
      <point x="692" y="100" type="line" smooth="yes"/>
      <point x="682" y="14"/>
      <point x="731" y="-20"/>
      <point x="798" y="-20" type="curve"/>
      <point x="806" y="-20"/>
      <point x="814" y="-20"/>
      <point x="822" y="-18" type="curve"/>
      <point x="793" y="-144"/>
      <point x="652" y="-315"/>
      <point x="553" y="-373" type="curve"/>
      <point x="587" y="-415" type="line"/>
      <point x="785" y="-348"/>
      <point x="1007" y="-80"/>
      <point x="1010" y="94" type="curve"/>
      <point x="986" y="139" type="line"/>
      <point x="946" y="102"/>
      <point x="916" y="88"/>
      <point x="891" y="88" type="curve"/>
      <point x="874" y="88"/>
      <point x="861" y="109"/>
    </contour>
  </outline>
</glyph>
<glyph name="Enhook-cy" format="1">
  <advance width="1494"/>
  <unicode hex="04C7"/>
  <outline>
    <contour>
      <point x="1134" y="810" type="curve"/>
      <point x="422" y="810" type="line"/>
      <point x="496" y="1386" type="line"/>
      <point x="642" y="1406" type="line"/>
      <point x="650" y="1486" type="line"/>
      <point x="212" y="1486" type="line"/>
      <point x="202" y="1406" type="line"/>
      <point x="336" y="1386" type="line"/>
      <point x="174" y="94" type="line"/>
      <point x="28" y="70" type="line"/>
      <point x="22" y="0" type="line"/>
      <point x="478" y="0" type="line"/>
      <point x="484" y="70" type="line"/>
      <point x="334" y="94" type="line"/>
      <point x="408" y="706" type="line"/>
      <point x="1120" y="706" type="line"/>
      <point x="1094" y="472"/>
      <point x="1066" y="250"/>
      <point x="1032" y="88" type="curve"/>
      <point x="996" y="-70"/>
      <point x="850" y="-218"/>
      <point x="670" y="-266" type="curve"/>
      <point x="698" y="-336" type="line"/>
      <point x="900" y="-302"/>
      <point x="1106" y="-190"/>
      <point x="1186" y="74" type="curve"/>
      <point x="1214" y="166"/>
      <point x="1278" y="738"/>
      <point x="1348" y="1388" type="curve"/>
      <point x="1516" y="1406" type="line"/>
      <point x="1524" y="1486" type="line"/>
      <point x="1042" y="1486" type="line"/>
      <point x="1032" y="1406" type="line"/>
      <point x="1196" y="1388" type="line"/>
      <point x="1174" y="1208"/>
      <point x="1154" y="1008"/>
    </contour>
    <contour>
      <point x="716" y="-166" type="move" name="btm"/>
    </contour>
    <contour>
      <point x="730" y="1660" type="move" name="top"/>
    </contour>
  </outline>
</glyph>
<glyph name="enhook-cy" format="1">
  <advance width="1316"/>
  <unicode hex="04C8"/>
  <outline>
    <contour>
      <point x="1049" y="156" type="curve"/>
      <point x="1172" y="1109" type="line"/>
      <point x="1027" y="1109" type="line"/>
      <point x="964" y="621" type="line"/>
      <point x="367" y="621" type="line"/>
      <point x="431" y="1110" type="line"/>
      <point x="388" y="1132" type="line"/>
      <point x="178" y="1090" type="line"/>
      <point x="164" y="1019" type="line"/>
      <point x="260" y="972" type="line"/>
      <point x="130" y="0" type="line"/>
      <point x="285" y="0" type="line"/>
      <point x="355" y="524" type="line"/>
      <point x="952" y="524" type="line"/>
      <point x="910" y="207" type="line"/>
      <point x="863" y="-181"/>
      <point x="788" y="-314"/>
      <point x="587" y="-314" type="curve"/>
      <point x="547" y="-314"/>
      <point x="514" y="-308"/>
      <point x="498" y="-304" type="curve"/>
      <point x="484" y="-398" type="line"/>
      <point x="503" y="-410"/>
      <point x="555" y="-417"/>
      <point x="596" y="-417" type="curve"/>
      <point x="862" y="-417"/>
      <point x="1001" y="-229"/>
    </contour>
    <contour>
      <point x="774" y="-166" type="move" name="btm"/>
    </contour>
    <contour>
      <point x="690" y="1660" type="move" name="top"/>
    </contour>
  </outline>
</glyph>
<glyph name="Chekhakassian-cy" format="1">
  <advance width="1258"/>
  <unicode hex="04CB"/>
  <outline>
    <contour>
      <point x="733" y="0" type="curve"/>
      <point x="1098" y="0" type="line"/>
      <point x="1104" y="70" type="line"/>
      <point x="948" y="94" type="line"/>
      <point x="1110" y="1386" type="line"/>
      <point x="1245" y="1406" type="line"/>
      <point x="1255" y="1486" type="line"/>
      <point x="813" y="1486" type="line"/>
      <point x="805" y="1406" type="line"/>
      <point x="952" y="1386" type="line"/>
      <point x="874" y="769" type="line"/>
      <point x="801" y="723"/>
      <point x="665" y="696"/>
      <point x="565" y="696" type="curve"/>
      <point x="320" y="696"/>
      <point x="300" y="800"/>
      <point x="337" y="1126" type="curve"/>
      <point x="371" y="1384" type="line"/>
      <point x="518" y="1406" type="line"/>
      <point x="526" y="1486" type="line"/>
      <point x="88" y="1486" type="line"/>
      <point x="80" y="1404" type="line"/>
      <point x="213" y="1386" type="line"/>
      <point x="165" y="1012" type="line"/>
      <point x="121" y="654"/>
      <point x="266" y="585"/>
      <point x="498" y="585" type="curve"/>
      <point x="608" y="585"/>
      <point x="753" y="609"/>
      <point x="862" y="676" type="curve"/>
      <point x="790" y="94" type="line"/>
      <point x="597" y="94" type="line"/>
      <point x="579" y="-42"/>
      <point x="561" y="-189"/>
      <point x="544" y="-334" type="curve"/>
      <point x="646" y="-334" type="line"/>
      <point x="660" y="-260"/>
      <point x="709" y="-68"/>
    </contour>
  </outline>
</glyph>
<glyph name="Zhedieresis-cy" format="1">
  <advance width="1973"/>
  <unicode hex="04DC"/>
  <outline>
    <component base="Zhe-cy"/>
    <component base="dieresiscomb.case" xOffset="993"/>
    <contour>
      <point x="1020" y="1660" type="move" name="top"/>
    </contour>
  </outline>
</glyph>
<glyph name="obarred-cy" format="1">
  <advance width="1119"/>
  <unicode hex="04E9"/>
  <outline>
    <contour>
      <point x="640" y="1136" type="curve"/>
      <point x="306" y="1136"/>
      <point x="79" y="786"/>
      <point x="82" y="428" type="curve"/>
      <point x="86" y="143"/>
      <point x="225" y="-20"/>
      <point x="473" y="-20" type="curve"/>
      <point x="807" y="-20"/>
      <point x="1034" y="334"/>
      <point x="1030" y="686" type="curve"/>
      <point x="1025" y="971"/>
      <point x="888" y="1136"/>
    </contour>
    <contour>
      <point x="253" y="537" type="curve"/>
      <point x="852" y="537" type="line"/>
      <point x="819" y="308"/>
      <point x="701" y="77"/>
      <point x="502" y="77" type="curve"/>
      <point x="339" y="77"/>
      <point x="250" y="205"/>
      <point x="248" y="429" type="curve"/>
      <point x="248" y="463"/>
      <point x="249" y="499"/>
    </contour>
    <contour>
      <point x="862" y="624" type="curve"/>
      <point x="265" y="624" type="line"/>
      <point x="308" y="837"/>
      <point x="423" y="1038"/>
      <point x="614" y="1038" type="curve"/>
      <point x="778" y="1038"/>
      <point x="862" y="907"/>
      <point x="864" y="685" type="curve"/>
      <point x="864" y="665"/>
      <point x="862" y="644"/>
    </contour>
    <contour>
      <point x="642" y="1110" type="move" name="top"/>
    </contour>
  </outline>
</glyph>
<glyph name="Udieresis-cy" format="1">
  <advance width="1175"/>
  <unicode hex="04F0"/>
  <outline>
    <component base="U-cy"/>
    <component base="dieresiscomb.case" xOffset="559"/>
    <contour>
      <point x="638" y="-166" type="move" name="btm"/>
    </contour>
    <contour>
      <point x="628" y="1660" type="move" name="top"/>
    </contour>
  </outline>
</glyph>
<glyph name="Gedescender-cy" format="1">
  <advance width="1099"/>
  <unicode hex="04F6"/>
  <outline>
    <contour>
      <point x="612" y="94" type="curve"/>
      <point x="333" y="94" type="line"/>
      <point x="496" y="1398" type="line"/>
      <point x="972" y="1389" type="line"/>
      <point x="978" y="1025" type="line"/>
      <point x="1084" y="1025" type="line"/>
      <point x="1124" y="1486" type="line"/>
      <point x="163" y="1486" type="line"/>
      <point x="153" y="1409" type="line"/>
      <point x="338" y="1385" type="line"/>
      <point x="177" y="94" type="line"/>
      <point x="-14" y="71" type="line"/>
      <point x="-24" y="0" type="line"/>
      <point x="440" y="0" type="line"/>
      <point x="441" y="-5"/>
      <point x="414" y="-301"/>
      <point x="409" y="-344" type="curve"/>
      <point x="508" y="-344" type="line"/>
      <point x="542" y="-202"/>
      <point x="578" y="-55"/>
    </contour>
  </outline>
</glyph>
<glyph name="Gestrokehook-cy" format="1">
  <advance width="1060"/>
  <unicode hex="04FA"/>
  <outline>
    <contour>
      <point x="481" y="-456" type="curve"/>
      <point x="605" y="-467"/>
      <point x="728" y="-387"/>
      <point x="746" y="-235" type="curve"/>
      <point x="758" y="-135"/>
      <point x="714" y="-12"/>
      <point x="686" y="72" type="curve"/>
      <point x="335" y="94" type="line"/>
      <point x="406" y="682" type="line"/>
      <point x="838" y="682" type="line"/>
      <point x="839" y="771" type="line"/>
      <point x="418" y="771" type="line"/>
      <point x="496" y="1398" type="line"/>
      <point x="933" y="1389" type="line"/>
      <point x="938" y="1025" type="line"/>
      <point x="1045" y="1025" type="line"/>
      <point x="1085" y="1486" type="line"/>
      <point x="180" y="1486" type="line"/>
      <point x="169" y="1408" type="line"/>
      <point x="338" y="1384" type="line"/>
      <point x="262" y="771" type="line"/>
      <point x="83" y="771" type="line"/>
      <point x="82" y="682" type="line"/>
      <point x="251" y="682" type="line"/>
      <point x="177" y="94" type="line"/>
      <point x="15" y="70" type="line"/>
      <point x="7" y="0" type="line"/>
      <point x="612" y="0" type="line"/>
      <point x="627" y="-67"/>
      <point x="631" y="-132"/>
      <point x="625" y="-176" type="curve"/>
      <point x="609" y="-298"/>
      <point x="549" y="-340"/>
      <point x="450" y="-340" type="curve"/>
      <point x="430" y="-340"/>
      <point x="387" y="-334"/>
      <point x="361" y="-324" type="curve"/>
      <point x="343" y="-426" type="line"/>
      <point x="376" y="-440"/>
      <point x="435" y="-452"/>
    </contour>
  </outline>
</glyph>
<glyph name="hahook-cy" format="1">
  <advance width="939"/>
  <unicode hex="04FD"/>
  <outline>
    <contour>
      <point x="272" y="963" type="curve"/>
      <point x="433" y="582" type="line"/>
      <point x="-14" y="0" type="line"/>
      <point x="152" y="0" type="line"/>
      <point x="494" y="475" type="line"/>
      <point x="635" y="196"/>
      <point x="666" y="3"/>
      <point x="642" y="-166" type="curve"/>
      <point x="627" y="-304"/>
      <point x="559" y="-393"/>
      <point x="432" y="-417" type="curve"/>
      <point x="446" y="-522" type="line"/>
      <point x="638" y="-483"/>
      <point x="766" y="-357"/>
      <point x="786" y="-181" type="curve"/>
      <point x="815" y="30"/>
      <point x="754" y="211"/>
      <point x="576" y="565" type="curve"/>
      <point x="1007" y="1124" type="line"/>
      <point x="840" y="1124" type="line"/>
      <point x="521" y="678" type="line"/>
      <point x="416" y="1030" type="line" smooth="yes"/>
      <point x="396" y="1094"/>
      <point x="364" y="1132"/>
      <point x="275" y="1132" type="curve"/>
      <point x="171" y="1132"/>
      <point x="89" y="1042"/>
      <point x="75" y="1018" type="curve"/>
      <point x="105" y="972" type="line"/>
      <point x="120" y="994"/>
      <point x="162" y="1024"/>
      <point x="202" y="1024" type="curve"/>
      <point x="242" y="1024"/>
      <point x="256" y="999"/>
    </contour>
  </outline>
</glyph>
<glyph name="Hastroke-cy" format="1">
  <advance width="1293"/>
  <unicode hex="04FE"/>
  <outline>
    <contour>
      <point x="626" y="1486" type="line"/>
      <point x="128" y="1486" type="line"/>
      <point x="120" y="1406" type="line"/>
      <point x="266" y="1384" type="line"/>
      <point x="566" y="750" type="line"/>
      <point x="71" y="92" type="line"/>
      <point x="-62" y="70" type="line"/>
      <point x="-70" y="0" type="line"/>
      <point x="389" y="0" type="line"/>
      <point x="397" y="70" type="line"/>
      <point x="223" y="94" type="line"/>
      <point x="613" y="649" type="line"/>
      <point x="864" y="92" type="line"/>
      <point x="692" y="70" type="line"/>
      <point x="686" y="0" type="line"/>
      <point x="1206" y="0" type="line"/>
      <point x="1210" y="70" type="line"/>
      <point x="1050" y="94" type="line"/>
      <point x="721" y="757" type="line"/>
      <point x="1194" y="1388" type="line"/>
      <point x="1336" y="1406" type="line"/>
      <point x="1342" y="1486" type="line"/>
      <point x="886" y="1486" type="line"/>
      <point x="879" y="1406" type="line"/>
      <point x="1044" y="1386" type="line"/>
      <point x="673" y="854" type="line"/>
      <point x="449" y="1388" type="line"/>
      <point x="618" y="1406" type="line"/>
    </contour>
    <contour>
      <point x="1054" y="800" type="line"/>
      <point x="237" y="800" type="line"/>
      <point x="223" y="715" type="line"/>
      <point x="1040" y="715" type="line"/>
    </contour>
    <contour>
      <point x="541" y="-166" type="move" name="btm"/>
    </contour>
    <contour>
      <point x="794" y="1660" type="move" name="top"/>
    </contour>
  </outline>
</glyph>
<glyph name="komizje-cy" format="1">
  <advance width="1208"/>
  <unicode hex="0505"/>
  <outline>
    <contour>
      <point x="778" y="67" type="curve"/>
      <point x="752" y="69"/>
      <point x="756" y="60"/>
      <point x="736" y="71" type="curve"/>
      <point x="662" y="145"/>
      <point x="602" y="388"/>
      <point x="538" y="484" type="curve"/>
      <point x="699" y="542"/>
      <point x="797" y="671"/>
      <point x="797" y="870" type="curve"/>
      <point x="797" y="1024"/>
      <point x="702" y="1140"/>
      <point x="401" y="1140" type="curve"/>
      <point x="324" y="1140"/>
      <point x="191" y="1122"/>
      <point x="145" y="1118" type="curve"/>
      <point x="133" y="1027" type="line"/>
      <point x="180" y="1033"/>
      <point x="287" y="1045"/>
      <point x="370" y="1045" type="curve"/>
      <point x="570" y="1045"/>
      <point x="639" y="956"/>
      <point x="639" y="848" type="curve"/>
      <point x="639" y="642"/>
      <point x="522" y="545"/>
      <point x="289" y="545" type="curve"/>
      <point x="247" y="545"/>
      <point x="124" y="545"/>
      <point x="80" y="547" type="curve"/>
      <point x="67" y="456" type="line"/>
      <point x="109" y="454"/>
      <point x="278" y="446"/>
      <point x="308" y="446" type="curve"/>
      <point x="346" y="446"/>
      <point x="382" y="450"/>
      <point x="418" y="455" type="curve"/>
      <point x="498" y="330"/>
      <point x="525" y="36"/>
      <point x="611" y="4" type="curve"/>
      <point x="639" y="-8"/>
      <point x="671" y="-22"/>
      <point x="771" y="-22" type="curve"/>
      <point x="982" y="-22"/>
      <point x="1113" y="116"/>
      <point x="1145" y="390" type="curve"/>
      <point x="1173" y="628" type="line"/>
      <point x="1055" y="628" type="line"/>
      <point x="1027" y="384" type="line" smooth="yes"/>
      <point x="1005" y="201"/>
      <point x="922" y="67"/>
    </contour>
  </outline>
</glyph>
<glyph name="komilje-cy" format="1">
  <advance width="1502"/>
  <unicode hex="0509"/>
  <outline>
    <contour>
      <point x="897" y="396" type="curve"/>
      <point x="984" y="1109" type="line"/>
      <point x="191" y="1109" type="line"/>
      <point x="180" y="1028" type="line"/>
      <point x="366" y="1004" type="line"/>
      <point x="334" y="737"/>
      <point x="274" y="415"/>
      <point x="213" y="265" type="curve"/>
      <point x="191" y="204"/>
      <point x="166" y="154"/>
      <point x="110" y="154" type="curve"/>
      <point x="85" y="154"/>
      <point x="6" y="175"/>
      <point x="-10" y="186" type="curve"/>
      <point x="-47" y="10" type="line"/>
      <point x="-43" y="0"/>
      <point x="12" y="-16"/>
      <point x="41" y="-16" type="curve"/>
      <point x="185" y="-16"/>
      <point x="233" y="67"/>
      <point x="279" y="162" type="curve"/>
      <point x="340" y="290"/>
      <point x="407" y="625"/>
      <point x="437" y="876" type="curve"/>
      <point x="451" y="1007" type="line"/>
      <point x="813" y="1007" type="line"/>
      <point x="806" y="955"/>
      <point x="750" y="462"/>
      <point x="740" y="401" type="curve"/>
      <point x="710" y="143"/>
      <point x="790" y="-22"/>
      <point x="1034" y="-22" type="curve"/>
      <point x="1255" y="-22"/>
      <point x="1390" y="108"/>
      <point x="1424" y="390" type="curve"/>
      <point x="1450" y="628" type="line"/>
      <point x="1332" y="628" type="line"/>
      <point x="1305" y="384" type="line"/>
      <point x="1284" y="191"/>
      <point x="1196" y="67"/>
      <point x="1049" y="67" type="curve"/>
      <point x="881" y="67"/>
      <point x="875" y="229"/>
    </contour>
  </outline>
</glyph>
<glyph name="kominje-cy" format="1">
  <advance width="1663"/>
  <unicode hex="050B"/>
  <outline>
    <contour>
      <point x="1029" y="381" type="curve"/>
      <point x="1111" y="1109" type="line"/>
      <point x="966" y="1109" type="line"/>
      <point x="906" y="621" type="line"/>
      <point x="367" y="621" type="line"/>
      <point x="431" y="1110" type="line"/>
      <point x="388" y="1132" type="line"/>
      <point x="178" y="1090" type="line"/>
      <point x="164" y="1019" type="line"/>
      <point x="260" y="972" type="line"/>
      <point x="130" y="0" type="line"/>
      <point x="285" y="0" type="line"/>
      <point x="355" y="524" type="line"/>
      <point x="894" y="524" type="line"/>
      <point x="874" y="367" type="line" smooth="yes"/>
      <point x="844" y="111"/>
      <point x="962" y="-22"/>
      <point x="1186" y="-22" type="curve"/>
      <point x="1410" y="-22"/>
      <point x="1537" y="116"/>
      <point x="1570" y="390" type="curve"/>
      <point x="1598" y="628" type="line"/>
      <point x="1481" y="628" type="line"/>
      <point x="1453" y="384" type="line"/>
      <point x="1427" y="199"/>
      <point x="1350" y="67"/>
      <point x="1202" y="67" type="curve"/>
      <point x="1053" y="67"/>
      <point x="1007" y="210"/>
    </contour>
    <contour>
      <point x="672" y="-166" type="move" name="btm"/>
    </contour>
    <contour>
      <point x="674" y="1660" type="move" name="top"/>
    </contour>
  </outline>
</glyph>
<glyph name="komitje-cy" format="1">
  <advance width="2220"/>
  <unicode hex="050F"/>
  <outline>
    <contour>
      <point x="400" y="865" type="curve"/>
      <point x="425" y="1116" type="line"/>
      <point x="388" y="1136" type="line"/>
      <point x="178" y="1093" type="line"/>
      <point x="164" y="1022" type="line"/>
      <point x="261" y="976" type="line"/>
      <point x="131" y="0" type="line"/>
      <point x="285" y="0" type="line"/>
      <point x="383" y="728" type="line"/>
      <point x="483" y="880"/>
      <point x="647" y="1008"/>
      <point x="764" y="1008" type="curve"/>
      <point x="863" y="1008"/>
      <point x="895" y="971"/>
      <point x="895" y="836" type="curve"/>
      <point x="895" y="718"/>
      <point x="870" y="559"/>
      <point x="852" y="445" type="curve"/>
      <point x="788" y="0" type="line"/>
      <point x="947" y="0" type="line"/>
      <point x="1014" y="494" type="line"/>
      <point x="1026" y="572"/>
      <point x="1040" y="668"/>
      <point x="1048" y="753" type="curve"/>
      <point x="1144" y="892"/>
      <point x="1281" y="1006"/>
      <point x="1385" y="1006" type="curve"/>
      <point x="1473" y="1006"/>
      <point x="1514" y="969"/>
      <point x="1514" y="836" type="curve"/>
      <point x="1514" y="715"/>
      <point x="1469" y="478"/>
      <point x="1453" y="367" type="curve"/>
      <point x="1415" y="111"/>
      <point x="1519" y="-22"/>
      <point x="1745" y="-22" type="curve"/>
      <point x="1968" y="-22"/>
      <point x="2093" y="114"/>
      <point x="2127" y="390" type="curve"/>
      <point x="2151" y="628" type="line"/>
      <point x="2033" y="628" type="line"/>
      <point x="2007" y="384" type="line"/>
      <point x="1985" y="197"/>
      <point x="1909" y="67"/>
      <point x="1758" y="67" type="curve"/>
      <point x="1614" y="67"/>
      <point x="1582" y="210"/>
      <point x="1608" y="381" type="curve"/>
      <point x="1624" y="495"/>
      <point x="1673" y="754"/>
      <point x="1673" y="846" type="curve"/>
      <point x="1673" y="1054"/>
      <point x="1580" y="1136"/>
      <point x="1445" y="1136" type="curve"/>
      <point x="1298" y="1136"/>
      <point x="1151" y="1018"/>
      <point x="1051" y="879" type="curve"/>
      <point x="1047" y="1059"/>
      <point x="973" y="1136"/>
      <point x="833" y="1136" type="curve"/>
      <point x="673" y="1136"/>
      <point x="508" y="1010"/>
    </contour>
  </outline>
</glyph>
<glyph name="pedescender-cy" format="1">
  <advance width="1215"/>
  <unicode hex="0525"/>
  <outline>
    <contour>
      <point x="660" y="-424" type="curve"/>
      <point x="702" y="-476" type="line"/>
      <point x="812" y="-451"/>
      <point x="934" y="-357"/>
      <point x="934" y="-257" type="curve"/>
      <point x="934" y="-195"/>
      <point x="896" y="-144"/>
      <point x="896" y="-96" type="curve"/>
      <point x="896" y="-45"/>
      <point x="942" y="-21"/>
      <point x="980" y="0" type="curve"/>
      <point x="1043" y="28"/>
      <point x="1088" y="78"/>
      <point x="1097" y="94" type="curve"/>
      <point x="1073" y="139" type="line"/>
      <point x="1034" y="103"/>
      <point x="1003" y="88"/>
      <point x="977" y="88" type="curve"/>
      <point x="959" y="88"/>
      <point x="953" y="113"/>
      <point x="954" y="157" type="curve"/>
      <point x="960" y="255"/>
      <point x="988" y="394"/>
      <point x="1006" y="494" type="curve"/>
      <point x="1026" y="602"/>
      <point x="1058" y="752"/>
      <point x="1058" y="848" type="curve"/>
      <point x="1058" y="1064"/>
      <point x="970" y="1136"/>
      <point x="833" y="1136" type="curve"/>
      <point x="674" y="1136"/>
      <point x="508" y="1010"/>
      <point x="400" y="865" type="curve"/>
      <point x="427" y="1116" type="line"/>
      <point x="388" y="1136" type="line"/>
      <point x="178" y="1093" type="line"/>
      <point x="164" y="1022" type="line"/>
      <point x="261" y="976" type="line"/>
      <point x="131" y="0" type="line"/>
      <point x="285" y="0" type="line"/>
      <point x="383" y="727" type="line"/>
      <point x="483" y="877"/>
      <point x="646" y="1008"/>
      <point x="764" y="1008" type="curve"/>
      <point x="863" y="1008"/>
      <point x="898" y="969"/>
      <point x="898" y="836" type="curve"/>
      <point x="898" y="715"/>
      <point x="865" y="559"/>
      <point x="843" y="445" type="curve"/>
      <point x="825" y="335"/>
      <point x="791" y="187"/>
      <point x="788" y="97" type="curve"/>
      <point x="786" y="63"/>
      <point x="791" y="-4"/>
      <point x="839" y="-12" type="curve"/>
      <point x="798" y="-44"/>
      <point x="762" y="-86"/>
      <point x="762" y="-143" type="curve"/>
      <point x="762" y="-210"/>
      <point x="788" y="-235"/>
      <point x="788" y="-283" type="curve"/>
      <point x="788" y="-349"/>
      <point x="717" y="-406"/>
    </contour>
  </outline>
</glyph>
<glyph name="Shhadescender-cy" format="1">
  <advance width="1445"/>
  <unicode hex="0526"/>
  <outline>
    <contour>
      <point x="1334" y="102" type="curve"/>
      <point x="1090" y="102" type="line"/>
      <point x="944" y="102" type="line"/>
      <point x="930" y="0" type="line"/>
      <point x="1168" y="0" type="line"/>
      <point x="1176" y="-70"/>
      <point x="1154" y="-236"/>
      <point x="1150" y="-334" type="curve"/>
      <point x="1246" y="-334" type="line"/>
      <point x="1264" y="-252"/>
      <point x="1316" y="-6"/>
    </contour>
    <component base="Shha-cy" xOffset="8"/>
  </outline>
</glyph>
<glyph name="Eldescender-cy" format="1">
  <advance width="1384"/>
  <unicode hex="052E"/>
  <outline>
    <contour>
      <point x="1273" y="102" type="curve"/>
      <point x="1029" y="102" type="line"/>
      <point x="883" y="102" type="line"/>
      <point x="868" y="0" type="line"/>
      <point x="1107" y="0" type="line"/>
      <point x="1115" y="-69"/>
      <point x="1093" y="-237"/>
      <point x="1089" y="-334" type="curve"/>
      <point x="1186" y="-334" type="line"/>
      <point x="1203" y="-253"/>
      <point x="1255" y="-6"/>
    </contour>
    <component base="El-cy"/>
  </outline>
</glyph>
<glyph name="endash" format="1">
  <advance width="1592"/>
  <unicode hex="2013"/>
  <outline>
    <contour>
      <point x="1431" y="704" type="line"/>
      <point x="204" y="704" type="line"/>
      <point x="186" y="578" type="line"/>
      <point x="1412" y="578" type="line"/>
    </contour>
  </outline>
</glyph>
<glyph name="dagger" format="1">
  <advance width="857"/>
  <unicode hex="2020"/>
  <outline>
    <contour>
      <point x="441" y="1114" type="line"/>
      <point x="411" y="984" type="line"/>
      <point x="315" y="148" type="line"/>
      <point x="408" y="148" type="line"/>
      <point x="568" y="984" type="line"/>
      <point x="572" y="1114" type="line"/>
      <point x="855" y="1114" type="line"/>
      <point x="869" y="1236" type="line"/>
      <point x="573" y="1236" type="line"/>
      <point x="627" y="1434" type="line"/>
      <point x="655" y="1608" type="line"/>
      <point x="507" y="1608" type="line"/>
      <point x="483" y="1434" type="line"/>
      <point x="474" y="1236" type="line"/>
      <point x="176" y="1236" type="line"/>
      <point x="160" y="1114" type="line"/>
    </contour>
  </outline>
</glyph>
<glyph name="guilsinglright" format="1">
  <advance width="807"/>
  <unicode hex="203A"/>
  <outline>
    <contour>
      <point x="709" y="665" type="line"/>
      <point x="317" y="1096" type="line"/>
      <point x="231" y="1031" type="line"/>
      <point x="528" y="607" type="line"/>
      <point x="98" y="182" type="line"/>
      <point x="179" y="111" type="line"/>
      <point x="687" y="531" type="line"/>
    </contour>
  </outline>
</glyph>
<glyph name="sheqel" format="1">
  <advance width="1743"/>
  <unicode hex="20AA"/>
  <outline>
    <contour>
      <point x="954" y="1486" type="curve"/>
      <point x="359" y="1486" type="line"/>
      <point x="149" y="0" type="line"/>
      <point x="297" y="0" type="line"/>
      <point x="502" y="1379" type="line"/>
      <point x="917" y="1379" type="line" smooth="yes"/>
      <point x="1088" y="1379"/>
      <point x="1101" y="1320"/>
      <point x="1077" y="1146" type="curve"/>
      <point x="970" y="372" type="line"/>
      <point x="1125" y="372" type="line"/>
      <point x="1232" y="1138" type="line" smooth="yes"/>
      <point x="1274" y="1438"/>
      <point x="1159" y="1486"/>
    </contour>
    <contour>
      <point x="870" y="0" type="curve"/>
      <point x="1457" y="0" type="line"/>
      <point x="1659" y="1486" type="line"/>
      <point x="1513" y="1486" type="line"/>
      <point x="1322" y="107" type="line"/>
      <point x="919" y="107" type="line" smooth="yes"/>
      <point x="753" y="107"/>
      <point x="715" y="169"/>
      <point x="739" y="344" type="curve"/>
      <point x="848" y="1116" type="line"/>
      <point x="693" y="1116" type="line"/>
      <point x="586" y="356" type="line" smooth="yes"/>
      <point x="542" y="50"/>
      <point x="667" y="0"/>
    </contour>
  </outline>
</glyph>
<glyph name="leftArrow" format="1">
  <advance width="1496"/>
  <unicode hex="2190"/>
  <outline>
    <contour>
      <point x="334" y="797" type="line"/>
      <point x="772" y="1234" type="line"/>
      <point x="688" y="1324" type="line"/>
      <point x="112" y="748" type="line"/>
      <point x="688" y="172" type="line"/>
      <point x="774" y="264" type="line"/>
      <point x="334" y="701" type="line"/>
      <point x="510" y="684" type="line"/>
      <point x="1384" y="684" type="line"/>
      <point x="1386" y="814" type="line"/>
      <point x="510" y="814" type="line"/>
    </contour>
  </outline>
</glyph>
<glyph name="northEastArrow" format="1">
  <advance width="1200"/>
  <unicode hex="2197"/>
  <outline>
    <contour>
      <point x="1064" y="1038" type="line"/>
      <point x="1070" y="412" type="line"/>
      <point x="1194" y="416" type="line"/>
      <point x="1190" y="1232" type="line"/>
      <point x="374" y="1224" type="line"/>
      <point x="374" y="1100" type="line"/>
      <point x="1000" y="1104" type="line"/>
      <point x="865" y="990" type="line"/>
      <point x="251" y="367" type="line"/>
      <point x="341" y="279" type="line"/>
      <point x="955" y="903" type="line"/>
    </contour>
  </outline>
</glyph>
<glyph name="increment" format="1">
  <advance width="1374"/>
  <unicode hex="2206"/>
  <outline>
    <contour>
      <point x="715" y="1473" type="line"/>
      <point x="-33" y="22" type="line"/>
      <point x="-21" y="0" type="line"/>
      <point x="1285" y="0" type="line"/>
      <point x="1301" y="26" type="line"/>
      <point x="747" y="1473" type="line"/>
    </contour>
    <contour>
      <point x="681" y="1214" type="line"/>
      <point x="1088" y="116" type="line"/>
      <point x="123" y="116" type="line"/>
    </contour>
  </outline>
</glyph>
<glyph name="minus" format="1">
  <advance width="1242"/>
  <unicode hex="2212"/>
  <outline>
    <contour>
      <point x="1047" y="704" type="line"/>
      <point x="238" y="704" type="line"/>
      <point x="219" y="578" type="line"/>
      <point x="1028" y="578" type="line"/>
    </contour>
  </outline>
</glyph>
<glyph name="greaterequal" format="1">
  <advance width="1332"/>
  <unicode hex="2265"/>
  <outline>
    <contour>
      <point x="160" y="119" type="line"/>
      <point x="144" y="-2" type="line"/>
      <point x="1070" y="-2" type="line"/>
      <point x="1084" y="119" type="line"/>
    </contour>
    <contour>
      <point x="218" y="387" type="line"/>
      <point x="200" y="240" type="line"/>
      <point x="1185" y="681" type="line"/>
      <point x="1193" y="742" type="line"/>
      <point x="330" y="1176" type="line"/>
      <point x="310" y="1029" type="line"/>
      <point x="992" y="710" type="line"/>
    </contour>
  </outline>
</glyph>
<glyph name="rightanglebracket-math" format="1">
  <advance width="863"/>
  <unicode hex="27E9"/>
  <outline>
    <contour>
      <point x="-98" y="-514" type="line"/>
      <point x="36" y="-514" type="line"/>
      <point x="800" y="660" type="line"/>
      <point x="478" y="1804" type="line"/>
      <point x="355" y="1802" type="line"/>
      <point x="663" y="664" type="line"/>
    </contour>
  </outline>
</glyph>
<glyph name="fl" format="1">
  <advance width="1299"/>
  <unicode hex="FB02"/>
  <outline>
    <component base="f"/>
    <component base="l" xOffset="722"/>
    <contour>
      <point x="675" y="0" type="move" name="caret_1"/>
    </contour>
  </outline>
</glyph>
<glyph name="Ef-cy.loclBGR" format="1">
  <advance width="1606"/>
  <outline>
    <contour>
      <point x="980" y="1370" type="curve"/>
      <point x="994" y="1483" type="line"/>
      <point x="1143" y="1503" type="line"/>
      <point x="1151" y="1583" type="line"/>
      <point x="712" y="1583" type="line"/>
      <point x="702" y="1503" type="line"/>
      <point x="837" y="1483" type="line"/>
      <point x="823" y="1371" type="line"/>
      <point x="409" y="1353"/>
      <point x="137" y="1036"/>
      <point x="107" y="736" type="curve"/>
      <point x="83" y="471"/>
      <point x="153" y="119"/>
      <point x="661" y="90" type="curve"/>
      <point x="643" y="-45" type="line"/>
      <point x="497" y="-69" type="line"/>
      <point x="491" y="-139" type="line"/>
      <point x="949" y="-139" type="line"/>
      <point x="955" y="-69" type="line"/>
      <point x="802" y="-45" type="line"/>
      <point x="820" y="90" type="line"/>
      <point x="1233" y="103"/>
      <point x="1518" y="443"/>
      <point x="1548" y="745" type="curve"/>
      <point x="1574" y="1009"/>
      <point x="1505" y="1349"/>
    </contour>
    <contour>
      <point x="813" y="1291" type="curve"/>
      <point x="671" y="173" type="line"/>
      <point x="275" y="206"/>
      <point x="243" y="539"/>
      <point x="265" y="748" type="curve"/>
      <point x="289" y="978"/>
      <point x="413" y="1274"/>
    </contour>
    <contour>
      <point x="830" y="171" type="curve"/>
      <point x="970" y="1290" type="line"/>
      <point x="1376" y="1265"/>
      <point x="1411" y="963"/>
      <point x="1389" y="743" type="curve"/>
      <point x="1364" y="493"/>
      <point x="1231" y="182"/>
    </contour>
  </outline>
</glyph>
<glyph name="Zedescender-cy.loclBSH" format="1">
  <advance width="1066"/>
  <outline>
    <contour>
      <point x="415" y="-502" type="curve"/>
      <point x="497" y="-502"/>
      <point x="553" y="-410"/>
      <point x="569" y="-294" type="curve"/>
      <point x="579" y="-214"/>
      <point x="565" y="-132"/>
      <point x="509" y="2" type="curve"/>
      <point x="783" y="50"/>
      <point x="991" y="224"/>
      <point x="991" y="494" type="curve"/>
      <point x="991" y="656"/>
      <point x="883" y="790"/>
      <point x="647" y="794" type="curve"/>
      <point x="797" y="828"/>
      <point x="991" y="952"/>
      <point x="991" y="1218" type="curve"/>
      <point x="991" y="1392"/>
      <point x="845" y="1502"/>
      <point x="565" y="1502" type="curve"/>
      <point x="421" y="1502"/>
      <point x="271" y="1442"/>
      <point x="189" y="1436" type="curve"/>
      <point x="169" y="1142" type="line"/>
      <point x="263" y="1142" type="line"/>
      <point x="301" y="1326" type="line"/>
      <point x="343" y="1374"/>
      <point x="445" y="1410"/>
      <point x="573" y="1410" type="curve"/>
      <point x="737" y="1410"/>
      <point x="827" y="1336"/>
      <point x="827" y="1194" type="curve"/>
      <point x="827" y="940"/>
      <point x="637" y="822"/>
      <point x="487" y="822" type="curve"/>
      <point x="341" y="822" type="line"/>
      <point x="331" y="720" type="line"/>
      <point x="503" y="728" type="line"/>
      <point x="731" y="728"/>
      <point x="817" y="628"/>
      <point x="817" y="484" type="curve"/>
      <point x="817" y="228"/>
      <point x="637" y="86"/>
      <point x="403" y="86" type="curve"/>
      <point x="259" y="86"/>
      <point x="157" y="114"/>
      <point x="107" y="142" type="curve"/>
      <point x="123" y="390" type="line"/>
      <point x="39" y="390" type="line"/>
      <point x="-45" y="66" type="line"/>
      <point x="19" y="38"/>
      <point x="153" y="-10"/>
      <point x="345" y="-12" type="curve"/>
      <point x="371" y="-12"/>
      <point x="395" y="-10"/>
      <point x="421" y="-8" type="curve"/>
      <point x="445" y="-84"/>
      <point x="459" y="-150"/>
      <point x="447" y="-236" type="curve"/>
      <point x="325" y="-402" type="line"/>
      <point x="317" y="-466"/>
      <point x="353" y="-502"/>
    </contour>
    <contour>
      <point x="605" y="1486" type="move" name="top"/>
    </contour>
  </outline>
</glyph>
<glyph name="b.sc" format="1">
  <advance width="1085"/>
  <outline>
    <contour>
      <point x="446" y="-12" type="curve"/>
      <point x="755" y="-12"/>
      <point x="998" y="102"/>
      <point x="998" y="340" type="curve"/>
      <point x="998" y="508"/>
      <point x="879" y="596"/>
      <point x="696" y="604" type="curve"/>
      <point x="878" y="643"/>
      <point x="998" y="764"/>
      <point x="998" y="924" type="curve"/>
      <point x="998" y="1071"/>
      <point x="889" y="1178"/>
      <point x="612" y="1178" type="curve"/>
      <point x="513" y="1178"/>
      <point x="437" y="1167"/>
      <point x="352" y="1165" type="curve"/>
      <point x="123" y="1165" type="line"/>
      <point x="118" y="1130" type="line"/>
      <point x="244" y="1104" type="line"/>
      <point x="100" y="61" type="line"/>
      <point x="-34" y="35" type="line"/>
      <point x="-39" y="0" type="line"/>
      <point x="178" y="0" type="line" smooth="yes"/>
      <point x="244" y="0"/>
      <point x="349" y="-12"/>
    </contour>
    <contour>
      <point x="236" y="68" type="curve"/>
      <point x="252" y="21" type="line"/>
      <point x="406" y="1130" type="line"/>
      <point x="378" y="1100" type="line"/>
      <point x="407" y="1121"/>
      <point x="533" y="1130"/>
      <point x="580" y="1130" type="curve"/>
      <point x="772" y="1130"/>
      <point x="840" y="1038"/>
      <point x="840" y="920" type="curve"/>
      <point x="840" y="736"/>
      <point x="717" y="627"/>
      <point x="537" y="628" type="curve"/>
      <point x="465" y="628"/>
      <point x="362" y="627"/>
      <point x="303" y="628" type="curve"/>
      <point x="295" y="572" type="line"/>
      <point x="342" y="573"/>
      <point x="405" y="573"/>
      <point x="517" y="573" type="curve"/>
      <point x="709" y="573"/>
      <point x="835" y="508"/>
      <point x="835" y="331" type="curve"/>
      <point x="835" y="154"/>
      <point x="685" y="38"/>
      <point x="457" y="38" type="curve"/>
      <point x="368" y="38"/>
      <point x="249" y="57"/>
    </contour>
    <contour>
      <point x="447" y="0" type="move" name="bottom"/>
    </contour>
    <contour>
      <point x="601" y="1165" type="move" name="top"/>
    </contour>
  </outline>
</glyph>
<glyph name="be-cy.sc" format="1">
  <advance width="1172"/>
  <outline>
    <contour>
      <point x="400" y="764" type="curve"/>
      <point x="456" y="1212" type="line"/>
      <point x="974" y="1208" type="line"/>
      <point x="1002" y="982" type="line"/>
      <point x="1104" y="982" type="line"/>
      <point x="1122" y="1292" type="line"/>
      <point x="170" y="1292" type="line"/>
      <point x="162" y="1220" type="line"/>
      <point x="304" y="1202" type="line"/>
      <point x="166" y="86" type="line"/>
      <point x="10" y="64" type="line"/>
      <point x="4" y="0" type="line"/>
      <point x="232" y="0" type="line" smooth="yes"/>
      <point x="310" y="0"/>
      <point x="488" y="-14"/>
      <point x="532" y="-14" type="curve"/>
      <point x="862" y="-14"/>
      <point x="1084" y="180"/>
      <point x="1084" y="464" type="curve"/>
      <point x="1084" y="674"/>
      <point x="932" y="792"/>
      <point x="656" y="792" type="curve"/>
      <point x="548" y="792"/>
      <point x="448" y="772"/>
    </contour>
    <contour>
      <point x="316" y="80" type="curve"/>
      <point x="390" y="676" type="line"/>
      <point x="436" y="684"/>
      <point x="522" y="698"/>
      <point x="612" y="698" type="curve"/>
      <point x="804" y="698"/>
      <point x="922" y="608"/>
      <point x="922" y="444" type="curve"/>
      <point x="922" y="230"/>
      <point x="776" y="68"/>
      <point x="530" y="68" type="curve"/>
      <point x="430" y="68"/>
      <point x="364" y="74"/>
    </contour>
    <contour>
      <point x="544" y="-144" type="move" name="btm"/>
    </contour>
    <contour>
      <point x="674" y="1292" type="move" name="top"/>
    </contour>
  </outline>
</glyph>
<glyph name="braceleft.case" format="1">
  <advance width="997"/>
  <outline>
    <contour>
      <point x="308" y="-61" type="curve"/>
      <point x="308" y="-148"/>
      <point x="344" y="-175"/>
      <point x="441" y="-175" type="curve"/>
      <point x="547" y="-175"/>
      <point x="621" y="-158"/>
      <point x="709" y="-138" type="curve"/>
      <point x="709" y="-138"/>
      <point x="716" y="-77"/>
      <point x="718" y="-65" type="curve"/>
      <point x="450" y="-65" type="line"/>
      <point x="544" y="566" type="line" smooth="yes"/>
      <point x="550" y="608"/>
      <point x="535" y="640"/>
      <point x="492" y="674" type="curve"/>
      <point x="451" y="708"/>
      <point x="403" y="732"/>
      <point x="341" y="762" type="curve"/>
      <point x="362" y="768"/>
      <point x="466" y="812"/>
      <point x="500" y="828" type="curve"/>
      <point x="563" y="860"/>
      <point x="595" y="898"/>
      <point x="603" y="952" type="curve"/>
      <point x="699" y="1583" type="line"/>
      <point x="969" y="1583" type="line"/>
      <point x="969" y="1597"/>
      <point x="980" y="1654"/>
      <point x="980" y="1654" type="curve"/>
      <point x="980" y="1654"/>
      <point x="808" y="1690"/>
      <point x="722" y="1690" type="curve"/>
      <point x="604" y="1690"/>
      <point x="563" y="1650"/>
      <point x="540" y="1493" type="curve"/>
      <point x="456" y="948" type="line"/>
      <point x="452" y="922"/>
      <point x="430" y="896"/>
      <point x="381" y="875" type="curve"/>
      <point x="323" y="849"/>
      <point x="255" y="829"/>
      <point x="187" y="813" type="curve"/>
      <point x="173" y="711" type="line"/>
      <point x="235" y="696"/>
      <point x="293" y="672"/>
      <point x="339" y="645" type="curve"/>
      <point x="382" y="620"/>
      <point x="402" y="598"/>
      <point x="400" y="570" type="curve"/>
      <point x="400" y="570"/>
      <point x="308" y="-39"/>
    </contour>
  </outline>
</glyph>
<glyph name="bracketleft.case" format="1">
  <advance width="835"/>
  <outline>
    <contour>
      <point x="324" y="-175" type="curve"/>
      <point x="419" y="-175"/>
      <point x="528" y="-159"/>
      <point x="611" y="-138" type="curve"/>
      <point x="619" y="-67" type="line"/>
      <point x="330" y="-65" type="line"/>
      <point x="558" y="1583" type="line"/>
      <point x="841" y="1583" type="line"/>
      <point x="851" y="1654" type="line"/>
      <point x="832" y="1656"/>
      <point x="674" y="1693"/>
      <point x="580" y="1693" type="curve"/>
      <point x="460" y="1693"/>
      <point x="419" y="1646"/>
      <point x="401" y="1494" type="curve"/>
      <point x="357" y="1139"/>
      <point x="212" y="316"/>
      <point x="193" y="26" type="curve"/>
      <point x="191" y="-6"/>
      <point x="191" y="-37"/>
      <point x="191" y="-63" type="curve"/>
      <point x="191" y="-149"/>
      <point x="230" y="-175"/>
    </contour>
  </outline>
</glyph>
<glyph name="brevecomb-cy.case" format="1">
  <advance width="0"/>
  <outline>
    <contour>
      <point x="-987" y="1962" type="curve"/>
      <point x="-1122" y="1962" type="line"/>
      <point x="-1130" y="1940"/>
      <point x="-1130" y="1917"/>
      <point x="-1130" y="1895" type="curve"/>
      <point x="-1130" y="1703"/>
      <point x="-978" y="1618"/>
      <point x="-780" y="1618" type="curve"/>
      <point x="-578" y="1618"/>
      <point x="-432" y="1714"/>
      <point x="-395" y="1930" type="curve"/>
      <point x="-393" y="1942"/>
      <point x="-393" y="1952"/>
      <point x="-393" y="1962" type="curve"/>
      <point x="-507" y="1962" type="line" smooth="yes"/>
      <point x="-531" y="1962"/>
      <point x="-539" y="1930"/>
      <point x="-543" y="1896" type="curve"/>
      <point x="-557" y="1774"/>
      <point x="-616" y="1698"/>
      <point x="-768" y="1698" type="curve"/>
      <point x="-915" y="1698"/>
      <point x="-971" y="1751"/>
      <point x="-971" y="1847" type="curve"/>
      <point x="-971" y="1869"/>
      <point x="-968" y="1897"/>
      <point x="-966" y="1920" type="curve"/>
      <point x="-965" y="1942"/>
      <point x="-969" y="1962"/>
    </contour>
    <contour>
      <point x="-803" y="1486" type="move" name="_top"/>
    </contour>
  </outline>
</glyph>
<glyph name="brevecomb.case" format="1">
  <advance width="0"/>
  <outline>
    <contour>
      <point x="152" y="1597" type="curve"/>
      <point x="329" y="1597"/>
      <point x="477" y="1769"/>
      <point x="477" y="1936" type="curve"/>
      <point x="395" y="1936" type="line"/>
      <point x="378" y="1840"/>
      <point x="310" y="1717"/>
      <point x="156" y="1717" type="curve"/>
      <point x="-3" y="1717"/>
      <point x="-36" y="1848"/>
      <point x="-39" y="1936" type="curve"/>
      <point x="-125" y="1936" type="line"/>
      <point x="-127" y="1923"/>
      <point x="-127" y="1909"/>
      <point x="-127" y="1896" type="curve"/>
      <point x="-127" y="1748"/>
      <point x="-46" y="1597"/>
    </contour>
    <contour>
      <point x="132" y="1486" type="move" name="_top"/>
    </contour>
  </outline>
</glyph>
<glyph name="brevecomb_gravecomb" format="1">
  <advance width="0"/>
  <outline>
    <contour>
      <point x="101" y="1320" type="curve"/>
      <point x="274" y="1320"/>
      <point x="387" y="1406"/>
      <point x="409" y="1563" type="curve"/>
      <point x="411" y="1578"/>
      <point x="411" y="1591"/>
      <point x="411" y="1605" type="curve"/>
      <point x="327" y="1605" type="line"/>
      <point x="329" y="1599"/>
      <point x="325" y="1586"/>
      <point x="321" y="1574" type="curve"/>
      <point x="298" y="1500"/>
      <point x="256" y="1450"/>
      <point x="127" y="1450" type="curve"/>
      <point x="1" y="1450"/>
      <point x="-48" y="1500"/>
      <point x="-47" y="1574" type="curve"/>
      <point x="-47" y="1586"/>
      <point x="-43" y="1599"/>
      <point x="-43" y="1605" type="curve"/>
      <point x="-130" y="1605" type="line"/>
      <point x="-136" y="1591"/>
      <point x="-138" y="1576"/>
      <point x="-140" y="1561" type="curve"/>
      <point x="-162" y="1404"/>
      <point x="-49" y="1320"/>
    </contour>
    <contour>
      <point x="170" y="1655" type="curve"/>
      <point x="250" y="1710" type="line"/>
      <point x="44" y="2021" type="line"/>
      <point x="-84" y="1923" type="line"/>
      <point x="-12" y="1824"/>
      <point x="132" y="1683"/>
    </contour>
    <contour>
      <point x="80" y="1110" type="move" name="_top"/>
    </contour>
  </outline>
</glyph>
<glyph name="brevecomb_hookabovecomb.case" format="1">
  <advance width="0"/>
  <outline>
    <contour>
      <point x="145" y="1615" type="curve"/>
      <point x="318" y="1615"/>
      <point x="431" y="1701"/>
      <point x="453" y="1858" type="curve"/>
      <point x="455" y="1873"/>
      <point x="456" y="1886"/>
      <point x="456" y="1900" type="curve"/>
      <point x="371" y="1900" type="line"/>
      <point x="373" y="1894"/>
      <point x="369" y="1881"/>
      <point x="365" y="1869" type="curve"/>
      <point x="342" y="1796"/>
      <point x="301" y="1745"/>
      <point x="172" y="1745" type="curve"/>
      <point x="45" y="1745"/>
      <point x="-4" y="1796"/>
      <point x="-3" y="1869" type="curve"/>
      <point x="-3" y="1881"/>
      <point x="1" y="1894"/>
      <point x="1" y="1900" type="curve"/>
      <point x="-85" y="1900" type="line"/>
      <point x="-91" y="1886"/>
      <point x="-94" y="1871"/>
      <point x="-96" y="1856" type="curve"/>
      <point x="-118" y="1699"/>
      <point x="-5" y="1615"/>
    </contour>
    <contour>
      <point x="149" y="1878" type="curve"/>
      <point x="220" y="1879" type="line"/>
      <point x="213" y="1908"/>
      <point x="227" y="1926"/>
      <point x="244" y="1940" type="curve"/>
      <point x="302" y="1988"/>
      <point x="393" y="2010"/>
      <point x="408" y="2102" type="curve"/>
      <point x="428" y="2215"/>
      <point x="352" y="2280"/>
      <point x="224" y="2280" type="curve"/>
      <point x="202" y="2280"/>
      <point x="142" y="2272"/>
      <point x="136" y="2264" type="curve"/>
      <point x="125" y="2165" type="line"/>
      <point x="135" y="2171"/>
      <point x="174" y="2173"/>
      <point x="190" y="2171" type="curve"/>
      <point x="267" y="2162"/>
      <point x="288" y="2125"/>
      <point x="281" y="2083" type="curve"/>
      <point x="269" y="2025"/>
      <point x="146" y="2010"/>
      <point x="136" y="1940" type="curve"/>
      <point x="132" y="1917"/>
      <point x="135" y="1896"/>
    </contour>
    <contour>
      <point x="132" y="1486" type="move" name="_top"/>
    </contour>
  </outline>
</glyph>
<glyph name="brevecomb_hookabovecomb" format="1">
  <advance width="0"/>
  <outline>
    <contour>
      <point x="99" y="1320" type="curve"/>
      <point x="272" y="1320"/>
      <point x="385" y="1406"/>
      <point x="407" y="1563" type="curve"/>
      <point x="409" y="1578"/>
      <point x="410" y="1591"/>
      <point x="410" y="1605" type="curve"/>
      <point x="325" y="1605" type="line"/>
      <point x="327" y="1599"/>
      <point x="323" y="1586"/>
      <point x="319" y="1574" type="curve"/>
      <point x="296" y="1500"/>
      <point x="255" y="1450"/>
      <point x="126" y="1450" type="curve"/>
      <point x="-1" y="1450"/>
      <point x="-50" y="1500"/>
      <point x="-49" y="1574" type="curve"/>
      <point x="-49" y="1586"/>
      <point x="-45" y="1599"/>
      <point x="-45" y="1605" type="curve"/>
      <point x="-131" y="1605" type="line"/>
      <point x="-137" y="1591"/>
      <point x="-140" y="1576"/>
      <point x="-142" y="1561" type="curve"/>
      <point x="-164" y="1404"/>
      <point x="-51" y="1320"/>
    </contour>
    <contour>
      <point x="111" y="1623" type="curve"/>
      <point x="181" y="1625" type="line"/>
      <point x="175" y="1653"/>
      <point x="189" y="1671"/>
      <point x="206" y="1686" type="curve"/>
      <point x="264" y="1734"/>
      <point x="355" y="1755"/>
      <point x="370" y="1847" type="curve"/>
      <point x="390" y="1960"/>
      <point x="314" y="2025"/>
      <point x="185" y="2025" type="curve"/>
      <point x="164" y="2025"/>
      <point x="104" y="2017"/>
      <point x="98" y="2009" type="curve"/>
      <point x="87" y="1910" type="line"/>
      <point x="97" y="1916"/>
      <point x="135" y="1918"/>
      <point x="152" y="1916" type="curve"/>
      <point x="229" y="1907"/>
      <point x="250" y="1870"/>
      <point x="243" y="1829" type="curve"/>
      <point x="231" y="1770"/>
      <point x="108" y="1755"/>
      <point x="98" y="1685" type="curve"/>
      <point x="94" y="1662"/>
      <point x="97" y="1641"/>
    </contour>
    <contour>
      <point x="78" y="1110" type="move" name="_top"/>
    </contour>
  </outline>
</glyph>
<glyph name="brevecomb_tildecomb" format="1">
  <advance width="0"/>
  <outline>
    <contour>
      <point x="99" y="1320" type="curve"/>
      <point x="272" y="1320"/>
      <point x="385" y="1406"/>
      <point x="407" y="1563" type="curve"/>
      <point x="409" y="1578"/>
      <point x="410" y="1591"/>
      <point x="410" y="1605" type="curve"/>
      <point x="325" y="1605" type="line"/>
      <point x="327" y="1599"/>
      <point x="323" y="1586"/>
      <point x="319" y="1574" type="curve"/>
      <point x="296" y="1500"/>
      <point x="255" y="1450"/>
      <point x="126" y="1450" type="curve"/>
      <point x="-1" y="1450"/>
      <point x="-50" y="1500"/>
      <point x="-49" y="1574" type="curve"/>
      <point x="-49" y="1586"/>
      <point x="-45" y="1599"/>
      <point x="-45" y="1605" type="curve"/>
      <point x="-131" y="1605" type="line"/>
      <point x="-137" y="1591"/>
      <point x="-140" y="1576"/>
      <point x="-142" y="1561" type="curve"/>
      <point x="-164" y="1404"/>
      <point x="-51" y="1320"/>
    </contour>
    <contour>
      <point x="-118" y="1734" type="curve"/>
      <point x="-54" y="1707" type="line"/>
      <point x="-28" y="1741"/>
      <point x="0" y="1780"/>
      <point x="50" y="1780" type="curve"/>
      <point x="134" y="1780"/>
      <point x="151" y="1679"/>
      <point x="265" y="1679" type="curve"/>
      <point x="364" y="1679"/>
      <point x="434" y="1756"/>
      <point x="467" y="1849" type="curve"/>
      <point x="406" y="1876" type="line"/>
      <point x="385" y="1838"/>
      <point x="347" y="1803"/>
      <point x="302" y="1803" type="curve"/>
      <point x="220" y="1803"/>
      <point x="202" y="1904"/>
      <point x="86" y="1904" type="curve"/>
      <point x="-14" y="1904"/>
      <point x="-82" y="1826"/>
    </contour>
    <contour>
      <point x="80" y="1110" type="move" name="_top"/>
    </contour>
  </outline>
</glyph>
<glyph name="caroncomb.case" format="1">
  <advance width="0"/>
  <outline>
    <contour>
      <point x="-30" y="1988" type="line"/>
      <point x="-89" y="1942" type="line"/>
      <point x="96" y="1649" type="line"/>
      <point x="221" y="1649" type="line"/>
      <point x="496" y="1942" type="line"/>
      <point x="444" y="1988" type="line"/>
      <point x="170" y="1764" type="line"/>
    </contour>
    <contour>
      <point x="132" y="1486" type="move" name="_top"/>
    </contour>
    <contour>
      <point x="186" y="1877" type="move" name="top"/>
    </contour>
  </outline>
</glyph>
<glyph name="chedescenderabkhasian-cy.sc" format="1">
  <advance width="1392"/>
  <outline>
    <contour>
      <point x="1212" y="49" type="curve"/>
      <point x="1252" y="303" type="line"/>
      <point x="1167" y="303" type="line"/>
      <point x="1110" y="149" type="line"/>
      <point x="1056" y="109"/>
      <point x="964" y="61"/>
      <point x="798" y="61" type="curve"/>
      <point x="597" y="61"/>
      <point x="440" y="226"/>
      <point x="440" y="538" type="curve"/>
      <point x="440" y="571"/>
      <point x="441" y="601"/>
      <point x="444" y="630" type="curve"/>
      <point x="1314" y="631" type="line"/>
      <point x="1332" y="678"/>
      <point x="1348" y="772"/>
      <point x="1348" y="868" type="curve"/>
      <point x="1348" y="1150"/>
      <point x="1202" y="1306"/>
      <point x="958" y="1306" type="curve"/>
      <point x="645" y="1306"/>
      <point x="375" y="1067"/>
      <point x="303" y="714" type="curve"/>
      <point x="182" y="716"/>
      <point x="135" y="760"/>
      <point x="135" y="807" type="curve"/>
      <point x="135" y="836"/>
      <point x="167" y="912"/>
      <point x="187" y="933" type="curve"/>
      <point x="68" y="956" type="line"/>
      <point x="38" y="938"/>
      <point x="1" y="842"/>
      <point x="1" y="796" type="curve"/>
      <point x="1" y="693"/>
      <point x="108" y="632"/>
      <point x="290" y="630" type="curve"/>
      <point x="284" y="586"/>
      <point x="282" y="546"/>
      <point x="282" y="512" type="curve"/>
      <point x="282" y="188"/>
      <point x="464" y="-20"/>
      <point x="756" y="-20" type="curve"/>
      <point x="1012" y="-20"/>
      <point x="1114" y="47"/>
    </contour>
    <contour>
      <point x="1170" y="714" type="curve"/>
      <point x="450" y="714" type="line"/>
      <point x="501" y="1056"/>
      <point x="693" y="1222"/>
      <point x="914" y="1222" type="curve"/>
      <point x="1107" y="1222"/>
      <point x="1196" y="1056"/>
      <point x="1196" y="896" type="curve"/>
      <point x="1196" y="831"/>
      <point x="1184" y="771"/>
    </contour>
    <contour>
      <point x="835" y="19" type="curve"/>
      <point x="793" y="23" type="line"/>
      <point x="754" y="19" type="line"/>
      <point x="764" y="-4"/>
      <point x="772" y="-40"/>
      <point x="772" y="-84" type="curve"/>
      <point x="772" y="-203"/>
      <point x="714" y="-281"/>
      <point x="601" y="-281" type="curve"/>
      <point x="556" y="-281"/>
      <point x="520" y="-273"/>
      <point x="506" y="-265" type="curve"/>
      <point x="495" y="-373" type="line"/>
      <point x="515" y="-387"/>
      <point x="573" y="-397"/>
      <point x="619" y="-397" type="curve"/>
      <point x="765" y="-397"/>
      <point x="872" y="-308"/>
      <point x="872" y="-132" type="curve"/>
      <point x="872" y="-65"/>
      <point x="855" y="-11"/>
    </contour>
  </outline>
</glyph>
<glyph name="chekhakassian-cy.sc" format="1">
  <advance width="1210"/>
  <outline>
    <contour>
      <point x="709" y="0" type="curve"/>
      <point x="1064" y="0" type="line"/>
      <point x="1070" y="64" type="line"/>
      <point x="920" y="86" type="line"/>
      <point x="1058" y="1202" type="line"/>
      <point x="1189" y="1220" type="line"/>
      <point x="1197" y="1292" type="line"/>
      <point x="763" y="1292" type="line"/>
      <point x="755" y="1220" type="line"/>
      <point x="898" y="1202" type="line"/>
      <point x="832" y="667" type="line"/>
      <point x="765" y="629"/>
      <point x="635" y="606"/>
      <point x="537" y="606" type="curve"/>
      <point x="308" y="606"/>
      <point x="286" y="696"/>
      <point x="317" y="984" type="curve"/>
      <point x="347" y="1200" type="line"/>
      <point x="488" y="1220" type="line"/>
      <point x="496" y="1292" type="line"/>
      <point x="65" y="1292" type="line"/>
      <point x="58" y="1218" type="line"/>
      <point x="187" y="1202" type="line"/>
      <point x="145" y="880" type="line"/>
      <point x="107" y="566"/>
      <point x="250" y="507"/>
      <point x="474" y="507" type="curve"/>
      <point x="576" y="507"/>
      <point x="715" y="527"/>
      <point x="820" y="584" type="curve"/>
      <point x="760" y="86" type="line"/>
      <point x="571" y="86" type="line"/>
      <point x="550" y="-72"/>
      <point x="539" y="-176"/>
      <point x="526" y="-296" type="curve"/>
      <point x="628" y="-296" type="line"/>
      <point x="641" y="-230"/>
      <point x="687" y="-53"/>
    </contour>
  </outline>
</glyph>
<glyph name="cheverticalstroke-cy.sc" format="1">
  <advance width="1210"/>
  <outline>
    <contour>
      <point x="820" y="584" type="curve"/>
      <point x="760" y="86" type="line"/>
      <point x="586" y="64" type="line"/>
      <point x="581" y="0" type="line"/>
      <point x="1064" y="0" type="line"/>
      <point x="1070" y="64" type="line"/>
      <point x="920" y="86" type="line"/>
      <point x="1058" y="1202" type="line"/>
      <point x="1189" y="1220" type="line"/>
      <point x="1197" y="1292" type="line"/>
      <point x="763" y="1292" type="line"/>
      <point x="755" y="1220" type="line"/>
      <point x="898" y="1202" type="line"/>
      <point x="832" y="667" type="line"/>
      <point x="780" y="638"/>
      <point x="692" y="618"/>
      <point x="602" y="610" type="curve"/>
      <point x="634" y="876" type="line"/>
      <point x="554" y="876" type="line"/>
      <point x="518" y="607" type="line"/>
      <point x="304" y="613"/>
      <point x="290" y="706"/>
      <point x="317" y="984" type="curve"/>
      <point x="347" y="1200" type="line"/>
      <point x="488" y="1220" type="line"/>
      <point x="496" y="1292" type="line"/>
      <point x="65" y="1292" type="line"/>
      <point x="58" y="1218" type="line"/>
      <point x="187" y="1202" type="line"/>
      <point x="145" y="880" type="line"/>
      <point x="107" y="566"/>
      <point x="250" y="507"/>
      <point x="474" y="507" type="curve"/>
      <point x="484" y="507"/>
      <point x="494" y="507"/>
      <point x="508" y="507" type="curve"/>
      <point x="484" y="314" type="line"/>
      <point x="567" y="314" type="line"/>
      <point x="591" y="516" type="line"/>
      <point x="668" y="526"/>
      <point x="754" y="549"/>
    </contour>
  </outline>
</glyph>
<glyph name="circumflexcomb_acutecomb" format="1">
  <advance width="0"/>
  <outline>
    <contour>
      <point x="226" y="1642" type="line"/>
      <point x="86" y="1642" type="line"/>
      <point x="-216" y="1337" type="line"/>
      <point x="-161" y="1298" type="line"/>
      <point x="137" y="1519" type="line"/>
      <point x="351" y="1298" type="line"/>
      <point x="425" y="1339" type="line"/>
    </contour>
    <contour>
      <point x="386" y="1647" type="line"/>
      <point x="435" y="1590" type="line"/>
      <point x="521" y="1627"/>
      <point x="632" y="1711"/>
      <point x="690" y="1782" type="curve"/>
      <point x="603" y="1877" type="line"/>
    </contour>
    <contour>
      <point x="80" y="1110" type="move" name="_top"/>
    </contour>
  </outline>
</glyph>
<glyph name="circumflexcomb_tildecomb.case" format="1">
  <advance width="0"/>
  <outline>
    <contour>
      <point x="268" y="1930" type="line"/>
      <point x="118" y="1930" type="line"/>
      <point x="-147" y="1693" type="line"/>
      <point x="-88" y="1628" type="line"/>
      <point x="176" y="1797" type="line"/>
      <point x="381" y="1631" type="line"/>
      <point x="470" y="1684" type="line"/>
    </contour>
    <contour>
      <point x="-34" y="2049" type="curve"/>
      <point x="31" y="2018" type="line"/>
      <point x="54" y="2052"/>
      <point x="70" y="2077"/>
      <point x="120" y="2077" type="curve"/>
      <point x="170" y="2077"/>
      <point x="212" y="2000"/>
      <point x="309" y="2000" type="curve"/>
      <point x="390" y="2000"/>
      <point x="463" y="2058"/>
      <point x="474" y="2151" type="curve"/>
      <point x="405" y="2182" type="line"/>
      <point x="388" y="2144"/>
      <point x="364" y="2124"/>
      <point x="320" y="2124" type="curve"/>
      <point x="253" y="2124"/>
      <point x="212" y="2201"/>
      <point x="132" y="2201" type="curve"/>
      <point x="51" y="2201"/>
      <point x="-25" y="2142"/>
    </contour>
    <contour>
      <point x="134" y="1486" type="move" name="_top"/>
    </contour>
  </outline>
</glyph>
<glyph name="circumflexcomb_tildecomb" format="1">
  <advance width="0"/>
  <outline>
    <contour>
      <point x="228" y="1642" type="line"/>
      <point x="88" y="1642" type="line"/>
      <point x="-214" y="1337" type="line"/>
      <point x="-159" y="1298" type="line"/>
      <point x="139" y="1519" type="line"/>
      <point x="353" y="1298" type="line"/>
      <point x="427" y="1339" type="line"/>
    </contour>
    <contour>
      <point x="-108" y="1784" type="curve"/>
      <point x="-45" y="1757" type="line"/>
      <point x="-19" y="1791"/>
      <point x="9" y="1831"/>
      <point x="59" y="1831" type="curve"/>
      <point x="143" y="1831"/>
      <point x="151" y="1729"/>
      <point x="265" y="1729" type="curve"/>
      <point x="364" y="1729"/>
      <point x="443" y="1807"/>
      <point x="477" y="1899" type="curve"/>
      <point x="415" y="1927" type="line"/>
      <point x="395" y="1889"/>
      <point x="356" y="1853"/>
      <point x="312" y="1853" type="curve"/>
      <point x="230" y="1853"/>
      <point x="222" y="1955"/>
      <point x="106" y="1955" type="curve"/>
      <point x="7" y="1955"/>
      <point x="-73" y="1877"/>
    </contour>
    <contour>
      <point x="78" y="1110" type="move" name="_top"/>
    </contour>
  </outline>
</glyph>
<glyph name="commaaccentcomb.case" format="1">
  <advance width="0"/>
  <outline>
    <contour>
      <point x="-222" y="-495" type="curve"/>
      <point x="-222" y="-513" type="line"/>
      <point x="-153" y="-546" type="line"/>
      <point x="-90" y="-528"/>
      <point x="-8" y="-411"/>
      <point x="-4" y="-287" type="curve"/>
      <point x="0" y="-196"/>
      <point x="-28" y="-125"/>
      <point x="-105" y="-96" type="curve"/>
      <point x="-217" y="-160" type="line"/>
      <point x="-217" y="-212" type="line"/>
      <point x="-177" y="-227"/>
      <point x="-152" y="-277"/>
      <point x="-152" y="-330" type="curve"/>
      <point x="-151" y="-388"/>
      <point x="-177" y="-460"/>
    </contour>
    <contour>
      <point x="-78" y="0" type="move" name="_bottom"/>
    </contour>
  </outline>
</glyph>
<glyph name="delta.sc" format="1">
  <advance width="1328"/>
  <outline>
    <contour>
      <point x="669" y="1283" type="line"/>
      <point x="-31" y="20" type="line"/>
      <point x="-19" y="0" type="line"/>
      <point x="1237" y="0" type="line"/>
      <point x="1251" y="22" type="line"/>
      <point x="701" y="1283" type="line"/>
    </contour>
    <contour>
      <point x="639" y="1034" type="line"/>
      <point x="1036" y="116" type="line"/>
      <point x="125" y="116" type="line"/>
    </contour>
  </outline>
</glyph>
<glyph name="dje-cy.sc" format="1">
  <advance width="1520"/>
  <outline>
    <contour>
      <point x="696" y="658" type="curve"/>
      <point x="766" y="1218" type="line"/>
      <point x="1176" y="1205" type="line"/>
      <point x="1173" y="909" type="line"/>
      <point x="1270" y="909" type="line"/>
      <point x="1324" y="1292" type="line"/>
      <point x="138" y="1292" type="line"/>
      <point x="71" y="909" type="line"/>
      <point x="172" y="909" type="line"/>
      <point x="258" y="1205" type="line"/>
      <point x="610" y="1218" type="line"/>
      <point x="468" y="88" type="line"/>
      <point x="273" y="64" type="line"/>
      <point x="267" y="0" type="line"/>
      <point x="814" y="0" type="line"/>
      <point x="818" y="64" type="line"/>
      <point x="624" y="88" type="line"/>
      <point x="685" y="578" type="line"/>
      <point x="754" y="600"/>
      <point x="878" y="643"/>
      <point x="1015" y="643" type="curve"/>
      <point x="1199" y="643"/>
      <point x="1282" y="560"/>
      <point x="1282" y="379" type="curve"/>
      <point x="1282" y="266"/>
      <point x="1207" y="96"/>
      <point x="1049" y="76" type="curve"/>
      <point x="1019" y="70"/>
      <point x="979" y="68"/>
      <point x="965" y="70" type="curve"/>
      <point x="960" y="0" type="line"/>
      <point x="978" y="-2"/>
      <point x="1004" y="-4"/>
      <point x="1028" y="-4" type="curve"/>
      <point x="1296" y="-4"/>
      <point x="1451" y="252"/>
      <point x="1451" y="428" type="curve"/>
      <point x="1451" y="550"/>
      <point x="1403" y="740"/>
      <point x="1090" y="740" type="curve"/>
      <point x="924" y="740"/>
      <point x="779" y="692"/>
    </contour>
    <contour>
      <point x="500" y="-144" type="move" name="btm"/>
    </contour>
    <contour>
      <point x="616" y="1444" type="move" name="top"/>
    </contour>
  </outline>
</glyph>
